STARTFONT 2.3
FONT -FontForge-Source Code Pro-Bold-R-Normal--18-180-72-72-M-110-ISO10646-1
SIZE 18 72 72  2
FONTBOUNDINGBOX 19 27 -4 -8
COMMENT "Generated by fontforge, http://fontforge.sourceforge.net"
COMMENT "Copyright 2010, 2012 Adobe Systems Incorporated (http://www.adobe.com/), with Reserved Font Name `Source'."
STARTPROPERTIES 41
FOUNDRY "FontForge"
FAMILY_NAME "Source Code Pro"
WEIGHT_NAME "Bold"
SLANT "R"
SETWIDTH_NAME "Normal"
ADD_STYLE_NAME ""
PIXEL_SIZE 18
POINT_SIZE 180
RESOLUTION_X 72
RESOLUTION_Y 72
SPACING "M"
AVERAGE_WIDTH 110
CHARSET_REGISTRY "ISO10646"
CHARSET_ENCODING "1"
FONTNAME_REGISTRY ""
CHARSET_COLLECTIONS "ASCII ISOLatin1Encoding ISO8859-2 ISO8859-5 ISO8859-7 ISO8859-9 ISO8859-4 ISO10646-1"
BITS_PER_PIXEL 2
FONT_NAME "SourceCodePro-Bold"
FACE_NAME "Source Code Pro Bold"
COPYRIGHT "Copyright 2010, 2012 Adobe Systems Incorporated (http://www.adobe.com/), with Reserved Font Name `Source'."
FONT_VERSION "2.030;PS 1.000;hotconv 16.6.51;makeotf.lib2.5.65220"
FONT_ASCENT 13
FONT_DESCENT 5
UNDERLINE_POSITION -2
UNDERLINE_THICKNESS 1
X_HEIGHT 8
CAP_HEIGHT 11
RAW_ASCENT 750
RAW_DESCENT 250
NORM_SPACE 11
RELATIVE_WEIGHT 70
RELATIVE_SETWIDTH 50
SUPERSCRIPT_X 0
SUPERSCRIPT_Y 6
SUPERSCRIPT_SIZE 10
SUBSCRIPT_X 0
SUBSCRIPT_Y 1
SUBSCRIPT_SIZE 10
FIGURE_WIDTH 11
AVG_LOWERCASE_WIDTH 110
AVG_UPPERCASE_WIDTH 110
ENDPROPERTIES
CHARS 1564
STARTCHAR space
ENCODING 32
SWIDTH 600 0
DWIDTH 11 0
BBX 1 1 0 0
BITMAP
00
ENDCHAR
STARTCHAR exclam
ENCODING 33
SWIDTH 600 0
DWIDTH 11 0
BBX 4 12 3 0
BITMAP
3E
3E
2E
2E
2D
2D
2D
00
2E
7F
7F
2E
ENDCHAR
STARTCHAR quotedbl
ENCODING 34
SWIDTH 600 0
DWIDTH 11 0
BBX 9 7 1 5
BITMAP
7E2F40
7E2F40
7D2F40
7D2F00
3D1F00
3C1E00
3C0E00
ENDCHAR
STARTCHAR numbersign
ENCODING 35
SWIDTH 600 0
DWIDTH 11 0
BBX 9 11 1 0
BITMAP
070D00
0B0D00
7F1D00
7FFF80
0E2D40
0D2C00
BFFE40
BEBE40
1C3400
2C7400
287400
ENDCHAR
STARTCHAR dollar
ENCODING 36
SWIDTH 600 0
DWIDTH 11 0
BBX 9 15 1 -2
BITMAP
01D000
01D000
0BF900
3FFF00
7D1900
7E4000
2FF400
06FE00
002F40
381F40
BFFF00
1BF800
01D000
01D000
01D000
ENDCHAR
STARTCHAR percent
ENCODING 37
SWIDTH 600 0
DWIDTH 11 0
BBX 11 12 0 0
BITMAP
1F8000
7FD060
75E0F4
75E2D0
7FDB40
1F8100
000B90
012FF0
077CB4
1E3CB4
7C2FF0
200B90
ENDCHAR
STARTCHAR ampersand
ENCODING 38
SWIDTH 600 0
DWIDTH 11 0
BBX 11 12 0 0
BITMAP
06E400
0FFC00
1F3D00
1E3C00
0FF800
0FF0A4
2FD1F0
7EFAE0
BCBFD0
7D2FE0
3FFFF4
0BE470
ENDCHAR
STARTCHAR quotesingle
ENCODING 39
SWIDTH 600 0
DWIDTH 11 0
BBX 3 7 4 5
BITMAP
FC
FC
FC
F8
B8
B4
74
ENDCHAR
STARTCHAR parenleft
ENCODING 40
SWIDTH 600 0
DWIDTH 11 0
BBX 6 16 3 -3
BITMAP
0180
07D0
0F40
2E00
3C00
7800
B800
B800
B800
B800
7800
3C00
2E00
0F40
07D0
0180
ENDCHAR
STARTCHAR parenright
ENCODING 41
SWIDTH 600 0
DWIDTH 11 0
BBX 6 16 2 -3
BITMAP
2400
7D00
2F00
0F40
07C0
03D0
02D0
02E0
02E0
02D0
03D0
07C0
0F40
2F00
7D00
2400
ENDCHAR
STARTCHAR asterisk
ENCODING 42
SWIDTH 600 0
DWIDTH 11 0
BBX 9 9 1 2
BITMAP
018000
01D000
01D000
BAEB40
6FFE40
07F400
0BB800
1E2D00
180900
ENDCHAR
STARTCHAR plus
ENCODING 43
SWIDTH 600 0
DWIDTH 11 0
BBX 9 10 1 1
BITMAP
014000
02D000
02D000
02D000
BFFF80
BFFF80
02D000
02D000
02D000
014000
ENDCHAR
STARTCHAR comma
ENCODING 44
SWIDTH 600 0
DWIDTH 11 0
BBX 5 8 3 -4
BITMAP
2E00
7F40
7F80
2F80
0780
0F40
7E00
7400
ENDCHAR
STARTCHAR hyphen
ENCODING 45
SWIDTH 600 0
DWIDTH 11 0
BBX 9 2 1 5
BITMAP
BFFF80
BFFF80
ENDCHAR
STARTCHAR period
ENCODING 46
SWIDTH 600 0
DWIDTH 11 0
BBX 5 4 3 0
BITMAP
2E00
BF40
BF40
2E00
ENDCHAR
STARTCHAR slash
ENCODING 47
SWIDTH 600 0
DWIDTH 11 0
BBX 9 16 1 -3
BITMAP
000F40
001F00
002E00
003D00
007800
00B400
00F000
02E000
03D000
07C000
0B8000
0F4000
1F0000
2D0000
3C0000
780000
ENDCHAR
STARTCHAR zero
ENCODING 48
SWIDTH 600 0
DWIDTH 11 0
BBX 9 11 1 0
BITMAP
0BF400
2FFE00
7D1F40
B80F80
F59B80
F7EB80
F6DB80
B80F80
7D1F40
2FFE00
0BF400
ENDCHAR
STARTCHAR one
ENCODING 49
SWIDTH 600 0
DWIDTH 11 0
BBX 9 12 1 0
BITMAP
005000
2BF000
3FF000
16F000
02F000
02F000
02F000
02F000
02F000
02F400
BFFF80
BFFF80
ENDCHAR
STARTCHAR two
ENCODING 50
SWIDTH 600 0
DWIDTH 11 0
BBX 9 11 1 0
BITMAP
1BE400
BFFD00
747F00
002F00
002E00
007D00
01F800
07E000
1F8000
BFFF80
FFFF80
ENDCHAR
STARTCHAR three
ENCODING 51
SWIDTH 600 0
DWIDTH 11 0
BBX 9 11 1 0
BITMAP
1BE400
BFFE00
242F00
006F00
0BF800
0BFD00
006F40
000F80
A42F40
FFFE00
2FE400
ENDCHAR
STARTCHAR four
ENCODING 52
SWIDTH 600 0
DWIDTH 11 0
BBX 10 11 0 0
BITMAP
003F80
00BF80
02EB80
07CF80
0F4F80
2E0F80
7FFFF0
7FFFF0
000F80
000F80
000F80
ENDCHAR
STARTCHAR five
ENCODING 53
SWIDTH 600 0
DWIDTH 11 0
BBX 9 11 1 0
BITMAP
3FFF00
3FFF00
3D0000
3D0000
7FF800
3FFF00
142F40
000F80
642F40
FFFE00
2BE400
ENDCHAR
STARTCHAR six
ENCODING 54
SWIDTH 600 0
DWIDTH 11 0
BBX 9 11 1 0
BITMAP
06F900
1FFF40
7E0500
BC0000
B9F900
FFFF40
FD0F80
B80B80
7D1F80
2FFF00
07F800
ENDCHAR
STARTCHAR seven
ENCODING 55
SWIDTH 600 0
DWIDTH 11 0
BBX 9 11 1 0
BITMAP
FFFF80
FFFF80
002E00
007C00
00B400
01F000
02E000
03D000
07D000
07D000
07D000
ENDCHAR
STARTCHAR eight
ENCODING 56
SWIDTH 600 0
DWIDTH 11 0
BBX 9 11 1 0
BITMAP
0BF800
3FFE00
7D1F40
7E5F00
1FFD00
2FFD00
7C6F40
F40F80
B81F80
7FFF40
1BF900
ENDCHAR
STARTCHAR nine
ENCODING 57
SWIDTH 600 0
DWIDTH 11 0
BBX 9 11 1 0
BITMAP
1BE400
7FFD00
F82F00
F40F40
F82F80
BFFF80
1F9F80
001F40
247F00
BFFD00
2FE400
ENDCHAR
STARTCHAR colon
ENCODING 58
SWIDTH 600 0
DWIDTH 11 0
BBX 5 10 3 0
BITMAP
2E00
BF40
BF40
2E00
0000
0000
2E00
BF40
BF40
2E00
ENDCHAR
STARTCHAR semicolon
ENCODING 59
SWIDTH 600 0
DWIDTH 11 0
BBX 5 14 3 -4
BITMAP
2E00
BF40
BF40
2E00
0000
0000
2E00
7F40
7F80
2F80
0780
0F40
7E00
7400
ENDCHAR
STARTCHAR less
ENCODING 60
SWIDTH 600 0
DWIDTH 11 0
BBX 7 10 2 1
BITMAP
0008
00BC
07F4
6F80
F900
F900
6F80
07F4
00BC
0008
ENDCHAR
STARTCHAR equal
ENCODING 61
SWIDTH 600 0
DWIDTH 11 0
BBX 9 6 1 3
BITMAP
BFFF80
BFFF80
000000
000000
BFFF80
BFFF80
ENDCHAR
STARTCHAR greater
ENCODING 62
SWIDTH 600 0
DWIDTH 11 0
BBX 8 10 1 1
BITMAP
6000
7D00
1FD0
02F8
007E
007E
02F8
1FD0
7D00
6000
ENDCHAR
STARTCHAR question
ENCODING 63
SWIDTH 600 0
DWIDTH 11 0
BBX 7 12 2 0
BITMAP
2FD0
FFF8
60BC
00B8
02F0
0B80
0F40
0000
0B40
2FC0
2FC0
0B40
ENDCHAR
STARTCHAR at
ENCODING 64
SWIDTH 600 0
DWIDTH 11 0
BBX 10 15 0 -3
BITMAP
01BE00
0BFFC0
1F42D0
2D00E0
3C01F0
782FF0
74BEF0
74F0F0
74F2F0
78FFF0
3C7DB0
2D0000
1F8140
07FFC0
01BE40
ENDCHAR
STARTCHAR A
ENCODING 65
SWIDTH 600 0
DWIDTH 11 0
BBX 11 12 0 0
BITMAP
01FC00
02FD00
03EE00
07DF00
0B8F40
0F4B80
1F4BC0
1FFFD0
2FFFE0
3D02F0
7D02F4
BC01F4
ENDCHAR
STARTCHAR B
ENCODING 66
SWIDTH 600 0
DWIDTH 11 0
BBX 9 12 1 0
BITMAP
BFF900
BFFF00
BC1F80
BC0F80
BC1F40
BFFD00
BFFF40
BC0BC0
BC0BC0
BC1FC0
BFFF40
BFF900
ENDCHAR
STARTCHAR C
ENCODING 67
SWIDTH 600 0
DWIDTH 11 0
BBX 9 12 1 0
BITMAP
02FE00
1FFF80
3F4600
BD0000
FC0000
F80000
F80000
FC0000
BD0000
3F4240
1FFFC0
06FE00
ENDCHAR
STARTCHAR D
ENCODING 68
SWIDTH 600 0
DWIDTH 11 0
BBX 9 12 1 0
BITMAP
BFE400
BFFE00
BC6F40
BC0F80
BC0BC0
BC0BC0
BC0BC0
BC0BC0
BC0F80
BC6F40
BFFE00
BFE400
ENDCHAR
STARTCHAR E
ENCODING 69
SWIDTH 600 0
DWIDTH 11 0
BBX 9 12 1 0
BITMAP
7FFF40
7FFF40
7D0000
7D0000
7D0000
7FFE00
7FFE00
7D0000
7D0000
7D0000
7FFF80
7FFF80
ENDCHAR
STARTCHAR F
ENCODING 70
SWIDTH 600 0
DWIDTH 11 0
BBX 8 12 2 0
BITMAP
FFFE
FFFE
F800
F800
F800
FFFC
FFFC
F800
F800
F800
F800
F800
ENDCHAR
STARTCHAR G
ENCODING 71
SWIDTH 600 0
DWIDTH 11 0
BBX 10 12 0 0
BITMAP
01BE40
07FFD0
1F8140
2F0000
3E0000
3E1FF0
7E1FF0
3E02F0
2F02F0
1F82F0
0BFFE0
01BE40
ENDCHAR
STARTCHAR H
ENCODING 72
SWIDTH 600 0
DWIDTH 11 0
BBX 9 12 1 0
BITMAP
F80F80
F80F80
F80F80
F80F80
F80F80
FFFF80
FFFF80
F80F80
F80F80
F80F80
F80F80
F80F80
ENDCHAR
STARTCHAR I
ENCODING 73
SWIDTH 600 0
DWIDTH 11 0
BBX 9 12 1 0
BITMAP
BFFF40
BFFF40
03E000
03E000
03E000
03E000
03E000
03E000
03E000
03E000
BFFF40
BFFF40
ENDCHAR
STARTCHAR J
ENCODING 74
SWIDTH 600 0
DWIDTH 11 0
BBX 9 12 1 0
BITMAP
3FFF40
3FFF40
001F40
001F40
001F40
001F40
001F40
001F40
001F40
742F00
BFFD00
1BE400
ENDCHAR
STARTCHAR K
ENCODING 75
SWIDTH 600 0
DWIDTH 11 0
BBX 10 12 1 0
BITMAP
BC0FC0
BC2F40
BC7E00
BCF800
BEF000
BFF400
BFF800
BE7D00
BC3E00
BC1F40
BC0FC0
BC07D0
ENDCHAR
STARTCHAR L
ENCODING 76
SWIDTH 600 0
DWIDTH 11 0
BBX 8 12 2 0
BITMAP
F800
F800
F800
F800
F800
F800
F800
F800
F800
F800
FFFE
FFFE
ENDCHAR
STARTCHAR M
ENCODING 77
SWIDTH 600 0
DWIDTH 11 0
BBX 9 12 1 0
BITMAP
FC0F80
FD1F80
FD2F80
FE3B80
FB7B80
F7B780
F7E780
F6D780
F58780
F40780
F40780
F40780
ENDCHAR
STARTCHAR N
ENCODING 78
SWIDTH 600 0
DWIDTH 11 0
BBX 9 12 1 0
BITMAP
BC0F80
BE0F80
BF0F80
BF4F80
BB8F80
BADF80
B9EB80
B8FB80
B8BF80
B83F80
B82F80
B81F80
ENDCHAR
STARTCHAR O
ENCODING 79
SWIDTH 600 0
DWIDTH 11 0
BBX 10 12 0 0
BITMAP
02FD00
0FFF80
2F4BD0
3E03E0
7E02F0
7D02F0
7D02F0
7E02F0
3E03E0
2F4BD0
0FFF80
02FD00
ENDCHAR
STARTCHAR P
ENCODING 80
SWIDTH 600 0
DWIDTH 11 0
BBX 9 12 1 0
BITMAP
BFF900
BFFF40
BC1FC0
BC0BC0
BC0BC0
BC1F80
BFFF40
BFF800
BC0000
BC0000
BC0000
BC0000
ENDCHAR
STARTCHAR Q
ENCODING 81
SWIDTH 600 0
DWIDTH 11 0
BBX 11 15 0 -3
BITMAP
02FD00
0FFF80
2F4BD0
3E03E0
7E02F0
7D02F0
7D02F0
7E02F0
3E03E0
2F4BD0
0FFF80
02FE00
00BE00
002FF4
0006F4
ENDCHAR
STARTCHAR R
ENCODING 82
SWIDTH 600 0
DWIDTH 11 0
BBX 10 12 1 0
BITMAP
BFF900
BFFF40
BC1F80
BC0BC0
BC0BC0
BC1F80
BFFF40
BFFD00
BC7D00
BC3F00
BC1F80
BC0BD0
ENDCHAR
STARTCHAR S
ENCODING 83
SWIDTH 600 0
DWIDTH 11 0
BBX 9 12 1 0
BITMAP
0BF900
2FFF40
7D0A00
BD0000
7F8000
2FF800
07FF40
006F80
000FC0
781F80
BFFF40
1BF800
ENDCHAR
STARTCHAR T
ENCODING 84
SWIDTH 600 0
DWIDTH 11 0
BBX 11 12 0 0
BITMAP
7FFFF4
7FFFF4
00F800
00F800
00F800
00F800
00F800
00F800
00F800
00F800
00F800
00F800
ENDCHAR
STARTCHAR U
ENCODING 85
SWIDTH 600 0
DWIDTH 11 0
BBX 9 12 1 0
BITMAP
F80F80
F80F80
F80F80
F80F80
F80F80
F80F80
F80F80
B80F80
BC0F80
7D1F40
3FFE00
0BF800
ENDCHAR
STARTCHAR V
ENCODING 86
SWIDTH 600 0
DWIDTH 11 0
BBX 11 12 0 0
BITMAP
BD01F4
7D02F0
3E02E0
2F03E0
1F47D0
0F8BC0
0B8F80
0BDF40
07EF00
03FE00
02FD00
01FC00
ENDCHAR
STARTCHAR W
ENCODING 87
SWIDTH 600 0
DWIDTH 11 0
BBX 11 12 0 0
BITMAP
FC00F8
BC00F8
BC00F4
7C74F4
7CB8F4
7CFCF0
3DEDF0
3EEEE0
2EDEE0
2FCFE0
2F8FD0
1F4BD0
ENDCHAR
STARTCHAR X
ENCODING 88
SWIDTH 600 0
DWIDTH 11 0
BBX 11 12 0 0
BITMAP
7E02F0
2F47D0
0F8BC0
0BDF40
03FF00
01FD00
02FD00
07FF00
0BDF40
1F4BC0
2F07E0
7D02F4
ENDCHAR
STARTCHAR Y
ENCODING 89
SWIDTH 600 0
DWIDTH 11 0
BBX 11 12 0 0
BITMAP
7D01F4
3E03E0
2F07D0
0F8BC0
0BCF40
03EF00
02FD00
00FC00
00F800
00F800
00F800
00F800
ENDCHAR
STARTCHAR Z
ENCODING 90
SWIDTH 600 0
DWIDTH 11 0
BBX 9 12 1 0
BITMAP
7FFF80
7FFF80
002F00
007D00
00F800
02F400
07E000
0FC000
2F4000
7E0000
FFFFC0
FFFFC0
ENDCHAR
STARTCHAR bracketleft
ENCODING 91
SWIDTH 600 0
DWIDTH 11 0
BBX 6 16 3 -3
BITMAP
7FF0
7FF0
7800
7800
7800
7800
7800
7800
7800
7800
7800
7800
7800
7800
7FF0
7FF0
ENDCHAR
STARTCHAR backslash
ENCODING 92
SWIDTH 600 0
DWIDTH 11 0
BBX 9 16 1 -3
BITMAP
780000
3C0000
2D0000
1F0000
0F4000
0B8000
07C000
03D000
02E000
00F000
00B400
007800
003D00
002E00
001F00
000F40
ENDCHAR
STARTCHAR bracketright
ENCODING 93
SWIDTH 600 0
DWIDTH 11 0
BBX 6 16 2 -3
BITMAP
FFD0
FFD0
02D0
02D0
02D0
02D0
02D0
02D0
02D0
02D0
02D0
02D0
02D0
02D0
FFD0
FFD0
ENDCHAR
STARTCHAR asciicircum
ENCODING 94
SWIDTH 600 0
DWIDTH 11 0
BBX 8 7 1 5
BITMAP
03E0
07F0
0BB4
0F7C
1E2D
3D1E
7C0F
ENDCHAR
STARTCHAR underscore
ENCODING 95
SWIDTH 600 0
DWIDTH 11 0
BBX 9 2 1 -3
BITMAP
FFFF80
FFFF80
ENDCHAR
STARTCHAR grave
ENCODING 96
SWIDTH 600 0
DWIDTH 11 0
BBX 5 5 2 10
BITMAP
1400
7D00
7F00
1F80
0200
ENDCHAR
STARTCHAR a
ENCODING 97
SWIDTH 600 0
DWIDTH 11 0
BBX 9 9 1 0
BITMAP
1BF800
7FFF00
241F40
06FF80
7FFF80
BD0F80
F81F80
BFFF80
2F9B80
ENDCHAR
STARTCHAR b
ENCODING 98
SWIDTH 600 0
DWIDTH 11 0
BBX 9 13 1 0
BITMAP
BC0000
BC0000
BC0000
BC0000
BDF900
BFFF00
BD1F80
BC0FC0
BC0BC0
BC0F80
BD1F80
BFFF00
B5F800
ENDCHAR
STARTCHAR c
ENCODING 99
SWIDTH 600 0
DWIDTH 11 0
BBX 9 9 1 0
BITMAP
06FE00
2FFF40
7E4500
BC0000
BC0000
BC0000
7E4600
2FFF80
06FE00
ENDCHAR
STARTCHAR d
ENCODING 100
SWIDTH 600 0
DWIDTH 11 0
BBX 9 13 1 0
BITMAP
000F80
000F80
000F80
000F80
1BDF80
7FFF80
BD2F80
F80F80
F80F80
F80F80
BD2F80
7FFF80
1BDB80
ENDCHAR
STARTCHAR e
ENCODING 101
SWIDTH 600 0
DWIDTH 11 0
BBX 9 9 1 0
BITMAP
0BF800
2FFF00
BD0B80
FFFF80
FFFF80
F80000
BE0500
2FFF40
06F900
ENDCHAR
STARTCHAR f
ENCODING 102
SWIDTH 600 0
DWIDTH 11 0
BBX 10 13 1 0
BITMAP
006F90
01FFD0
03F040
03E000
7FFF80
BFFF80
07D000
07D000
07D000
07D000
07D000
07D000
07D000
ENDCHAR
STARTCHAR g
ENCODING 103
SWIDTH 600 0
DWIDTH 11 0
BBX 10 13 1 -4
BITMAP
1BFFD0
3FFFD0
BD2E00
BC2E00
7EBE00
2FF800
794000
BFFE40
3FFFC0
7407D0
F80BC0
FFFF40
2FF900
ENDCHAR
STARTCHAR h
ENCODING 104
SWIDTH 600 0
DWIDTH 11 0
BBX 9 13 1 0
BITMAP
BC0000
BC0000
BC0000
BC0000
BDBD00
BFFF40
BE1F80
BC0F80
BC0F80
BC0F80
BC0F80
BC0F80
BC0F80
ENDCHAR
STARTCHAR i
ENCODING 105
SWIDTH 600 0
DWIDTH 11 0
BBX 7 13 1 0
BITMAP
00F4
01FC
01F4
0000
BFF8
BFF8
00F8
00F8
00F8
00F8
00F8
00F8
00F8
ENDCHAR
STARTCHAR j
ENCODING 106
SWIDTH 600 0
DWIDTH 11 0
BBX 7 17 1 -4
BITMAP
00F4
01FC
01F4
0000
BFF8
BFF8
00F8
00F8
00F8
00F8
00F8
00F8
00F8
00F8
41F4
FFF0
BF80
ENDCHAR
STARTCHAR k
ENCODING 107
SWIDTH 600 0
DWIDTH 11 0
BBX 10 13 1 0
BITMAP
BC0000
BC0000
BC0000
BC0000
BC1F80
BC3E00
BCF800
BFF000
BFF800
BFBD00
BD3E00
BC1F80
BC0BD0
ENDCHAR
STARTCHAR l
ENCODING 108
SWIDTH 600 0
DWIDTH 11 0
BBX 9 13 1 0
BITMAP
FFD000
FFD000
07D000
07D000
07D000
07D000
07D000
07D000
07D000
07D000
03E000
02FF40
00BF40
ENDCHAR
STARTCHAR m
ENCODING 109
SWIDTH 600 0
DWIDTH 11 0
BBX 11 9 0 0
BITMAP
79E2E0
7FFFF0
7DBDF4
7DB9F4
7CB9F4
7CB9F4
7CB9F4
7CB9F4
7CB9F4
ENDCHAR
STARTCHAR n
ENCODING 110
SWIDTH 600 0
DWIDTH 11 0
BBX 9 9 1 0
BITMAP
B9BD00
BFFF40
BE1F80
BC0F80
BC0F80
BC0F80
BC0F80
BC0F80
BC0F80
ENDCHAR
STARTCHAR o
ENCODING 111
SWIDTH 600 0
DWIDTH 11 0
BBX 9 9 1 0
BITMAP
0BF400
3FFE00
BD1F80
F80FC0
F80BC0
F80FC0
BD1F80
3FFE00
0BF400
ENDCHAR
STARTCHAR p
ENCODING 112
SWIDTH 600 0
DWIDTH 11 0
BBX 9 13 1 -4
BITMAP
B9F900
BFFF00
BE1F80
BC0FC0
BC0BC0
BC0F80
BD1F80
BFFF00
BDF800
BC0000
BC0000
BC0000
BC0000
ENDCHAR
STARTCHAR q
ENCODING 113
SWIDTH 600 0
DWIDTH 11 0
BBX 9 13 1 -4
BITMAP
1BDB80
7FFF80
BD2F80
F80F80
F80F80
F80F80
BD2F80
7FFF80
1BDF80
000F80
000F80
000F80
000F80
ENDCHAR
STARTCHAR r
ENCODING 114
SWIDTH 600 0
DWIDTH 11 0
BBX 8 9 2 0
BITMAP
F4BE
FBFE
FF40
FC00
F800
F800
F800
F800
F800
ENDCHAR
STARTCHAR s
ENCODING 115
SWIDTH 600 0
DWIDTH 11 0
BBX 9 9 1 0
BITMAP
0BF900
3FFF40
7D0500
7F9400
1FFE00
016F80
640F80
BFFF40
1BF900
ENDCHAR
STARTCHAR t
ENCODING 116
SWIDTH 600 0
DWIDTH 11 0
BBX 9 12 1 0
BITMAP
078000
0B8000
0B8000
FFFF80
FFFF80
0F8000
0F8000
0F8000
0B8000
0BD000
07FF80
01BF80
ENDCHAR
STARTCHAR u
ENCODING 117
SWIDTH 600 0
DWIDTH 11 0
BBX 9 9 1 0
BITMAP
F81F40
F81F40
F81F40
F81F40
F81F40
F81F40
BC2F40
7FFF40
2F8B40
ENDCHAR
STARTCHAR v
ENCODING 118
SWIDTH 600 0
DWIDTH 11 0
BBX 10 9 0 0
BITMAP
7D01F0
3E02E0
2F03D0
0F47C0
0B8B80
07CF40
03EF00
02FE00
01FC00
ENDCHAR
STARTCHAR w
ENCODING 119
SWIDTH 600 0
DWIDTH 11 0
BBX 11 9 0 0
BITMAP
F800B8
B864F8
BCB8F4
7CFCF4
7DEDF0
3EDEF0
3FDFE0
2FCFE0
2F8FD0
ENDCHAR
STARTCHAR x
ENCODING 120
SWIDTH 600 0
DWIDTH 11 0
BBX 9 9 1 0
BITMAP
BC0F80
3E2F00
1F7D00
0BF800
07F400
0FF800
2F7D00
7D2F00
F80F80
ENDCHAR
STARTCHAR y
ENCODING 121
SWIDTH 600 0
DWIDTH 11 0
BBX 10 13 0 -4
BITMAP
7D01F0
2E02E0
1F03D0
0F47C0
07CB80
03DF40
02EF00
00FD00
00BC00
00B800
01F400
1FE000
2F8000
ENDCHAR
STARTCHAR z
ENCODING 122
SWIDTH 600 0
DWIDTH 11 0
BBX 9 9 1 0
BITMAP
7FFF80
7FFF40
007E00
01F800
07F000
0FD000
2F4000
BFFF80
BFFF80
ENDCHAR
STARTCHAR braceleft
ENCODING 123
SWIDTH 600 0
DWIDTH 11 0
BBX 7 16 2 -3
BITMAP
02FC
0BFC
0B80
0B40
0B40
0B40
1F40
FE00
FE00
1F40
0B40
0B40
0B40
0B80
0BFC
02FC
ENDCHAR
STARTCHAR bar
ENCODING 124
SWIDTH 600 0
DWIDTH 11 0
BBX 3 18 4 -5
BITMAP
B8
B8
B8
B8
B8
B8
B8
B8
B8
B8
B8
B8
B8
B8
B8
B8
B8
B8
ENDCHAR
STARTCHAR braceright
ENCODING 125
SWIDTH 600 0
DWIDTH 11 0
BBX 7 16 2 -3
BITMAP
FE00
FF40
0B80
0B80
0B40
0B40
0B90
02FC
02FC
0B90
0B40
0B40
0B80
0B80
FF40
FE00
ENDCHAR
STARTCHAR asciitilde
ENCODING 126
SWIDTH 600 0
DWIDTH 11 0
BBX 9 4 1 4
BITMAP
1E0240
7FD780
B5FF00
A07D00
ENDCHAR
STARTCHAR uni00A0
ENCODING 160
SWIDTH 600 0
DWIDTH 11 0
BBX 1 1 0 0
BITMAP
00
ENDCHAR
STARTCHAR exclamdown
ENCODING 161
SWIDTH 600 0
DWIDTH 11 0
BBX 4 13 3 -4
BITMAP
2E
7F
7F
2E
00
2D
2D
2D
2D
2E
2E
3E
3E
ENDCHAR
STARTCHAR cent
ENCODING 162
SWIDTH 600 0
DWIDTH 11 0
BBX 8 13 1 -1
BITMAP
0070
0070
02FE
1FFE
2FB4
3D70
7D70
3D70
3FB5
1FFF
06FE
0070
0070
ENDCHAR
STARTCHAR sterling
ENCODING 163
SWIDTH 600 0
DWIDTH 11 0
BBX 9 11 1 0
BITMAP
02FE00
0FFF80
2F4600
1F0000
BFFD00
BFFD00
0B8000
0F4000
1F0000
BFFFC0
BFFFC0
ENDCHAR
STARTCHAR currency
ENCODING 164
SWIDTH 600 0
DWIDTH 11 0
BBX 9 10 1 1
BITMAP
A00240
FBEB80
7FFF00
7D2F00
7C0F40
7C0F40
7D2F00
7FFF00
FBEB80
A00280
ENDCHAR
STARTCHAR yen
ENCODING 165
SWIDTH 600 0
DWIDTH 11 0
BBX 9 11 1 0
BITMAP
F80BC0
BC1F40
3E2E00
1F7C00
1BF900
FFFF80
ABFA80
17E500
FFFF80
ABFA80
03E000
ENDCHAR
STARTCHAR brokenbar
ENCODING 166
SWIDTH 600 0
DWIDTH 11 0
BBX 3 18 4 -5
BITMAP
B8
B8
B8
B8
B8
B8
B8
B8
00
00
B8
B8
B8
B8
B8
B8
B8
B8
ENDCHAR
STARTCHAR section
ENCODING 167
SWIDTH 600 0
DWIDTH 11 0
BBX 9 14 1 -2
BITMAP
0BF800
1FFD00
2E1800
2F4000
2FF800
7DFE00
B81F40
BD0B40
2FEF00
07FD00
00BD00
183D00
7FFC00
1BE400
ENDCHAR
STARTCHAR dieresis
ENCODING 168
SWIDTH 600 0
DWIDTH 11 0
BBX 7 3 2 10
BITMAP
B4B4
F8F8
B4B4
ENDCHAR
STARTCHAR copyright
ENCODING 169
SWIDTH 600 0
DWIDTH 11 0
BBX 11 11 0 0
BITMAP
02FE00
1FFFC0
3D06E0
746470
A3FD34
A7EC24
A3FD34
746470
3D06E0
1FFFC0
02FE00
ENDCHAR
STARTCHAR ordfeminine
ENCODING 170
SWIDTH 600 0
DWIDTH 11 0
BBX 7 7 2 6
BITMAP
1BD0
3FF0
10B4
1BF4
7FF4
7FF4
2E74
ENDCHAR
STARTCHAR guillemotleft
ENCODING 171
SWIDTH 600 0
DWIDTH 11 0
BBX 10 8 0 1
BITMAP
024090
0B87D0
3E1F80
7C1E00
7C1E00
3E1F80
0B87D0
024090
ENDCHAR
STARTCHAR logicalnot
ENCODING 172
SWIDTH 600 0
DWIDTH 11 0
BBX 9 6 1 1
BITMAP
BFFF80
BFFF80
000780
000780
000780
000140
ENDCHAR
STARTCHAR uni00AD
ENCODING 173
SWIDTH 600 0
DWIDTH 11 0
BBX 9 2 1 5
BITMAP
BFFF80
BFFF80
ENDCHAR
STARTCHAR registered
ENCODING 174
SWIDTH 600 0
DWIDTH 11 0
BBX 7 7 2 6
BITMAP
1F90
6474
CF98
CDCC
CF98
6474
1F90
ENDCHAR
STARTCHAR macron
ENCODING 175
SWIDTH 600 0
DWIDTH 11 0
BBX 6 2 2 10
BITMAP
7FF0
7FF0
ENDCHAR
STARTCHAR degree
ENCODING 176
SWIDTH 600 0
DWIDTH 11 0
BBX 5 6 3 7
BITMAP
2E00
BF80
D2C0
D2C0
BF80
2E00
ENDCHAR
STARTCHAR plusminus
ENCODING 177
SWIDTH 600 0
DWIDTH 11 0
BBX 9 10 1 0
BITMAP
02D000
02D000
02D000
BFFF80
BFFF80
02D000
02D000
000000
BFFF80
BFFF80
ENDCHAR
STARTCHAR two.sups
ENCODING 178
SWIDTH 600 0
DWIDTH 11 0
BBX 7 8 2 6
BITMAP
1F80
7FE0
21F0
00E0
02D0
0B40
7FF4
7FF4
ENDCHAR
STARTCHAR three.sups
ENCODING 179
SWIDTH 600 0
DWIDTH 11 0
BBX 7 8 2 6
BITMAP
1F90
7FE0
15F0
0BD0
0BE0
20B4
7FF0
1F90
ENDCHAR
STARTCHAR acute
ENCODING 180
SWIDTH 600 0
DWIDTH 11 0
BBX 5 5 4 10
BITMAP
0900
1F40
7F00
B800
6000
ENDCHAR
STARTCHAR uni00B5
ENCODING 181
SWIDTH 600 0
DWIDTH 11 0
BBX 10 13 1 -4
BITMAP
F81F40
F81F40
F81F40
F81F40
F81F40
F81F40
FC3F40
FFFFD0
FFD7D0
F80000
F80000
F80000
F80000
ENDCHAR
STARTCHAR paragraph
ENCODING 182
SWIDTH 600 0
DWIDTH 11 0
BBX 9 13 1 -2
BITMAP
1BCF40
7FCF40
FFCF40
FFCF40
FFCF40
FFCF40
7FCF40
1FCF40
000F40
000F40
000F40
000F40
000F40
ENDCHAR
STARTCHAR periodcentered
ENCODING 183
SWIDTH 600 0
DWIDTH 11 0
BBX 5 4 3 4
BITMAP
2E00
BF40
BF40
2E00
ENDCHAR
STARTCHAR cedilla
ENCODING 184
SWIDTH 600 0
DWIDTH 11 0
BBX 4 5 3 -5
BITMAP
1C
3E
1F
1F
B8
ENDCHAR
STARTCHAR one.sups
ENCODING 185
SWIDTH 600 0
DWIDTH 11 0
BBX 6 8 3 6
BITMAP
5F00
BF00
0B00
0B00
0B00
0B00
FFF0
FFF0
ENDCHAR
STARTCHAR ordmasculine
ENCODING 186
SWIDTH 600 0
DWIDTH 11 0
BBX 7 7 2 6
BITMAP
1B80
3FE0
78B4
B4B4
78B4
3FE0
1B80
ENDCHAR
STARTCHAR guillemotright
ENCODING 187
SWIDTH 600 0
DWIDTH 11 0
BBX 9 8 1 1
BITMAP
602800
B82E00
2F0F80
0F47C0
0F47C0
2F0F80
B82E00
602800
ENDCHAR
STARTCHAR onequarter
ENCODING 188
SWIDTH 600 0
DWIDTH 11 0
BBX 11 12 0 0
BITMAP
1B4000
3F4060
0B40F4
0B43D0
0B4B40
0B4000
000600
010E90
075DE0
1E2FF8
782FF8
2000E0
ENDCHAR
STARTCHAR onehalf
ENCODING 189
SWIDTH 600 0
DWIDTH 11 0
BBX 11 12 0 0
BITMAP
1B4000
3F4060
0B40F4
0B43D0
0B4B40
0B4000
000BD0
011FF0
0744F0
1E02D0
781FF4
201FF4
ENDCHAR
STARTCHAR threequarters
ENCODING 190
SWIDTH 600 0
DWIDTH 11 0
BBX 11 12 0 0
BITMAP
2F4000
7FC060
13C0F4
1F82D0
7FC740
2F8100
000600
010E90
075DE0
1E2FF8
7C2FF8
2400E0
ENDCHAR
STARTCHAR questiondown
ENCODING 191
SWIDTH 600 0
DWIDTH 11 0
BBX 7 13 2 -4
BITMAP
0780
0FD0
0FD0
0780
0000
07C0
0F80
2F00
BD00
F400
F860
BFF8
2FE0
ENDCHAR
STARTCHAR Agrave
ENCODING 192
SWIDTH 600 0
DWIDTH 11 0
BBX 11 16 0 0
BITMAP
018000
03E000
01FC00
002400
01FC00
02FD00
03EE00
07DF00
0B8F40
0F4B80
1F4BC0
1FFFD0
2FFFE0
3D02F0
7D02F4
BC01F4
ENDCHAR
STARTCHAR Aacute
ENCODING 193
SWIDTH 600 0
DWIDTH 11 0
BBX 11 16 0 0
BITMAP
000800
007E00
01F900
009000
01FC00
02FD00
03EE00
07DF00
0B8F40
0F4B80
1F4BC0
1FFFD0
2FFFE0
3D02F0
7D02F4
BC01F4
ENDCHAR
STARTCHAR Acircumflex
ENCODING 194
SWIDTH 600 0
DWIDTH 11 0
BBX 11 15 0 0
BITMAP
01FD00
07EF00
060600
01FC00
02FD00
03EE00
07DF00
0B8F40
0F4B80
1F4BC0
1FFFD0
2FFFE0
3D02F0
7D02F4
BC01F4
ENDCHAR
STARTCHAR Atilde
ENCODING 195
SWIDTH 600 0
DWIDTH 11 0
BBX 11 15 0 0
BITMAP
07E280
0FFF80
0A2E00
01FC00
02FD00
03EE00
07DF00
0B8F40
0F4B80
1F4BC0
1FFFD0
2FFFE0
3D02F0
7D02F4
BC01F4
ENDCHAR
STARTCHAR Adieresis
ENCODING 196
SWIDTH 600 0
DWIDTH 11 0
BBX 11 15 0 0
BITMAP
0B4B40
0F8F80
0B4B40
01FC00
02FD00
03EE00
07DF00
0B8F40
0F4B80
1F4BC0
1FFFD0
2FFFE0
3D02F0
7D02F4
BC01F4
ENDCHAR
STARTCHAR Aring
ENCODING 197
SWIDTH 600 0
DWIDTH 11 0
BBX 11 17 0 0
BITMAP
00B800
028D00
028D00
00B800
000000
01FC00
02FD00
03EE00
07DF00
0B8F40
0F4B80
1F4BC0
1FFFD0
2FFFE0
3D02F0
7D02F4
BC01F4
ENDCHAR
STARTCHAR AE
ENCODING 198
SWIDTH 600 0
DWIDTH 11 0
BBX 11 12 0 0
BITMAP
01FFF8
02FFF8
03EF00
07EF00
0BDF00
0F9FF0
1F5FF0
2FFF00
3FFF00
7D1F00
BC1FF8
F81FF8
ENDCHAR
STARTCHAR Ccedilla
ENCODING 199
SWIDTH 600 0
DWIDTH 11 0
BBX 9 17 1 -5
BITMAP
02FE00
1FFF80
3F4600
BD0000
FC0000
F80000
F80000
FC0000
BD0000
3F4240
1FFFC0
06FE00
00A000
00F400
007C00
007800
02E000
ENDCHAR
STARTCHAR Egrave
ENCODING 200
SWIDTH 600 0
DWIDTH 11 0
BBX 9 16 1 0
BITMAP
024000
0BD000
02F400
006000
7FFF40
7FFF40
7D0000
7D0000
7D0000
7FFE00
7FFE00
7D0000
7D0000
7D0000
7FFF80
7FFF80
ENDCHAR
STARTCHAR Eacute
ENCODING 201
SWIDTH 600 0
DWIDTH 11 0
BBX 9 16 1 0
BITMAP
002400
00BD00
02F400
018000
7FFF40
7FFF40
7D0000
7D0000
7D0000
7FFE00
7FFE00
7D0000
7D0000
7D0000
7FFF80
7FFF80
ENDCHAR
STARTCHAR Ecircumflex
ENCODING 202
SWIDTH 600 0
DWIDTH 11 0
BBX 9 15 1 0
BITMAP
03F800
0BBD00
090900
7FFF40
7FFF40
7D0000
7D0000
7D0000
7FFE00
7FFE00
7D0000
7D0000
7D0000
7FFF80
7FFF80
ENDCHAR
STARTCHAR Edieresis
ENCODING 203
SWIDTH 600 0
DWIDTH 11 0
BBX 9 15 1 0
BITMAP
1E1E00
1F1F00
1E1E00
7FFF40
7FFF40
7D0000
7D0000
7D0000
7FFE00
7FFE00
7D0000
7D0000
7D0000
7FFF80
7FFF80
ENDCHAR
STARTCHAR Igrave
ENCODING 204
SWIDTH 600 0
DWIDTH 11 0
BBX 9 16 1 0
BITMAP
060000
0F8000
07F000
009000
BFFF40
BFFF40
03E000
03E000
03E000
03E000
03E000
03E000
03E000
03E000
BFFF40
BFFF40
ENDCHAR
STARTCHAR Iacute
ENCODING 205
SWIDTH 600 0
DWIDTH 11 0
BBX 9 16 1 0
BITMAP
002000
01F800
07E400
024000
BFFF40
BFFF40
03E000
03E000
03E000
03E000
03E000
03E000
03E000
03E000
BFFF40
BFFF40
ENDCHAR
STARTCHAR Icircumflex
ENCODING 206
SWIDTH 600 0
DWIDTH 11 0
BBX 9 15 1 0
BITMAP
07F400
1FBC00
181800
BFFF40
BFFF40
03E000
03E000
03E000
03E000
03E000
03E000
03E000
03E000
BFFF40
BFFF40
ENDCHAR
STARTCHAR Idieresis
ENCODING 207
SWIDTH 600 0
DWIDTH 11 0
BBX 9 15 1 0
BITMAP
2D2D00
3E3E00
2D2D00
BFFF40
BFFF40
03E000
03E000
03E000
03E000
03E000
03E000
03E000
03E000
BFFF40
BFFF40
ENDCHAR
STARTCHAR Eth
ENCODING 208
SWIDTH 600 0
DWIDTH 11 0
BBX 10 12 0 0
BITMAP
2FF900
2FFF80
2F1BD0
2F03E0
2F02F0
FFF2F0
FFF2F0
2F02F0
2F03E0
2F1BD0
2FFF80
2FF900
ENDCHAR
STARTCHAR Ntilde
ENCODING 209
SWIDTH 600 0
DWIDTH 11 0
BBX 9 15 1 0
BITMAP
0B8A00
2FFF00
28BD00
BC0F80
BE0F80
BF0F80
BF4F80
BB8F80
BADF80
B9EB80
B8FB80
B8BF80
B83F80
B82F80
B81F80
ENDCHAR
STARTCHAR Ograve
ENCODING 210
SWIDTH 600 0
DWIDTH 11 0
BBX 10 16 0 0
BITMAP
018000
03E000
01FC00
002400
02FD00
0FFF80
2F4BD0
3E03E0
7E02F0
7D02F0
7D02F0
7E02F0
3E03E0
2F4BD0
0FFF80
02FD00
ENDCHAR
STARTCHAR Oacute
ENCODING 211
SWIDTH 600 0
DWIDTH 11 0
BBX 10 16 0 0
BITMAP
000800
007E00
01F900
009000
02FD00
0FFF80
2F4BD0
3E03E0
7E02F0
7D02F0
7D02F0
7E02F0
3E03E0
2F4BD0
0FFF80
02FD00
ENDCHAR
STARTCHAR Ocircumflex
ENCODING 212
SWIDTH 600 0
DWIDTH 11 0
BBX 10 15 0 0
BITMAP
01FD00
07EF00
060600
02FD00
0FFF80
2F4BD0
3E03E0
7E02F0
7D02F0
7D02F0
7E02F0
3E03E0
2F4BD0
0FFF80
02FD00
ENDCHAR
STARTCHAR Otilde
ENCODING 213
SWIDTH 600 0
DWIDTH 11 0
BBX 10 15 0 0
BITMAP
07E280
0FFF80
0A2E00
02FD00
0FFF80
2F4BD0
3E03E0
7E02F0
7D02F0
7D02F0
7E02F0
3E03E0
2F4BD0
0FFF80
02FD00
ENDCHAR
STARTCHAR Odieresis
ENCODING 214
SWIDTH 600 0
DWIDTH 11 0
BBX 10 15 0 0
BITMAP
0B4B40
0F8F80
0B4B40
02FD00
0FFF80
2F4BD0
3E03E0
7E02F0
7D02F0
7D02F0
7E02F0
3E03E0
2F4BD0
0FFF80
02FD00
ENDCHAR
STARTCHAR multiply
ENCODING 215
SWIDTH 600 0
DWIDTH 11 0
BBX 8 8 1 2
BITMAP
2409
7D1F
1FBD
07F4
07F4
1FBD
7D1F
2409
ENDCHAR
STARTCHAR Oslash
ENCODING 216
SWIDTH 600 0
DWIDTH 11 0
BBX 11 14 0 -1
BITMAP
000010
02FDB4
0FFFE0
2F4BD0
3E0FE0
7E2FF0
7D7AF0
7EF2F0
3FD2F0
3F83E0
2F8BD0
3FFF80
7AFD00
100000
ENDCHAR
STARTCHAR Ugrave
ENCODING 217
SWIDTH 600 0
DWIDTH 11 0
BBX 9 16 1 0
BITMAP
060000
0F8000
07F000
009000
F80F80
F80F80
F80F80
F80F80
F80F80
F80F80
F80F80
B80F80
BC0F80
7D1F40
3FFE00
0BF800
ENDCHAR
STARTCHAR Uacute
ENCODING 218
SWIDTH 600 0
DWIDTH 11 0
BBX 9 16 1 0
BITMAP
002000
01F800
07E400
024000
F80F80
F80F80
F80F80
F80F80
F80F80
F80F80
F80F80
B80F80
BC0F80
7D1F40
3FFE00
0BF800
ENDCHAR
STARTCHAR Ucircumflex
ENCODING 219
SWIDTH 600 0
DWIDTH 11 0
BBX 9 15 1 0
BITMAP
07F400
1FBC00
181800
F80F80
F80F80
F80F80
F80F80
F80F80
F80F80
F80F80
B80F80
BC0F80
7D1F40
3FFE00
0BF800
ENDCHAR
STARTCHAR Udieresis
ENCODING 220
SWIDTH 600 0
DWIDTH 11 0
BBX 9 15 1 0
BITMAP
2D2D00
3E3E00
2D2D00
F80F80
F80F80
F80F80
F80F80
F80F80
F80F80
F80F80
B80F80
BC0F80
7D1F40
3FFE00
0BF800
ENDCHAR
STARTCHAR Yacute
ENCODING 221
SWIDTH 600 0
DWIDTH 11 0
BBX 11 16 0 0
BITMAP
000800
007E00
01F900
009000
7D01F4
3E03E0
2F07D0
0F8BC0
0BCF40
03EF00
02FD00
00FC00
00F800
00F800
00F800
00F800
ENDCHAR
STARTCHAR Thorn
ENCODING 222
SWIDTH 600 0
DWIDTH 11 0
BBX 9 12 1 0
BITMAP
BC0000
BC0000
BFF900
BFFF40
BC1FC0
BC07C0
BC0BC0
BC1FC0
BFFF40
BFF900
BC0000
BC0000
ENDCHAR
STARTCHAR germandbls
ENCODING 223
SWIDTH 600 0
DWIDTH 11 0
BBX 10 13 1 0
BITMAP
1BE400
3FFC00
BD3D00
F83E00
F87D00
F8B800
F8F800
F8BE00
F82F80
F80BD0
F847D0
F8FFC0
F8BE00
ENDCHAR
STARTCHAR agrave
ENCODING 224
SWIDTH 600 0
DWIDTH 11 0
BBX 9 15 1 0
BITMAP
020000
0F8000
0BD000
02F000
009000
000000
1BF800
7FFF00
241F40
06FF80
7FFF80
BD0F80
F81F80
BFFF80
2F9B80
ENDCHAR
STARTCHAR aacute
ENCODING 225
SWIDTH 600 0
DWIDTH 11 0
BBX 9 15 1 0
BITMAP
001800
003E00
00BD00
01F400
009000
000000
1BF800
7FFF00
241F40
06FF80
7FFF80
BD0F80
F81F80
BFFF80
2F9B80
ENDCHAR
STARTCHAR acircumflex
ENCODING 226
SWIDTH 600 0
DWIDTH 11 0
BBX 9 13 1 0
BITMAP
03F800
0FBD00
190A00
000000
1BF800
7FFF00
241F40
06FF80
7FFF80
BD0F80
F81F80
BFFF80
2F9B80
ENDCHAR
STARTCHAR atilde
ENCODING 227
SWIDTH 600 0
DWIDTH 11 0
BBX 9 14 1 0
BITMAP
010000
0FDB00
1EFF00
187D00
000000
1BF800
7FFF00
241F40
06FF80
7FFF80
BD0F80
F81F80
BFFF80
2F9B80
ENDCHAR
STARTCHAR adieresis
ENCODING 228
SWIDTH 600 0
DWIDTH 11 0
BBX 9 13 1 0
BITMAP
1E1E00
2F2F00
1E1E00
000000
1BF800
7FFF00
241F40
06FF80
7FFF80
BD0F80
F81F80
BFFF80
2F9B80
ENDCHAR
STARTCHAR aring
ENCODING 229
SWIDTH 600 0
DWIDTH 11 0
BBX 9 14 1 0
BITMAP
02F400
0B6C00
076C00
02F400
000000
1BF800
7FFF00
241F40
06FF80
7FFF80
BD0F80
F81F80
BFFF80
2F9B80
ENDCHAR
STARTCHAR ae
ENCODING 230
SWIDTH 600 0
DWIDTH 11 0
BBX 11 9 0 0
BITMAP
2F8BD0
7FFFF0
10B8B4
0AFFF8
3FFFF8
BDB800
B8BD10
7FFFF0
2F4BE0
ENDCHAR
STARTCHAR ccedilla
ENCODING 231
SWIDTH 600 0
DWIDTH 11 0
BBX 9 14 1 -5
BITMAP
06FE00
2FFF40
7E4500
BC0000
BC0000
BC0000
7E4600
2FFF80
06FE00
00A000
01F400
007800
007800
02E000
ENDCHAR
STARTCHAR egrave
ENCODING 232
SWIDTH 600 0
DWIDTH 11 0
BBX 9 15 1 0
BITMAP
060000
1F4000
0BD000
02E000
009000
000000
0BF800
2FFF00
BD0B80
FFFF80
FFFF80
F80000
BE0500
2FFF40
06F900
ENDCHAR
STARTCHAR eacute
ENCODING 233
SWIDTH 600 0
DWIDTH 11 0
BBX 9 15 1 0
BITMAP
001400
007D00
00FD00
02F400
008000
000000
0BF800
2FFF00
BD0B80
FFFF80
FFFF80
F80000
BE0500
2FFF40
06F900
ENDCHAR
STARTCHAR ecircumflex
ENCODING 234
SWIDTH 600 0
DWIDTH 11 0
BBX 9 13 1 0
BITMAP
07F400
0FBD00
190900
000000
0BF800
2FFF00
BD0B80
FFFF80
FFFF80
F80000
BE0500
2FFF40
06F900
ENDCHAR
STARTCHAR edieresis
ENCODING 235
SWIDTH 600 0
DWIDTH 11 0
BBX 9 13 1 0
BITMAP
1E1E00
2F2F00
1E1E00
000000
0BF800
2FFF00
BD0B80
FFFF80
FFFF80
F80000
BE0500
2FFF40
06F900
ENDCHAR
STARTCHAR igrave
ENCODING 236
SWIDTH 600 0
DWIDTH 11 0
BBX 7 15 1 0
BITMAP
0240
0BC0
07E0
01F4
0060
0000
BFF8
BFF8
00F8
00F8
00F8
00F8
00F8
00F8
00F8
ENDCHAR
STARTCHAR iacute
ENCODING 237
SWIDTH 600 0
DWIDTH 11 0
BBX 8 15 1 0
BITMAP
0008
002F
007E
00F8
0060
0000
BFF8
BFF8
00F8
00F8
00F8
00F8
00F8
00F8
00F8
ENDCHAR
STARTCHAR icircumflex
ENCODING 238
SWIDTH 600 0
DWIDTH 11 0
BBX 9 13 1 0
BITMAP
02FC00
0BEF00
0A0640
000000
BFF800
BFF800
00F800
00F800
00F800
00F800
00F800
00F800
00F800
ENDCHAR
STARTCHAR idieresis
ENCODING 239
SWIDTH 600 0
DWIDTH 11 0
BBX 9 13 1 0
BITMAP
0B4B40
1F9F80
0B4B40
000000
BFF800
BFF800
00F800
00F800
00F800
00F800
00F800
00F800
00F800
ENDCHAR
STARTCHAR eth
ENCODING 240
SWIDTH 600 0
DWIDTH 11 0
BBX 9 13 1 0
BITMAP
0A0600
1FEE00
07F800
2EBD00
142F00
1BEF40
7FFF80
F91FC0
F40BC0
F40B80
BD1F40
7FFE00
0BF400
ENDCHAR
STARTCHAR ntilde
ENCODING 241
SWIDTH 600 0
DWIDTH 11 0
BBX 9 14 1 0
BITMAP
010000
0FDB00
2EFE00
287D00
000000
B9BD00
BFFF40
BE1F80
BC0F80
BC0F80
BC0F80
BC0F80
BC0F80
BC0F80
ENDCHAR
STARTCHAR ograve
ENCODING 242
SWIDTH 600 0
DWIDTH 11 0
BBX 9 15 1 0
BITMAP
050000
1F4000
1FC000
07E000
008000
000000
0BF400
3FFE00
BD1F80
F80FC0
F80BC0
F80FC0
BD1F80
3FFE00
0BF400
ENDCHAR
STARTCHAR oacute
ENCODING 243
SWIDTH 600 0
DWIDTH 11 0
BBX 9 15 1 0
BITMAP
002400
007D00
01FC00
02E000
018000
000000
0BF400
3FFE00
BD1F80
F80FC0
F80BC0
F80FC0
BD1F80
3FFE00
0BF400
ENDCHAR
STARTCHAR ocircumflex
ENCODING 244
SWIDTH 600 0
DWIDTH 11 0
BBX 9 13 1 0
BITMAP
07F400
1FBD00
181900
000000
0BF400
3FFE00
BD1F80
F80FC0
F80BC0
F80FC0
BD1F80
3FFE00
0BF400
ENDCHAR
STARTCHAR otilde
ENCODING 245
SWIDTH 600 0
DWIDTH 11 0
BBX 9 14 1 0
BITMAP
010000
1F8E00
3EFE00
28B800
000000
0BF400
3FFE00
BD1F80
F80FC0
F80BC0
F80FC0
BD1F80
3FFE00
0BF400
ENDCHAR
STARTCHAR odieresis
ENCODING 246
SWIDTH 600 0
DWIDTH 11 0
BBX 9 13 1 0
BITMAP
2D2D00
3E3E00
2D2D00
000000
0BF400
3FFE00
BD1F80
F80FC0
F80BC0
F80FC0
BD1F80
3FFE00
0BF400
ENDCHAR
STARTCHAR divide
ENCODING 247
SWIDTH 600 0
DWIDTH 11 0
BBX 9 10 1 1
BITMAP
02D000
03E000
02D000
000000
BFFF80
BFFF80
000000
02D000
03E000
02D000
ENDCHAR
STARTCHAR oslash
ENCODING 248
SWIDTH 600 0
DWIDTH 11 0
BBX 9 9 1 0
BITMAP
0BFB40
3FFF00
BD3F40
F8BFC0
F9DBC0
FF4FC0
BE1F80
7FFE00
ABF400
ENDCHAR
STARTCHAR ugrave
ENCODING 249
SWIDTH 600 0
DWIDTH 11 0
BBX 9 15 1 0
BITMAP
050000
1F4000
1FC000
07E000
008000
000000
F81F40
F81F40
F81F40
F81F40
F81F40
F81F40
BC2F40
7FFF40
2F8B40
ENDCHAR
STARTCHAR uacute
ENCODING 250
SWIDTH 600 0
DWIDTH 11 0
BBX 9 15 1 0
BITMAP
002400
007D00
01F800
03E000
018000
000000
F81F40
F81F40
F81F40
F81F40
F81F40
F81F40
BC2F40
7FFF40
2F8B40
ENDCHAR
STARTCHAR ucircumflex
ENCODING 251
SWIDTH 600 0
DWIDTH 11 0
BBX 9 13 1 0
BITMAP
07F400
1FBC00
281900
000000
F81F40
F81F40
F81F40
F81F40
F81F40
F81F40
BC2F40
7FFF40
2F8B40
ENDCHAR
STARTCHAR udieresis
ENCODING 252
SWIDTH 600 0
DWIDTH 11 0
BBX 9 13 1 0
BITMAP
2D2D00
3E3E00
2D2D00
000000
F81F40
F81F40
F81F40
F81F40
F81F40
F81F40
BC2F40
7FFF40
2F8B40
ENDCHAR
STARTCHAR yacute
ENCODING 253
SWIDTH 600 0
DWIDTH 11 0
BBX 10 19 0 -4
BITMAP
000500
001F40
003F40
00BC00
002000
000000
7D01F0
2E02E0
1F03D0
0F47C0
07CB80
03DF40
02EF00
00FD00
00BC00
00B800
01F400
1FE000
2F8000
ENDCHAR
STARTCHAR thorn
ENCODING 254
SWIDTH 600 0
DWIDTH 11 0
BBX 9 17 1 -4
BITMAP
BC0000
BC0000
BC0000
BC0000
BDF900
BFFF00
BD1F80
BC0FC0
BC0BC0
BC0F80
BD1F80
BFFF00
BDF800
BC0000
BC0000
BC0000
BC0000
ENDCHAR
STARTCHAR ydieresis
ENCODING 255
SWIDTH 600 0
DWIDTH 11 0
BBX 10 17 0 -4
BITMAP
078780
0FCFC0
078780
000000
7D01F0
2E02E0
1F03D0
0F47C0
07CB80
03DF40
02EF00
00FD00
00BC00
00B800
01F400
1FE000
2F8000
ENDCHAR
STARTCHAR Amacron
ENCODING 256
SWIDTH 600 0
DWIDTH 11 0
BBX 11 15 0 0
BITMAP
07FF00
07FF00
000000
01FC00
02FD00
03EE00
07DF00
0B8F40
0F4B80
1F4BC0
1FFFD0
2FFFE0
3D02F0
7D02F4
BC01F4
ENDCHAR
STARTCHAR amacron
ENCODING 257
SWIDTH 600 0
DWIDTH 11 0
BBX 9 12 1 0
BITMAP
0FFD00
0FFD00
000000
1BF800
7FFF00
241F40
06FF80
7FFF80
BD0F80
F81F80
BFFF80
2F9B80
ENDCHAR
STARTCHAR Abreve
ENCODING 258
SWIDTH 600 0
DWIDTH 11 0
BBX 11 15 0 0
BITMAP
074740
07FF00
01F900
01FC00
02FD00
03EE00
07DF00
0B8F40
0F4B80
1F4BC0
1FFFD0
2FFFE0
3D02F0
7D02F4
BC01F4
ENDCHAR
STARTCHAR abreve
ENCODING 259
SWIDTH 600 0
DWIDTH 11 0
BBX 9 13 1 0
BITMAP
1E1E00
0FFD00
06F800
000000
1BF800
7FFF00
241F40
06FF80
7FFF80
BD0F80
F81F80
BFFF80
2F9B80
ENDCHAR
STARTCHAR Aogonek
ENCODING 260
SWIDTH 600 0
DWIDTH 11 0
BBX 11 16 0 -4
BITMAP
01FC00
02FD00
03EE00
07DF00
0B8F40
0F4B80
1F4BC0
1FFFD0
2FFFE0
3D02F0
7D02F4
BC01F4
0001E0
0002C0
0003F8
0001F8
ENDCHAR
STARTCHAR aogonek
ENCODING 261
SWIDTH 600 0
DWIDTH 11 0
BBX 9 13 1 -4
BITMAP
1BF800
7FFF00
241F40
06FF80
7FFF80
BD0F80
F81F80
BFFF80
2F9B80
001D00
003800
003F80
001F80
ENDCHAR
STARTCHAR Cacute
ENCODING 262
SWIDTH 600 0
DWIDTH 11 0
BBX 9 16 1 0
BITMAP
000800
007E00
01F800
009000
02FE00
1FFF80
3F4600
BD0000
FC0000
F80000
F80000
FC0000
BD0000
3F4240
1FFFC0
06FE00
ENDCHAR
STARTCHAR cacute
ENCODING 263
SWIDTH 600 0
DWIDTH 11 0
BBX 9 15 1 0
BITMAP
000800
002E00
007E00
00F800
006000
000000
06FE00
2FFF40
7E4500
BC0000
BC0000
BC0000
7E4600
2FFF80
06FE00
ENDCHAR
STARTCHAR Ccircumflex
ENCODING 264
SWIDTH 600 0
DWIDTH 11 0
BBX 9 15 1 0
BITMAP
01FD00
07EF00
060600
02FE00
1FFF80
3F4600
BD0000
FC0000
F80000
F80000
FC0000
BD0000
3F4240
1FFFC0
06FE00
ENDCHAR
STARTCHAR ccircumflex
ENCODING 265
SWIDTH 600 0
DWIDTH 11 0
BBX 9 13 1 0
BITMAP
02FC00
0BEE00
0A0600
000000
06FE00
2FFF40
7E4500
BC0000
BC0000
BC0000
7E4600
2FFF80
06FE00
ENDCHAR
STARTCHAR Cdotaccent
ENCODING 266
SWIDTH 600 0
DWIDTH 11 0
BBX 9 16 1 0
BITMAP
00B400
01FC00
00B800
000000
02FE00
1FFF80
3F4600
BD0000
FC0000
F80000
F80000
FC0000
BD0000
3F4240
1FFFC0
06FE00
ENDCHAR
STARTCHAR cdotaccent
ENCODING 267
SWIDTH 600 0
DWIDTH 11 0
BBX 9 13 1 0
BITMAP
01F400
02FC00
01F400
000000
06FE00
2FFF40
7E4500
BC0000
BC0000
BC0000
7E4600
2FFF80
06FE00
ENDCHAR
STARTCHAR Ccaron
ENCODING 268
SWIDTH 600 0
DWIDTH 11 0
BBX 9 15 1 0
BITMAP
060600
07EF00
01FD00
02FE00
1FFF80
3F4600
BD0000
FC0000
F80000
F80000
FC0000
BD0000
3F4240
1FFFC0
06FE00
ENDCHAR
STARTCHAR ccaron
ENCODING 269
SWIDTH 600 0
DWIDTH 11 0
BBX 9 14 1 0
BITMAP
0A0600
0BEE00
02FC00
000000
000000
06FE00
2FFF40
7E4500
BC0000
BC0000
BC0000
7E4600
2FFF80
06FE00
ENDCHAR
STARTCHAR Dcaron
ENCODING 270
SWIDTH 600 0
DWIDTH 11 0
BBX 9 15 1 0
BITMAP
181800
1FBC00
07F400
BFE400
BFFE00
BC6F40
BC0F80
BC0BC0
BC0BC0
BC0BC0
BC0BC0
BC0F80
BC6F40
BFFE00
BFE400
ENDCHAR
STARTCHAR dcaron
ENCODING 271
SWIDTH 600 0
DWIDTH 11 0
BBX 12 15 0 0
BITMAP
00003D
00003D
000F7D
000F7C
000F7C
000F40
0BDF40
1FFF40
3E2F40
7D0F40
7D0F40
7D0F40
3E2F40
2FFF40
0BDB40
ENDCHAR
STARTCHAR Dcroat
ENCODING 272
SWIDTH 600 0
DWIDTH 11 0
BBX 10 12 0 0
BITMAP
2FF900
2FFF80
2F1BD0
2F03E0
2F02F0
FFF2F0
FFF2F0
2F02F0
2F03E0
2F1BD0
2FFF80
2FF900
ENDCHAR
STARTCHAR dcroat
ENCODING 273
SWIDTH 600 0
DWIDTH 11 0
BBX 10 13 1 0
BITMAP
000F80
03FFE0
03FFE0
000F80
1BDF80
7FFF80
BD1F80
F80F80
F80F80
F80F80
BD2F80
7FFF80
1B9B80
ENDCHAR
STARTCHAR Emacron
ENCODING 274
SWIDTH 600 0
DWIDTH 11 0
BBX 9 15 1 0
BITMAP
0FFE00
0FFE00
000000
7FFF40
7FFF40
7D0000
7D0000
7D0000
7FFE00
7FFE00
7D0000
7D0000
7D0000
7FFF80
7FFF80
ENDCHAR
STARTCHAR emacron
ENCODING 275
SWIDTH 600 0
DWIDTH 11 0
BBX 9 12 1 0
BITMAP
0FFD00
0FFD00
000000
0BF800
2FFF00
BD0B80
FFFF80
FFFF80
F80000
BE0500
2FFF40
06F900
ENDCHAR
STARTCHAR Ebreve
ENCODING 276
SWIDTH 600 0
DWIDTH 11 0
BBX 9 15 1 0
BITMAP
0E1E00
0BFD00
02F800
7FFF40
7FFF40
7D0000
7D0000
7D0000
7FFE00
7FFE00
7D0000
7D0000
7D0000
7FFF80
7FFF80
ENDCHAR
STARTCHAR ebreve
ENCODING 277
SWIDTH 600 0
DWIDTH 11 0
BBX 9 13 1 0
BITMAP
1D1E00
0FFD00
06F400
000000
0BF800
2FFF00
BD0B80
FFFF80
FFFF80
F80000
BE0500
2FFF40
06F900
ENDCHAR
STARTCHAR Edotaccent
ENCODING 278
SWIDTH 600 0
DWIDTH 11 0
BBX 9 16 1 0
BITMAP
01E000
02F400
01E000
000000
7FFF40
7FFF40
7D0000
7D0000
7D0000
7FFE00
7FFE00
7D0000
7D0000
7D0000
7FFF80
7FFF80
ENDCHAR
STARTCHAR edotaccent
ENCODING 279
SWIDTH 600 0
DWIDTH 11 0
BBX 9 13 1 0
BITMAP
02E000
03F400
02E000
000000
0BF800
2FFF00
BD0B80
FFFF80
FFFF80
F80000
BE0500
2FFF40
06F900
ENDCHAR
STARTCHAR Eogonek
ENCODING 280
SWIDTH 600 0
DWIDTH 11 0
BBX 9 16 1 -4
BITMAP
7FFF40
7FFF40
7D0000
7D0000
7D0000
7FFE00
7FFE00
7D0000
7D0000
7D0000
7FFF80
7FFF80
001D00
003C00
003F80
001F80
ENDCHAR
STARTCHAR eogonek
ENCODING 281
SWIDTH 600 0
DWIDTH 11 0
BBX 9 13 1 -4
BITMAP
0BF800
2FFF00
BD0B80
FFFF80
FFFF80
F80000
BE0500
2FFF40
06FE00
003400
00B400
00BF40
002E00
ENDCHAR
STARTCHAR Ecaron
ENCODING 282
SWIDTH 600 0
DWIDTH 11 0
BBX 9 15 1 0
BITMAP
090900
0BBD00
03F800
7FFF40
7FFF40
7D0000
7D0000
7D0000
7FFE00
7FFE00
7D0000
7D0000
7D0000
7FFF80
7FFF80
ENDCHAR
STARTCHAR ecaron
ENCODING 283
SWIDTH 600 0
DWIDTH 11 0
BBX 9 14 1 0
BITMAP
190900
0FBD00
07F400
000000
000000
0BF800
2FFF00
BD0B80
FFFF80
FFFF80
F80000
BE0500
2FFF40
06F900
ENDCHAR
STARTCHAR Gcircumflex
ENCODING 284
SWIDTH 600 0
DWIDTH 11 0
BBX 10 15 0 0
BITMAP
00BE00
02EB40
028280
01BE40
07FFD0
1F8140
2F0000
3E0000
3E1FF0
7E1FF0
3E02F0
2F02F0
1F82F0
0BFFE0
01BE40
ENDCHAR
STARTCHAR gcircumflex
ENCODING 285
SWIDTH 600 0
DWIDTH 11 0
BBX 10 17 1 -4
BITMAP
07F400
1FBD00
181900
000000
1BFFD0
3FFFD0
BD2E00
BC2E00
7EBE00
2FF800
794000
BFFE40
3FFFC0
7407D0
F80BC0
FFFF40
2FF900
ENDCHAR
STARTCHAR Gbreve
ENCODING 286
SWIDTH 600 0
DWIDTH 11 0
BBX 10 15 0 0
BITMAP
028280
02FF80
00BE00
01BE40
07FFD0
1F8140
2F0000
3E0000
3E1FF0
7E1FF0
3E02F0
2F02F0
1F82F0
0BFFE0
01BE40
ENDCHAR
STARTCHAR gbreve
ENCODING 287
SWIDTH 600 0
DWIDTH 11 0
BBX 10 18 1 -4
BITMAP
040400
1D1D00
1FFC00
07E400
000000
1BFFD0
3FFFD0
BD2E00
BC2E00
7EBE00
2FF800
794000
BFFE40
3FFFC0
7407D0
F80BC0
FFFF40
2FF900
ENDCHAR
STARTCHAR Gdotaccent
ENCODING 288
SWIDTH 600 0
DWIDTH 11 0
BBX 10 16 0 0
BITMAP
007D00
00BE00
007D00
000000
01BE40
07FFD0
1F8140
2F0000
3E0000
3E1FF0
7E1FF0
3E02F0
2F02F0
1F82F0
0BFFE0
01BE40
ENDCHAR
STARTCHAR gdotaccent
ENCODING 289
SWIDTH 600 0
DWIDTH 11 0
BBX 10 17 1 -4
BITMAP
02E000
07F400
02E000
000000
1BFFD0
3FFFD0
BD2E00
BC2E00
7EBE00
2FF800
794000
BFFE40
3FFFC0
7407D0
F80BC0
FFFF40
2FF900
ENDCHAR
STARTCHAR uni0122
ENCODING 290
SWIDTH 600 0
DWIDTH 11 0
BBX 10 17 0 -5
BITMAP
01BE40
07FFD0
1F8140
2F0000
3E0000
3E1FF0
7E1FF0
3E02F0
2F02F0
1F82F0
0BFFE0
01BE40
000000
007800
002D00
01FD00
00E400
ENDCHAR
STARTCHAR uni0123
ENCODING 291
SWIDTH 600 0
DWIDTH 11 0
BBX 10 18 1 -4
BITMAP
01B400
03F400
03C000
01E000
000000
1BFFD0
3FFFD0
BD2E00
BC2E00
7EBE00
2FF800
794000
BFFE40
3FFFC0
7407D0
F80BC0
FFFF40
2FF900
ENDCHAR
STARTCHAR Hcircumflex
ENCODING 292
SWIDTH 600 0
DWIDTH 11 0
BBX 9 15 1 0
BITMAP
07F400
1FBC00
181800
F80F80
F80F80
F80F80
F80F80
F80F80
FFFF80
FFFF80
F80F80
F80F80
F80F80
F80F80
F80F80
ENDCHAR
STARTCHAR hcircumflex
ENCODING 293
SWIDTH 600 0
DWIDTH 11 0
BBX 10 16 0 0
BITMAP
7F4000
FBD000
909000
2F0000
2F0000
2F0000
2F0000
2F6F40
2FFFD0
2F87E0
2F03E0
2F03E0
2F03E0
2F03E0
2F03E0
2F03E0
ENDCHAR
STARTCHAR Hbar
ENCODING 294
SWIDTH 600 0
DWIDTH 11 0
BBX 11 12 0 0
BITMAP
3E03E0
3E03E0
FFFFF8
FFFFF8
3E03E0
3FFFE0
3FFFE0
3E03E0
3E03E0
3E03E0
3E03E0
3E03E0
ENDCHAR
STARTCHAR hbar
ENCODING 295
SWIDTH 600 0
DWIDTH 11 0
BBX 10 13 0 0
BITMAP
2F0000
BFFD00
FFFD00
2F0000
2F6F40
2FFFD0
2F87E0
2F03E0
2F03E0
2F03E0
2F03E0
2F03E0
2F03E0
ENDCHAR
STARTCHAR Itilde
ENCODING 296
SWIDTH 600 0
DWIDTH 11 0
BBX 9 15 1 0
BITMAP
1F8A00
3FFE00
28B800
BFFF40
BFFF40
03E000
03E000
03E000
03E000
03E000
03E000
03E000
03E000
BFFF40
BFFF40
ENDCHAR
STARTCHAR itilde
ENCODING 297
SWIDTH 600 0
DWIDTH 11 0
BBX 9 14 1 0
BITMAP
014000
0BE780
0FFF40
092E00
000000
BFF800
BFF800
00F800
00F800
00F800
00F800
00F800
00F800
00F800
ENDCHAR
STARTCHAR Imacron
ENCODING 298
SWIDTH 600 0
DWIDTH 11 0
BBX 9 15 1 0
BITMAP
1FFC00
1FFC00
000000
BFFF40
BFFF40
03E000
03E000
03E000
03E000
03E000
03E000
03E000
03E000
BFFF40
BFFF40
ENDCHAR
STARTCHAR imacron
ENCODING 299
SWIDTH 600 0
DWIDTH 11 0
BBX 8 12 1 0
BITMAP
07FF
07FF
0000
BFF8
BFF8
00F8
00F8
00F8
00F8
00F8
00F8
00F8
ENDCHAR
STARTCHAR Ibreve
ENCODING 300
SWIDTH 600 0
DWIDTH 11 0
BBX 9 15 1 0
BITMAP
1D1D00
1FFC00
07E400
BFFF40
BFFF40
03E000
03E000
03E000
03E000
03E000
03E000
03E000
03E000
BFFF40
BFFF40
ENDCHAR
STARTCHAR ibreve
ENCODING 301
SWIDTH 600 0
DWIDTH 11 0
BBX 8 13 1 0
BITMAP
0B4B
07FF
02F8
0000
BFF8
BFF8
00F8
00F8
00F8
00F8
00F8
00F8
00F8
ENDCHAR
STARTCHAR Iogonek
ENCODING 302
SWIDTH 600 0
DWIDTH 11 0
BBX 9 16 1 -4
BITMAP
BFFF40
BFFF40
03E000
03E000
03E000
03E000
03E000
03E000
03E000
03E000
BFFF40
BFFF40
028000
074000
0BF400
02E000
ENDCHAR
STARTCHAR iogonek
ENCODING 303
SWIDTH 600 0
DWIDTH 11 0
BBX 7 17 1 -4
BITMAP
00F4
01FC
01F4
0000
BFF8
BFF8
00F8
00F8
00F8
00F8
00F8
00F8
00F8
00A0
02C0
02FC
01F8
ENDCHAR
STARTCHAR Idotaccent
ENCODING 304
SWIDTH 600 0
DWIDTH 11 0
BBX 9 16 1 0
BITMAP
02E000
07F000
02E000
000000
BFFF40
BFFF40
03E000
03E000
03E000
03E000
03E000
03E000
03E000
03E000
BFFF40
BFFF40
ENDCHAR
STARTCHAR dotlessi
ENCODING 305
SWIDTH 600 0
DWIDTH 11 0
BBX 7 9 1 0
BITMAP
BFF8
BFF8
00F8
00F8
00F8
00F8
00F8
00F8
00F8
ENDCHAR
STARTCHAR IJ
ENCODING 306
SWIDTH 600 0
DWIDTH 11 0
BBX 9 15 1 -3
BITMAP
BC1F40
BC1F40
BC1F40
BC1F40
BC1F40
BC1F40
BC1F40
BC1F40
BC1F40
BC1F40
BC1F40
BC1F40
001F40
01FF00
01F900
ENDCHAR
STARTCHAR ij
ENCODING 307
SWIDTH 600 0
DWIDTH 11 0
BBX 9 17 1 -4
BITMAP
780B40
BD1F80
780B40
000000
BC0F80
BC0F80
BC0F80
BC0F80
BC0F80
BC0F80
BC0F80
BC0F80
BC0F80
000F80
001F40
00BF00
00FD00
ENDCHAR
STARTCHAR Jcircumflex
ENCODING 308
SWIDTH 600 0
DWIDTH 11 0
BBX 9 15 1 0
BITMAP
03F800
0BAD00
0A0A00
3FFF40
3FFF40
001F40
001F40
001F40
001F40
001F40
001F40
001F40
742F00
BFFD00
1BE400
ENDCHAR
STARTCHAR jcircumflex
ENCODING 309
SWIDTH 600 0
DWIDTH 11 0
BBX 9 17 1 -4
BITMAP
02FC00
0BEF00
0A0640
000000
BFF800
BFF800
00F800
00F800
00F800
00F800
00F800
00F800
00F800
00F800
41F400
FFF000
BF8000
ENDCHAR
STARTCHAR uni0136
ENCODING 310
SWIDTH 600 0
DWIDTH 11 0
BBX 10 17 1 -5
BITMAP
BC0FC0
BC2F40
BC7E00
BCF800
BEF000
BFF400
BFF800
BE7D00
BC3E00
BC1F40
BC0FC0
BC07D0
000000
01E000
00B400
03F400
039000
ENDCHAR
STARTCHAR uni0137
ENCODING 311
SWIDTH 600 0
DWIDTH 11 0
BBX 10 18 1 -5
BITMAP
BC0000
BC0000
BC0000
BC0000
BC1F80
BC3E00
BCF800
BFF000
BFF800
BFBD00
BD3E00
BC1F80
BC0BD0
000000
01E000
00B400
03F400
039000
ENDCHAR
STARTCHAR kgreenlandic
ENCODING 312
SWIDTH 600 0
DWIDTH 11 0
BBX 10 9 1 0
BITMAP
BC1F80
BC3E00
BCFC00
BEF000
BFF400
BFBC00
BD3E00
BC1F40
BC0BD0
ENDCHAR
STARTCHAR Lacute
ENCODING 313
SWIDTH 600 0
DWIDTH 11 0
BBX 8 16 2 0
BITMAP
0900
3F00
FD00
A000
F800
F800
F800
F800
F800
F800
F800
F800
F800
F800
FFFE
FFFE
ENDCHAR
STARTCHAR lacute
ENCODING 314
SWIDTH 600 0
DWIDTH 11 0
BBX 9 17 1 0
BITMAP
006000
02F400
0BE000
064000
FFD000
FFD000
07D000
07D000
07D000
07D000
07D000
07D000
07D000
07D000
03E000
02FF40
00BF40
ENDCHAR
STARTCHAR uni013B
ENCODING 315
SWIDTH 600 0
DWIDTH 11 0
BBX 8 17 2 -5
BITMAP
F800
F800
F800
F800
F800
F800
F800
F800
F800
F800
FFFE
FFFE
0000
0380
01E0
0FE0
0B80
ENDCHAR
STARTCHAR uni013C
ENCODING 316
SWIDTH 600 0
DWIDTH 11 0
BBX 9 18 1 -5
BITMAP
FFD000
FFD000
07D000
07D000
07D000
07D000
07D000
07D000
07D000
07D000
03E000
02FF40
00BF40
000000
007800
002D00
01FC00
01E400
ENDCHAR
STARTCHAR Lcaron
ENCODING 317
SWIDTH 600 0
DWIDTH 11 0
BBX 8 14 2 0
BITMAP
007C
007C
F878
F878
F874
F800
F800
F800
F800
F800
F800
F800
FFFE
FFFE
ENDCHAR
STARTCHAR lcaron
ENCODING 318
SWIDTH 600 0
DWIDTH 11 0
BBX 9 15 1 0
BITMAP
000B80
000B80
FFDB80
FFDB40
07DB40
07D000
07D000
07D000
07D000
07D000
07D000
07D000
03E000
02FF40
00BF40
ENDCHAR
STARTCHAR Ldot
ENCODING 319
SWIDTH 600 0
DWIDTH 11 0
BBX 9 12 2 0
BITMAP
F80000
F80000
F80000
F80000
F82E00
F83F40
F82E00
F80000
F80000
F80000
FFFE00
FFFE00
ENDCHAR
STARTCHAR ldot
ENCODING 320
SWIDTH 600 0
DWIDTH 11 0
BBX 12 13 0 0
BITMAP
FFD000
FFD000
07D000
07D000
07D000
07D000
07D07D
07D0BE
07D07D
03E000
03E000
02FF80
00BF80
ENDCHAR
STARTCHAR Lslash
ENCODING 321
SWIDTH 600 0
DWIDTH 11 0
BBX 10 12 0 0
BITMAP
0F8000
0F8000
0F8000
0F8200
0FAF40
0FFD00
2FE000
FF8000
5F8000
0F8000
0FFFE0
0FFFE0
ENDCHAR
STARTCHAR lslash
ENCODING 322
SWIDTH 600 0
DWIDTH 11 0
BBX 9 13 1 0
BITMAP
FFD000
FFD000
07D000
07D600
07FF40
0BFD00
6FE000
7FD000
17D000
07D000
03E000
02FF40
00BF40
ENDCHAR
STARTCHAR Nacute
ENCODING 323
SWIDTH 600 0
DWIDTH 11 0
BBX 9 16 1 0
BITMAP
002400
00BC00
03F400
018000
BC0F80
BE0F80
BF0F80
BF4F80
BB8F80
BADF80
B9EB80
B8FB80
B8BF80
B83F80
B82F80
B81F80
ENDCHAR
STARTCHAR nacute
ENCODING 324
SWIDTH 600 0
DWIDTH 11 0
BBX 9 15 1 0
BITMAP
001400
007D00
00FD00
02F400
009000
000000
B9BD00
BFFF40
BE1F80
BC0F80
BC0F80
BC0F80
BC0F80
BC0F80
BC0F80
ENDCHAR
STARTCHAR uni0145
ENCODING 325
SWIDTH 600 0
DWIDTH 11 0
BBX 9 17 1 -5
BITMAP
BC0F80
BE0F80
BF0F80
BF4F80
BB8F80
BADF80
B9EB80
B8FB80
B8BF80
B83F80
B82F80
B81F80
000000
029000
01F000
0BF000
079000
ENDCHAR
STARTCHAR uni0146
ENCODING 326
SWIDTH 600 0
DWIDTH 11 0
BBX 9 14 1 -5
BITMAP
B9BD00
BFFF40
BE1F80
BC0F80
BC0F80
BC0F80
BC0F80
BC0F80
BC0F80
000000
02D000
00F000
07F000
079000
ENDCHAR
STARTCHAR Ncaron
ENCODING 327
SWIDTH 600 0
DWIDTH 11 0
BBX 9 15 1 0
BITMAP
091900
0FBC00
07F400
BC0F80
BE0F80
BF0F80
BF4F80
BB8F80
BADF80
B9EB80
B8FB80
B8BF80
B83F80
B82F80
B81F80
ENDCHAR
STARTCHAR ncaron
ENCODING 328
SWIDTH 600 0
DWIDTH 11 0
BBX 9 14 1 0
BITMAP
190A00
0FBD00
07F400
000000
000000
B9BD00
BFFF40
BE1F80
BC0F80
BC0F80
BC0F80
BC0F80
BC0F80
BC0F80
ENDCHAR
STARTCHAR napostrophe
ENCODING 329
SWIDTH 600 0
DWIDTH 11 0
BBX 13 12 -1 0
BITMAP
7D000000
BE000000
7F000000
0F3CBD00
2D3FFF40
B83F5F40
503E0F80
003E0F80
003E0F80
003E0F80
003E0F80
003E0F80
ENDCHAR
STARTCHAR Eng
ENCODING 330
SWIDTH 600 0
DWIDTH 11 0
BBX 9 12 1 0
BITMAP
B9F900
BFFF00
BE1F80
BC0F80
B80BC0
B80BC0
B80BC0
B80BC0
B80F80
B81F80
B8BF40
B8BD00
ENDCHAR
STARTCHAR eng
ENCODING 331
SWIDTH 600 0
DWIDTH 11 0
BBX 9 13 1 -4
BITMAP
B9BD00
BFFF40
BE1F80
BC0F80
BC0F80
BC0F80
BC0F80
BC0F80
BC0F80
000F80
000F80
00BF40
00BD00
ENDCHAR
STARTCHAR Omacron
ENCODING 332
SWIDTH 600 0
DWIDTH 11 0
BBX 10 15 0 0
BITMAP
07FF00
07FF00
000000
02FD00
0FFF80
2F4BD0
3E03E0
7E02F0
7D02F0
7D02F0
7E02F0
3E03E0
2F4BD0
0FFF80
02FD00
ENDCHAR
STARTCHAR omacron
ENCODING 333
SWIDTH 600 0
DWIDTH 11 0
BBX 9 12 1 0
BITMAP
1FFC00
1FFC00
000000
0BF400
3FFE00
BD1F80
F80FC0
F80BC0
F80FC0
BD1F80
3FFE00
0BF400
ENDCHAR
STARTCHAR Obreve
ENCODING 334
SWIDTH 600 0
DWIDTH 11 0
BBX 10 15 0 0
BITMAP
074740
07FF00
01F900
02FD00
0FFF80
2F4BD0
3E03E0
7E02F0
7D02F0
7D02F0
7E02F0
3E03E0
2F4BD0
0FFF80
02FD00
ENDCHAR
STARTCHAR obreve
ENCODING 335
SWIDTH 600 0
DWIDTH 11 0
BBX 9 13 1 0
BITMAP
2D1D00
1FFC00
07E400
000000
0BF400
3FFE00
BD1F80
F80FC0
F80BC0
F80FC0
BD1F80
3FFE00
0BF400
ENDCHAR
STARTCHAR Ohungarumlaut
ENCODING 336
SWIDTH 600 0
DWIDTH 11 0
BBX 10 16 0 0
BITMAP
00A180
00F2D0
02D780
028600
02FD00
0FFF80
2F4BD0
3E03E0
7E02F0
7D02F0
7D02F0
7E02F0
3E03E0
2F4BD0
0FFF80
02FD00
ENDCHAR
STARTCHAR ohungarumlaut
ENCODING 337
SWIDTH 600 0
DWIDTH 11 0
BBX 9 14 1 0
BITMAP
028640
03CF40
0B5E00
0A1800
000000
0BF400
3FFE00
BD1F80
F80FC0
F80BC0
F80FC0
BD1F80
3FFE00
0BF400
ENDCHAR
STARTCHAR OE
ENCODING 338
SWIDTH 600 0
DWIDTH 11 0
BBX 11 12 0 0
BITMAP
06FFF8
1FFFF8
3E2E00
7D2E00
BC2E00
BC2FE0
BC2FE0
BC2E00
7D2E00
3E2E00
1FFFF8
06FFF8
ENDCHAR
STARTCHAR oe
ENCODING 339
SWIDTH 600 0
DWIDTH 11 0
BBX 11 9 0 0
BITMAP
1B87D0
3FEFF0
7CB8B4
B87FF8
B87FF8
B87800
7CBC10
3FEFF0
0B87E0
ENDCHAR
STARTCHAR Racute
ENCODING 340
SWIDTH 600 0
DWIDTH 11 0
BBX 10 16 1 0
BITMAP
002000
01F800
07E400
028000
BFF900
BFFF40
BC1F80
BC0BC0
BC0BC0
BC1F80
BFFF40
BFFD00
BC7D00
BC3F00
BC1F80
BC0BD0
ENDCHAR
STARTCHAR racute
ENCODING 341
SWIDTH 600 0
DWIDTH 11 0
BBX 8 15 2 0
BITMAP
0020
00BC
01F8
03E0
0180
0000
F4BE
FBFE
FF40
FC00
F800
F800
F800
F800
F800
ENDCHAR
STARTCHAR uni0156
ENCODING 342
SWIDTH 600 0
DWIDTH 11 0
BBX 10 17 1 -5
BITMAP
BFF900
BFFF40
BC1F80
BC0BC0
BC0BC0
BC1F80
BFFF40
BFFD00
BC7D00
BC3F00
BC1F80
BC0BD0
000000
01E000
00B400
07F400
039000
ENDCHAR
STARTCHAR uni0157
ENCODING 343
SWIDTH 600 0
DWIDTH 11 0
BBX 9 14 1 -5
BITMAP
3D2F80
3EFF80
3FD000
3F0000
3E0000
3E0000
3E0000
3E0000
3E0000
000000
2D0000
0F0000
7F0000
790000
ENDCHAR
STARTCHAR Rcaron
ENCODING 344
SWIDTH 600 0
DWIDTH 11 0
BBX 10 15 1 0
BITMAP
181800
1FBC00
07F400
BFF900
BFFF40
BC1F80
BC0BC0
BC0BC0
BC1F80
BFFF40
BFFD00
BC7D00
BC3F00
BC1F80
BC0BD0
ENDCHAR
STARTCHAR rcaron
ENCODING 345
SWIDTH 600 0
DWIDTH 11 0
BBX 8 14 2 0
BITMAP
2819
1FBC
0BF0
0000
0000
F4BE
FBFE
FF40
FC00
F800
F800
F800
F800
F800
ENDCHAR
STARTCHAR Sacute
ENCODING 346
SWIDTH 600 0
DWIDTH 11 0
BBX 9 16 1 0
BITMAP
002400
00BC00
02F400
018000
0BF900
2FFF40
7D0A00
BD0000
7F8000
2FF800
07FF40
006F80
000FC0
781F80
BFFF40
1BF800
ENDCHAR
STARTCHAR sacute
ENCODING 347
SWIDTH 600 0
DWIDTH 11 0
BBX 9 15 1 0
BITMAP
001400
007D00
00FD00
02F400
008000
000000
0BF900
3FFF40
7D0500
7F9400
1FFE00
016F80
640F80
BFFF40
1BF900
ENDCHAR
STARTCHAR Scircumflex
ENCODING 348
SWIDTH 600 0
DWIDTH 11 0
BBX 9 15 1 0
BITMAP
03F800
0BBD00
090900
0BF900
2FFF40
7D0A00
BD0000
7F8000
2FF800
07FF40
006F80
000FC0
781F80
BFFF40
1BF800
ENDCHAR
STARTCHAR scircumflex
ENCODING 349
SWIDTH 600 0
DWIDTH 11 0
BBX 9 13 1 0
BITMAP
07F400
0FBD00
190900
000000
0BF900
3FFF40
7D0500
7F9400
1FFE00
016F80
640F80
BFFF40
1BF900
ENDCHAR
STARTCHAR uni015E
ENCODING 350
SWIDTH 600 0
DWIDTH 11 0
BBX 9 17 1 -5
BITMAP
0BF900
2FFF40
7D0A00
BD0000
7F8000
2FF800
07FF40
006F80
000FC0
781F80
BFFF40
1BF800
01C000
03E000
00F000
01F000
079000
ENDCHAR
STARTCHAR uni015F
ENCODING 351
SWIDTH 600 0
DWIDTH 11 0
BBX 9 14 1 -5
BITMAP
0BF900
3FFF40
7D0500
7F9400
1FFE00
016F80
640F80
BFFF40
1BF900
01D000
02E000
00B400
00B000
079000
ENDCHAR
STARTCHAR Scaron
ENCODING 352
SWIDTH 600 0
DWIDTH 11 0
BBX 9 15 1 0
BITMAP
090900
0BBD00
03F800
0BF900
2FFF40
7D0A00
BD0000
7F8000
2FF800
07FF40
006F80
000FC0
781F80
BFFF40
1BF800
ENDCHAR
STARTCHAR scaron
ENCODING 353
SWIDTH 600 0
DWIDTH 11 0
BBX 9 14 1 0
BITMAP
190900
0FBD00
07F400
000000
000000
0BF900
3FFF40
7D0500
7F9400
1FFE00
016F80
640F80
BFFF40
1BF900
ENDCHAR
STARTCHAR uni0162
ENCODING 354
SWIDTH 600 0
DWIDTH 11 0
BBX 11 17 0 -5
BITMAP
7FFFF4
7FFFF4
00F800
00F800
00F800
00F800
00F800
00F800
00F800
00F800
00F800
00F800
007000
00F800
007C00
007C00
02E000
ENDCHAR
STARTCHAR uni0163
ENCODING 355
SWIDTH 600 0
DWIDTH 11 0
BBX 9 17 1 -5
BITMAP
078000
0B8000
0B8000
FFFF80
FFFF80
0F8000
0F8000
0F8000
0B8000
0BD000
07FF80
01BF80
003400
00B800
002D00
002D00
01E400
ENDCHAR
STARTCHAR Tcaron
ENCODING 356
SWIDTH 600 0
DWIDTH 11 0
BBX 11 15 0 0
BITMAP
060600
07EF00
01FD00
7FFFF4
7FFFF4
00F800
00F800
00F800
00F800
00F800
00F800
00F800
00F800
00F800
00F800
ENDCHAR
STARTCHAR tcaron
ENCODING 357
SWIDTH 600 0
DWIDTH 11 0
BBX 9 15 1 0
BITMAP
001F00
000F00
000F00
078F00
0B8E00
0B8000
FFFF80
FFFF80
0F8000
0F8000
0F8000
0B8000
0BD000
07FF80
01BF80
ENDCHAR
STARTCHAR Tbar
ENCODING 358
SWIDTH 600 0
DWIDTH 11 0
BBX 11 12 0 0
BITMAP
7FFFF4
7FFFF4
00F800
00F800
00F800
1FFFC0
1FFFC0
00F800
00F800
00F800
00F800
00F800
ENDCHAR
STARTCHAR tbar
ENCODING 359
SWIDTH 600 0
DWIDTH 11 0
BBX 9 12 1 0
BITMAP
068000
0B8000
0B8000
FFFF80
FFFF80
0F8000
FFFF40
FFFF40
0F8000
0BD000
07FF80
01BF80
ENDCHAR
STARTCHAR Utilde
ENCODING 360
SWIDTH 600 0
DWIDTH 11 0
BBX 9 15 1 0
BITMAP
1F8A00
3FFE00
28B800
F80F80
F80F80
F80F80
F80F80
F80F80
F80F80
F80F80
B80F80
BC0F80
7D1F40
3FFE00
0BF800
ENDCHAR
STARTCHAR utilde
ENCODING 361
SWIDTH 600 0
DWIDTH 11 0
BBX 9 14 1 0
BITMAP
010000
1F8E00
3FFD00
28B800
000000
F81F40
F81F40
F81F40
F81F40
F81F40
F81F40
BC2F40
7FFF40
2F8B40
ENDCHAR
STARTCHAR Umacron
ENCODING 362
SWIDTH 600 0
DWIDTH 11 0
BBX 9 15 1 0
BITMAP
1FFC00
1FFC00
000000
F80F80
F80F80
F80F80
F80F80
F80F80
F80F80
F80F80
B80F80
BC0F80
7D1F40
3FFE00
0BF800
ENDCHAR
STARTCHAR umacron
ENCODING 363
SWIDTH 600 0
DWIDTH 11 0
BBX 9 12 1 0
BITMAP
1FFC00
1FFC00
000000
F81F40
F81F40
F81F40
F81F40
F81F40
F81F40
BC2F40
7FFF40
2F8B40
ENDCHAR
STARTCHAR Ubreve
ENCODING 364
SWIDTH 600 0
DWIDTH 11 0
BBX 9 15 1 0
BITMAP
1D1D00
1FFC00
07E400
F80F80
F80F80
F80F80
F80F80
F80F80
F80F80
F80F80
B80F80
BC0F80
7D1F40
3FFE00
0BF800
ENDCHAR
STARTCHAR ubreve
ENCODING 365
SWIDTH 600 0
DWIDTH 11 0
BBX 9 13 1 0
BITMAP
2D2D00
1FFC00
07E400
000000
F81F40
F81F40
F81F40
F81F40
F81F40
F81F40
BC2F40
7FFF40
2F8B40
ENDCHAR
STARTCHAR Uring
ENCODING 366
SWIDTH 600 0
DWIDTH 11 0
BBX 9 17 1 0
BITMAP
02E000
0A3400
0A3400
02E000
000000
F80F80
F80F80
F80F80
F80F80
F80F80
F80F80
F80F80
B80F80
BC0F80
7D1F40
3FFE00
0BF800
ENDCHAR
STARTCHAR uring
ENCODING 367
SWIDTH 600 0
DWIDTH 11 0
BBX 9 14 1 0
BITMAP
07E000
0E3800
0E3800
07E000
000000
F81F40
F81F40
F81F40
F81F40
F81F40
F81F40
BC2F40
7FFF40
2F8B40
ENDCHAR
STARTCHAR Uhungarumlaut
ENCODING 368
SWIDTH 600 0
DWIDTH 11 0
BBX 9 16 1 0
BITMAP
028600
03CB40
0B5E00
0A1800
F80F80
F80F80
F80F80
F80F80
F80F80
F80F80
F80F80
B80F80
BC0F80
7D1F40
3FFE00
0BF800
ENDCHAR
STARTCHAR uhungarumlaut
ENCODING 369
SWIDTH 600 0
DWIDTH 11 0
BBX 9 14 1 0
BITMAP
028600
03CF00
0B5E00
0A1800
000000
F81F40
F81F40
F81F40
F81F40
F81F40
F81F40
BC2F40
7FFF40
2F8B40
ENDCHAR
STARTCHAR Uogonek
ENCODING 370
SWIDTH 600 0
DWIDTH 11 0
BBX 9 16 1 -4
BITMAP
F80F80
F80F80
F80F80
F80F80
F80F80
F80F80
F80F80
B80F80
BC0F80
7D1F40
3FFE00
0BF800
02D000
038000
07F400
02F400
ENDCHAR
STARTCHAR uogonek
ENCODING 371
SWIDTH 600 0
DWIDTH 11 0
BBX 9 13 1 -4
BITMAP
F81F40
F81F40
F81F40
F81F40
F81F40
F81F40
BC2F40
7FFF40
2F8B40
001D00
003800
007F80
002F40
ENDCHAR
STARTCHAR Wcircumflex
ENCODING 372
SWIDTH 600 0
DWIDTH 11 0
BBX 11 15 0 0
BITMAP
01FD00
07EF00
060600
FC00F8
BC00F8
BC00F4
7C74F4
7CB8F4
7CFCF0
3DEDF0
3EEEE0
2EDEE0
2FCFE0
2F8FD0
1F4BD0
ENDCHAR
STARTCHAR wcircumflex
ENCODING 373
SWIDTH 600 0
DWIDTH 11 0
BBX 11 13 0 0
BITMAP
01FD00
07EF40
060640
000000
F800B8
B864F8
BCB8F4
7CFCF4
7DEDF0
3EDEF0
3FDFE0
2FCFE0
2F8FD0
ENDCHAR
STARTCHAR Ycircumflex
ENCODING 374
SWIDTH 600 0
DWIDTH 11 0
BBX 11 15 0 0
BITMAP
01FD00
07EF00
060600
7D01F4
3E03E0
2F07D0
0F8BC0
0BCF40
03EF00
02FD00
00FC00
00F800
00F800
00F800
00F800
ENDCHAR
STARTCHAR ycircumflex
ENCODING 375
SWIDTH 600 0
DWIDTH 11 0
BBX 10 17 0 -4
BITMAP
01FD00
07EF40
064240
000000
7D01F0
2E02E0
1F03D0
0F47C0
07CB80
03DF40
02EF00
00FD00
00BC00
00B800
01F400
1FE000
2F8000
ENDCHAR
STARTCHAR Ydieresis
ENCODING 376
SWIDTH 600 0
DWIDTH 11 0
BBX 11 15 0 0
BITMAP
0B4B40
0F8F80
0B4B40
7D01F4
3E03E0
2F07D0
0F8BC0
0BCF40
03EF00
02FD00
00FC00
00F800
00F800
00F800
00F800
ENDCHAR
STARTCHAR Zacute
ENCODING 377
SWIDTH 600 0
DWIDTH 11 0
BBX 9 16 1 0
BITMAP
002400
00BC00
02F400
018000
7FFF80
7FFF80
002F00
007D00
00F800
02F400
07E000
0FC000
2F4000
7E0000
FFFFC0
FFFFC0
ENDCHAR
STARTCHAR zacute
ENCODING 378
SWIDTH 600 0
DWIDTH 11 0
BBX 9 15 1 0
BITMAP
001800
003E00
00BD00
01F400
009000
000000
7FFF80
7FFF40
007E00
01F800
07F000
0FD000
2F4000
BFFF80
BFFF80
ENDCHAR
STARTCHAR Zdotaccent
ENCODING 379
SWIDTH 600 0
DWIDTH 11 0
BBX 9 16 1 0
BITMAP
01E000
02F400
01E000
000000
7FFF80
7FFF80
002F00
007D00
00F800
02F400
07E000
0FC000
2F4000
7E0000
FFFFC0
FFFFC0
ENDCHAR
STARTCHAR zdotaccent
ENCODING 380
SWIDTH 600 0
DWIDTH 11 0
BBX 9 13 1 0
BITMAP
01F400
02F800
01F400
000000
7FFF80
7FFF40
007E00
01F800
07F000
0FD000
2F4000
BFFF80
BFFF80
ENDCHAR
STARTCHAR Zcaron
ENCODING 381
SWIDTH 600 0
DWIDTH 11 0
BBX 9 15 1 0
BITMAP
090900
0BBD00
03F800
7FFF80
7FFF80
002F00
007D00
00F800
02F400
07E000
0FC000
2F4000
7E0000
FFFFC0
FFFFC0
ENDCHAR
STARTCHAR zcaron
ENCODING 382
SWIDTH 600 0
DWIDTH 11 0
BBX 9 14 1 0
BITMAP
090A00
0BBE00
03F800
000000
000000
7FFF80
7FFF40
007E00
01F800
07F000
0FD000
2F4000
BFFF80
BFFF80
ENDCHAR
STARTCHAR longs
ENCODING 383
SWIDTH 600 0
DWIDTH 11 0
BBX 10 13 1 0
BITMAP
006F90
01FFD0
03E040
03E000
7FD000
BFD000
07D000
07D000
07D000
07D000
07D000
07D000
07D000
ENDCHAR
STARTCHAR uni0180
ENCODING 384
SWIDTH 600 0
DWIDTH 11 0
BBX 10 13 0 0
BITMAP
2F0000
BFFD00
FFFD00
2F0000
2F7E40
2FFFC0
2F47E0
2F03F0
2F02F0
2F03E0
2F87E0
2FFFC0
2D7E00
ENDCHAR
STARTCHAR uni018A
ENCODING 394
SWIDTH 600 0
DWIDTH 11 0
BBX 11 12 0 0
BITMAP
0BFE00
3FFFC0
BAE7E0
F2E1F0
F6E0F4
BAE0F4
36E0F4
02E0F4
02E1F0
02E3E0
02FFC0
02FE00
ENDCHAR
STARTCHAR uni018F
ENCODING 399
SWIDTH 600 0
DWIDTH 11 0
BBX 9 12 1 0
BITMAP
0BF400
2FFE00
082F40
000F80
000BC0
FFFFC0
FFFFC0
F80BC0
B80F80
7D1F40
2FFE00
07F400
ENDCHAR
STARTCHAR uni0192
ENCODING 402
SWIDTH 600 0
DWIDTH 11 0
BBX 9 14 1 -2
BITMAP
002F80
00FF80
01F400
02F000
02E000
1FFF00
2FFF00
03D000
03D000
07D000
07C000
0FC000
FF4000
FD0000
ENDCHAR
STARTCHAR uni0193
ENCODING 403
SWIDTH 600 0
DWIDTH 11 0
BBX 11 15 0 0
BITMAP
0001B8
0003F8
0003D0
01BFD0
07FFD0
1F8140
2F0000
3E0000
3E1FF0
7E1FF0
3E02F0
2F02F0
1F82F0
0BFFE0
01BE40
ENDCHAR
STARTCHAR Ohorn
ENCODING 416
SWIDTH 600 0
DWIDTH 11 0
BBX 11 15 0 0
BITMAP
000064
0000B8
0000B8
02FEE0
0FFFC0
2F4BD0
3E03E0
7E02F0
7D02F0
7D02F0
7E02F0
3E03E0
2F4BD0
0FFF80
02FD00
ENDCHAR
STARTCHAR ohorn
ENCODING 417
SWIDTH 600 0
DWIDTH 11 0
BBX 10 12 1 0
BITMAP
000190
0002E0
0002D0
0BFB80
3FFF00
BD1F80
F80FC0
F80BC0
F80F80
BD1F80
3FFE00
0BF400
ENDCHAR
STARTCHAR Uhorn
ENCODING 431
SWIDTH 600 0
DWIDTH 11 0
BBX 11 15 1 0
BITMAP
000068
000078
0000B8
F80FE0
F80F80
F80F80
F80F80
F80F80
F80F80
F80F80
B80F80
BC0F80
7D1F40
3FFE00
0BF800
ENDCHAR
STARTCHAR uhorn
ENCODING 432
SWIDTH 600 0
DWIDTH 11 0
BBX 10 13 1 0
BITMAP
000060
0000F0
0000F0
0001F0
F81FD0
F81F40
F81F40
F81F40
F81F40
F81F40
BC2F40
7FFF40
2F8B40
ENDCHAR
STARTCHAR uni01C2
ENCODING 450
SWIDTH 600 0
DWIDTH 11 0
BBX 9 17 1 -4
BITMAP
03E000
03E000
03E000
03E000
03E000
BFFF80
BFFF80
03E000
03E000
BFFF80
BFFF80
03E000
03E000
03E000
03E000
03E000
03E000
ENDCHAR
STARTCHAR uni01CD
ENCODING 461
SWIDTH 600 0
DWIDTH 11 0
BBX 11 15 0 0
BITMAP
060600
07EF00
01FD00
01FC00
02FD00
03EE00
07DF00
0B8F40
0F4B80
1F4BC0
1FFFD0
2FFFE0
3D02F0
7D02F4
BC01F4
ENDCHAR
STARTCHAR uni01CE
ENCODING 462
SWIDTH 600 0
DWIDTH 11 0
BBX 9 14 1 0
BITMAP
190A00
0FBD00
03F800
000000
000000
1BF800
7FFF00
241F40
06FF80
7FFF80
BD0F80
F81F80
BFFF80
2F9B80
ENDCHAR
STARTCHAR uni01CF
ENCODING 463
SWIDTH 600 0
DWIDTH 11 0
BBX 9 15 1 0
BITMAP
181800
1FBC00
07F400
BFFF40
BFFF40
03E000
03E000
03E000
03E000
03E000
03E000
03E000
03E000
BFFF40
BFFF40
ENDCHAR
STARTCHAR uni01D0
ENCODING 464
SWIDTH 600 0
DWIDTH 11 0
BBX 9 14 1 0
BITMAP
0A0640
0BEF00
02FC00
000000
000000
BFF800
BFF800
00F800
00F800
00F800
00F800
00F800
00F800
00F800
ENDCHAR
STARTCHAR uni01D1
ENCODING 465
SWIDTH 600 0
DWIDTH 11 0
BBX 10 15 0 0
BITMAP
060600
07EF00
01FD00
02FD00
0FFF80
2F4BD0
3E03E0
7E02F0
7D02F0
7D02F0
7E02F0
3E03E0
2F4BD0
0FFF80
02FD00
ENDCHAR
STARTCHAR uni01D2
ENCODING 466
SWIDTH 600 0
DWIDTH 11 0
BBX 9 14 1 0
BITMAP
181900
1FBD00
07F400
000000
000000
0BF400
3FFE00
BD1F80
F80FC0
F80BC0
F80FC0
BD1F80
3FFE00
0BF400
ENDCHAR
STARTCHAR uni01D3
ENCODING 467
SWIDTH 600 0
DWIDTH 11 0
BBX 9 15 1 0
BITMAP
181800
1FBC00
07F400
F80F80
F80F80
F80F80
F80F80
F80F80
F80F80
F80F80
B80F80
BC0F80
7D1F40
3FFE00
0BF800
ENDCHAR
STARTCHAR uni01D4
ENCODING 468
SWIDTH 600 0
DWIDTH 11 0
BBX 9 14 1 0
BITMAP
281900
1FBC00
07F400
000000
000000
F81F40
F81F40
F81F40
F81F40
F81F40
F81F40
BC2F40
7FFF40
2F8B40
ENDCHAR
STARTCHAR uni01D5
ENCODING 469
SWIDTH 600 0
DWIDTH 11 0
BBX 9 17 1 0
BITMAP
1FFC00
000000
1D1D00
1D1D00
000000
F80F80
F80F80
F80F80
F80F80
F80F80
F80F80
F80F80
B80F80
BC0F80
7D1F40
3FFE00
0BF800
ENDCHAR
STARTCHAR uni01D6
ENCODING 470
SWIDTH 600 0
DWIDTH 11 0
BBX 9 14 1 0
BITMAP
1FFC00
000000
1D2D00
1D2D00
000000
F81F40
F81F40
F81F40
F81F40
F81F40
F81F40
BC2F40
7FFF40
2F8B40
ENDCHAR
STARTCHAR uni01D7
ENCODING 471
SWIDTH 600 0
DWIDTH 11 0
BBX 9 18 1 0
BITMAP
006400
00F400
019000
1D1D00
1D1D00
000000
F80F80
F80F80
F80F80
F80F80
F80F80
F80F80
F80F80
B80F80
BC0F80
7D1F40
3FFE00
0BF800
ENDCHAR
STARTCHAR uni01D8
ENCODING 472
SWIDTH 600 0
DWIDTH 11 0
BBX 9 16 1 0
BITMAP
006000
00E000
018000
000000
1D2D00
1D2D00
000000
F81F40
F81F40
F81F40
F81F40
F81F40
F81F40
BC2F40
7FFF40
2F8B40
ENDCHAR
STARTCHAR uni01D9
ENCODING 473
SWIDTH 600 0
DWIDTH 11 0
BBX 9 18 1 0
BITMAP
091800
0FB800
03F000
1D1D00
1D1D00
000000
F80F80
F80F80
F80F80
F80F80
F80F80
F80F80
F80F80
B80F80
BC0F80
7D1F40
3FFE00
0BF800
ENDCHAR
STARTCHAR uni01DA
ENCODING 474
SWIDTH 600 0
DWIDTH 11 0
BBX 9 15 1 0
BITMAP
0D6800
07F000
000000
1D2D00
1D2D00
000000
F81F40
F81F40
F81F40
F81F40
F81F40
F81F40
BC2F40
7FFF40
2F8B40
ENDCHAR
STARTCHAR uni01DB
ENCODING 475
SWIDTH 600 0
DWIDTH 11 0
BBX 9 18 1 0
BITMAP
060000
078000
018000
1D1D00
1D1D00
000000
F80F80
F80F80
F80F80
F80F80
F80F80
F80F80
F80F80
B80F80
BC0F80
7D1F40
3FFE00
0BF800
ENDCHAR
STARTCHAR uni01DC
ENCODING 476
SWIDTH 600 0
DWIDTH 11 0
BBX 9 16 1 0
BITMAP
020000
038000
018000
000000
1D2D00
1D2D00
000000
F81F40
F81F40
F81F40
F81F40
F81F40
F81F40
BC2F40
7FFF40
2F8B40
ENDCHAR
STARTCHAR uni01E2
ENCODING 482
SWIDTH 600 0
DWIDTH 11 0
BBX 11 15 0 0
BITMAP
00BFE0
00BFE0
000000
01FFF8
02FFF8
03EF00
07EF00
0BDF00
0F9FF0
1F5FF0
2FFF00
3FFF00
7D1F00
BC1FF8
F81FF8
ENDCHAR
STARTCHAR uni01E3
ENCODING 483
SWIDTH 600 0
DWIDTH 11 0
BBX 11 12 0 0
BITMAP
03FF40
03FF40
000000
2F8BD0
7FFFF0
10B8B4
0AFFF8
3FFFF8
BDB800
B8BD10
7FFFF0
2F4BE0
ENDCHAR
STARTCHAR Gcaron
ENCODING 486
SWIDTH 600 0
DWIDTH 11 0
BBX 10 15 0 0
BITMAP
028280
02EB40
00BE00
01BE40
07FFD0
1F8140
2F0000
3E0000
3E1FF0
7E1FF0
3E02F0
2F02F0
1F82F0
0BFFE0
01BE40
ENDCHAR
STARTCHAR gcaron
ENCODING 487
SWIDTH 600 0
DWIDTH 11 0
BBX 10 18 1 -4
BITMAP
181900
1FBD00
07F400
000000
000000
1BFFD0
3FFFD0
BD2E00
BC2E00
7EBE00
2FF800
794000
BFFE40
3FFFC0
7407D0
F80BC0
FFFF40
2FF900
ENDCHAR
STARTCHAR uni01EA
ENCODING 490
SWIDTH 600 0
DWIDTH 11 0
BBX 10 16 0 -4
BITMAP
02FD00
0FFF80
2F4BD0
3E03E0
7E02F0
7D02F0
7D02F0
3E02F0
3E03E0
2F4BD0
0FFF80
02FD00
00B000
00E000
01FD00
00BD00
ENDCHAR
STARTCHAR uni01EB
ENCODING 491
SWIDTH 600 0
DWIDTH 11 0
BBX 9 13 1 -4
BITMAP
0BF400
3FFE00
BD1F80
F80F80
F80BC0
F80F80
BD1F40
3FFE00
0BF400
028000
038000
07F800
02F400
ENDCHAR
STARTCHAR uni01F4
ENCODING 500
SWIDTH 600 0
DWIDTH 11 0
BBX 10 16 0 0
BITMAP
000600
002F40
00BE00
006400
01BE40
07FFD0
1F8140
2F0000
3E0000
3E1FF0
7E1FF0
3E02F0
2F02F0
1F82F0
0BFFE0
01BE40
ENDCHAR
STARTCHAR uni01F5
ENCODING 501
SWIDTH 600 0
DWIDTH 11 0
BBX 10 19 1 -4
BITMAP
002400
007D00
00FC00
02F000
008000
000000
1BFFD0
3FFFD0
BD2E00
BC2E00
7EBE00
2FF800
794000
BFFE40
3FFFC0
7407D0
F80BC0
FFFF40
2FF900
ENDCHAR
STARTCHAR uni01F8
ENCODING 504
SWIDTH 600 0
DWIDTH 11 0
BBX 9 16 1 0
BITMAP
020000
0BD000
06F400
00A000
BC0F80
BE0F80
BF0F80
BF4F80
BB8F80
BADF80
B9EB80
B8FB80
B8BF80
B83F80
B82F80
B81F80
ENDCHAR
STARTCHAR uni01F9
ENCODING 505
SWIDTH 600 0
DWIDTH 11 0
BBX 9 15 1 0
BITMAP
060000
0F4000
0BD000
02F000
009000
000000
B9BD00
BFFF40
BE1F80
BC0F80
BC0F80
BC0F80
BC0F80
BC0F80
BC0F80
ENDCHAR
STARTCHAR Aringacute
ENCODING 506
SWIDTH 600 0
DWIDTH 11 0
BBX 11 19 0 0
BITMAP
000400
001E00
00B800
01ED00
028D00
00B800
000000
000000
01FC00
02FD00
03EE00
07DF00
0B8F40
0F4B80
1FFFC0
2FFFD0
3D02E0
7D02F0
BC01F4
ENDCHAR
STARTCHAR aringacute
ENCODING 507
SWIDTH 600 0
DWIDTH 11 0
BBX 9 16 1 0
BITMAP
001000
007800
02F400
076C00
0B6C00
02F400
000000
1BF800
7FFF00
241F40
06FF80
7FFF80
BD0F80
F81F80
BFFF80
2F9B80
ENDCHAR
STARTCHAR AEacute
ENCODING 508
SWIDTH 600 0
DWIDTH 11 0
BBX 11 16 0 0
BITMAP
000180
0007D0
002F80
000900
01FFF8
02FFF8
03EF00
07EF00
0BDF00
0F9FF0
1F5FF0
2FFF00
3FFF00
7D1F00
BC1FF8
F81FF8
ENDCHAR
STARTCHAR aeacute
ENCODING 509
SWIDTH 600 0
DWIDTH 11 0
BBX 11 15 0 0
BITMAP
000500
001F40
003F40
00BD00
002000
000000
2F8BD0
7FFFF0
10B8B4
0AFFF8
3FFFF8
BDB800
B8BD10
7FFFF0
2F4BE0
ENDCHAR
STARTCHAR Oslashacute
ENCODING 510
SWIDTH 600 0
DWIDTH 11 0
BBX 11 17 0 -1
BITMAP
000800
007E00
01F900
009010
02FDB4
0FFFE0
2F4BD0
3E0FE0
7E2FF0
7D7AF0
7EF2F0
3FD2F0
3F83E0
2F8BD0
3FFF80
7AFD00
100000
ENDCHAR
STARTCHAR oslashacute
ENCODING 511
SWIDTH 600 0
DWIDTH 11 0
BBX 9 15 1 0
BITMAP
002400
007D00
01FC00
02E000
018000
000000
0BFB40
3FFF00
BD3F40
F8BFC0
F9DBC0
FF4FC0
BE1F80
7FFE00
ABF400
ENDCHAR
STARTCHAR uni0218
ENCODING 536
SWIDTH 600 0
DWIDTH 11 0
BBX 9 17 1 -5
BITMAP
0BF900
2FFF40
7D0A00
BD0000
7F8000
2FF800
07FF40
006F80
000FC0
781F80
BFFF40
1BF800
000000
02D000
00F000
0BF000
079000
ENDCHAR
STARTCHAR uni0219
ENCODING 537
SWIDTH 600 0
DWIDTH 11 0
BBX 9 14 1 -5
BITMAP
0BF900
3FFF40
7D0500
7F9400
1FFE00
016F80
640F80
BFFF40
1BF900
000000
02D000
00F000
07F000
079000
ENDCHAR
STARTCHAR uni021A
ENCODING 538
SWIDTH 600 0
DWIDTH 11 0
BBX 11 17 0 -5
BITMAP
7FFFF4
7FFFF4
00F800
00F800
00F800
00F800
00F800
00F800
00F800
00F800
00F800
00F800
000000
00A400
007C00
02FC00
01E400
ENDCHAR
STARTCHAR uni021B
ENCODING 539
SWIDTH 600 0
DWIDTH 11 0
BBX 9 17 1 -5
BITMAP
078000
0B8000
0B8000
FFFF80
FFFF80
0F8000
0F8000
0F8000
0B8000
0BD000
07FF80
01BF80
000000
007800
002D00
01FC00
01E400
ENDCHAR
STARTCHAR uni0237
ENCODING 567
SWIDTH 600 0
DWIDTH 11 0
BBX 7 13 1 -4
BITMAP
BFF8
BFF8
00F8
00F8
00F8
00F8
00F8
00F8
00F8
00F8
41F4
FFF0
BF80
ENDCHAR
STARTCHAR uni0243
ENCODING 579
SWIDTH 600 0
DWIDTH 11 0
BBX 10 12 0 0
BITMAP
1FFE40
1FFFD0
1F07E0
1F07D0
1FFF40
1FFFD0
1F07E0
BFF2F0
FFF2F0
1F07F0
1FFFD0
1FFE40
ENDCHAR
STARTCHAR uni0250
ENCODING 592
SWIDTH 600 0
DWIDTH 11 0
BBX 9 9 1 0
BITMAP
B9BE00
BFFF40
BE0B80
BC1F80
BFFF40
BFE400
BD0600
3FFF40
0BF900
ENDCHAR
STARTCHAR uni0251
ENCODING 593
SWIDTH 600 0
DWIDTH 11 0
BBX 9 9 1 0
BITMAP
1BDB80
7FFF80
BD2F80
F80F80
F80F80
F80F80
BD2F80
7FFF80
1B9B80
ENDCHAR
STARTCHAR uni0252
ENCODING 594
SWIDTH 600 0
DWIDTH 11 0
BBX 9 9 1 0
BITMAP
B9F900
BFFF00
BD1F80
BC0FC0
BC0BC0
BC0F80
BD1F80
BFFF00
B5F800
ENDCHAR
STARTCHAR uni0253
ENCODING 595
SWIDTH 600 0
DWIDTH 11 0
BBX 9 13 1 0
BITMAP
1BE000
3FF000
7D0000
BC0000
BDF900
BFFF00
BD1F80
BC0FC0
BC0BC0
BC0F80
BD1F80
BFFF00
B5F800
ENDCHAR
STARTCHAR uni0254
ENCODING 596
SWIDTH 600 0
DWIDTH 11 0
BBX 9 9 1 0
BITMAP
6FE400
BFFD00
247F00
001F40
001F80
001F40
607F00
BFFD00
6FE400
ENDCHAR
STARTCHAR uni0255
ENCODING 597
SWIDTH 600 0
DWIDTH 11 0
BBX 9 11 1 -2
BITMAP
06FE00
2FFF40
7E4600
BC0000
B87E40
BEFFC0
7FD7C0
2FFF80
3EFE00
7C0000
280000
ENDCHAR
STARTCHAR uni0256
ENCODING 598
SWIDTH 600 0
DWIDTH 11 0
BBX 10 17 1 -4
BITMAP
001F40
001F40
001F40
001F40
1B9F40
7FFF40
BD2F40
F81F40
F81F40
F81F40
BD2F40
7FFF40
1B9F40
000F40
000F80
000BF0
0002F0
ENDCHAR
STARTCHAR uni0257
ENCODING 599
SWIDTH 600 0
DWIDTH 11 0
BBX 10 13 1 0
BITMAP
0002F0
000BE0
000F80
001F40
1B9F40
7FFF40
BD2F40
F81F40
F81F40
F81F40
BD2F40
7FFF40
1F9F40
ENDCHAR
STARTCHAR uni0258
ENCODING 600
SWIDTH 600 0
DWIDTH 11 0
BBX 9 9 1 0
BITMAP
0BF400
7FFE00
B81F40
FFFF80
FFFF80
000F80
102F40
7FFE00
2FE400
ENDCHAR
STARTCHAR uni0259
ENCODING 601
SWIDTH 600 0
DWIDTH 11 0
BBX 9 9 1 0
BITMAP
1BE400
7FFE00
142F40
000F80
FFFF80
FFFF80
B81F40
7FFE00
0BE400
ENDCHAR
STARTCHAR uni025A
ENCODING 602
SWIDTH 600 0
DWIDTH 11 0
BBX 11 9 0 0
BITMAP
2FD000
7FF980
10BFE0
02FEFC
6FFD78
F93D00
B87C00
7FF800
1BD000
ENDCHAR
STARTCHAR uni025B
ENCODING 603
SWIDTH 600 0
DWIDTH 11 0
BBX 9 9 1 0
BITMAP
1BF900
7FFF40
7E0600
1FF400
2FF400
BD0000
BD0600
7FFF80
1BFE00
ENDCHAR
STARTCHAR uni025C
ENCODING 604
SWIDTH 600 0
DWIDTH 11 0
BBX 9 9 1 0
BITMAP
2FF900
BFFF40
641F40
0BFE00
0BFE00
001F80
641F80
FFFF40
2FF900
ENDCHAR
STARTCHAR uni025E
ENCODING 606
SWIDTH 600 0
DWIDTH 11 0
BBX 9 9 1 0
BITMAP
0BF900
3FFF40
BD1F40
F8BE00
F8BF40
F80F80
BD0F80
7FFF40
0BF900
ENDCHAR
STARTCHAR uni025F
ENCODING 607
SWIDTH 600 0
DWIDTH 11 0
BBX 9 13 1 -4
BITMAP
BFF800
BFF800
00F800
00F800
3FFFC0
3FFFC0
00F800
00F800
00F800
00F800
41F400
FFF000
BF8000
ENDCHAR
STARTCHAR uni0260
ENCODING 608
SWIDTH 600 0
DWIDTH 11 0
BBX 10 16 1 -4
BITMAP
0002F0
000BF0
000F80
0BDF40
3FFF40
BD2F40
F81F40
F81F40
F81F40
BC2F40
7FFF40
1FEF40
001F40
142F40
7FFE00
1BE400
ENDCHAR
STARTCHAR uni0261
ENCODING 609
SWIDTH 600 0
DWIDTH 11 0
BBX 9 13 1 -4
BITMAP
1BDB80
3FFF80
BD2F80
F80F80
F80F80
F80F80
BD2F80
7FFF80
1B9F80
000F40
142F40
7FFE00
2FE400
ENDCHAR
STARTCHAR uni0262
ENCODING 610
SWIDTH 600 0
DWIDTH 11 0
BBX 9 9 1 0
BITMAP
06F900
2FFF40
7E4500
BC0000
BC7F80
BC7F80
7E0B80
2FFF80
06FA00
ENDCHAR
STARTCHAR uni0263
ENCODING 611
SWIDTH 600 0
DWIDTH 11 0
BBX 10 13 0 -4
BITMAP
7D01F0
2E03E0
1F07D0
0F4B80
0B8F40
03DF00
02FE00
01FD00
02FE00
07CF40
07CF40
03FF00
01F900
ENDCHAR
STARTCHAR uni0264
ENCODING 612
SWIDTH 600 0
DWIDTH 11 0
BBX 10 9 0 0
BITMAP
7E47F0
3FFFE0
02FE00
07FF00
0B9F80
0F4BC0
0F8BC0
0BFF80
02FD00
ENDCHAR
STARTCHAR uni0265
ENCODING 613
SWIDTH 600 0
DWIDTH 11 0
BBX 9 13 1 -4
BITMAP
F80F80
F80F80
F80F80
F80F80
F80F80
F81F80
BC2F80
7FFF80
2F9F80
000F80
000F80
000F80
000F80
ENDCHAR
STARTCHAR uni0266
ENCODING 614
SWIDTH 600 0
DWIDTH 11 0
BBX 9 13 1 0
BITMAP
1BE000
3FF000
7D0000
BC0000
BDBD00
BFFF40
BE1F80
BC0F80
BC0F80
BC0F80
BC0F80
BC0F80
BC0F80
ENDCHAR
STARTCHAR uni0267
ENCODING 615
SWIDTH 600 0
DWIDTH 11 0
BBX 9 17 1 -4
BITMAP
1BE000
3FF000
7D0000
BC0000
BDBD00
BFFF40
BE1F80
BC0F80
BC0F80
BC0F80
BC0F80
BC0F80
BC0F80
000F80
001F80
00BF40
00FD00
ENDCHAR
STARTCHAR uni0268
ENCODING 616
SWIDTH 600 0
DWIDTH 11 0
BBX 9 13 1 0
BITMAP
00F400
01FC00
01F400
000000
BFF800
BFF800
00F800
00F800
2FFFC0
3FFFC0
00F800
00F800
00F800
ENDCHAR
STARTCHAR uni026A
ENCODING 618
SWIDTH 600 0
DWIDTH 11 0
BBX 9 9 1 0
BITMAP
BFFF40
BFFF40
03E000
03E000
03E000
03E000
03E000
BFFF40
BFFF40
ENDCHAR
STARTCHAR uni026B
ENCODING 619
SWIDTH 600 0
DWIDTH 11 0
BBX 9 13 1 0
BITMAP
FFD000
FFD000
07D000
07D000
1BD000
BFDB00
FFFF00
97FD00
07D000
07D000
03E000
02FF40
00BF40
ENDCHAR
STARTCHAR uni026C
ENCODING 620
SWIDTH 600 0
DWIDTH 11 0
BBX 10 13 0 0
BITMAP
3FF400
3FF400
01F400
1FF400
3FF400
75F400
3FFF80
1BFF80
01F400
01F400
00F800
00BFD0
002FD0
ENDCHAR
STARTCHAR uni026D
ENCODING 621
SWIDTH 600 0
DWIDTH 11 0
BBX 9 17 1 -4
BITMAP
FFD000
FFD000
07D000
07D000
07D000
07D000
07D000
07D000
07D000
07D000
07D000
07D000
07D000
07D000
03E000
02FF40
00BF40
ENDCHAR
STARTCHAR uni026E
ENCODING 622
SWIDTH 600 0
DWIDTH 11 0
BBX 11 17 0 -4
BITMAP
7D0000
7D0000
7D0000
7D0000
7FFFF4
7FFFF4
7D07E0
7D0F80
7D2F00
7D7F90
7D3FF0
7D01F8
7D00F8
0000F8
0182F4
03FFE0
00BF80
ENDCHAR
STARTCHAR uni026F
ENCODING 623
SWIDTH 600 0
DWIDTH 11 0
BBX 11 9 0 0
BITMAP
BCB5F4
BCB5F4
BCB5F4
BCB5F4
BCB5F4
BCB5F4
7DF6F4
7FFFF4
2E3DF4
ENDCHAR
STARTCHAR uni0270
ENCODING 624
SWIDTH 600 0
DWIDTH 11 0
BBX 11 13 0 -4
BITMAP
BCB5F4
BCB5F4
BCB5F4
BCB5F4
BCB5F4
BCB5F4
7CF6F4
7FFFF4
2E7EF4
0001F4
0001F4
0001F4
0001F4
ENDCHAR
STARTCHAR uni0271
ENCODING 625
SWIDTH 600 0
DWIDTH 11 0
BBX 11 13 0 -4
BITMAP
79E2D0
7FFFF0
7DBDF4
7DB9F4
7CB9F4
7CB9F4
7CB9F4
7CB9F4
7CB9F4
0001F4
0001F4
0007F0
000BD0
ENDCHAR
STARTCHAR uni0272
ENCODING 626
SWIDTH 600 0
DWIDTH 11 0
BBX 10 13 0 -4
BITMAP
2E2F40
2FFFD0
2F87E0
2F43E0
2F03E0
2F03E0
2F03E0
2F03E0
2F03E0
2F0000
2F0000
FE0000
F80000
ENDCHAR
STARTCHAR uni0273
ENCODING 627
SWIDTH 600 0
DWIDTH 11 0
BBX 10 13 1 -4
BITMAP
B9BD00
BFFF00
BE1F40
BC0F80
BC0F80
BC0F80
BC0F80
BC0F80
BC0F80
000F80
000F80
000BF0
0002F0
ENDCHAR
STARTCHAR uni0274
ENCODING 628
SWIDTH 600 0
DWIDTH 11 0
BBX 9 9 1 0
BITMAP
BC0F40
BE0F40
BF4F40
BFCF40
BAEF40
B9FF40
B8BF40
B83F40
B81F40
ENDCHAR
STARTCHAR uni0275
ENCODING 629
SWIDTH 600 0
DWIDTH 11 0
BBX 9 9 1 0
BITMAP
0BF800
3FFE00
B81F80
FFFFC0
FFFFC0
F80BC0
BD1F80
3FFE00
0BF800
ENDCHAR
STARTCHAR uni0276
ENCODING 630
SWIDTH 600 0
DWIDTH 11 0
BBX 11 9 0 0
BITMAP
0BFFF8
2FFFF8
7E2E00
BD2FF0
BC2FF0
BD2E00
7E2E00
2FFFF8
0BFFF8
ENDCHAR
STARTCHAR uni0278
ENCODING 632
SWIDTH 600 0
DWIDTH 11 0
BBX 11 17 0 -4
BITMAP
00B800
00B800
00B800
00B800
07FE40
2FFFD0
3DBAF0
7CB8F4
B8B8F4
7CB8F4
3DBAF0
2FFFD0
07FE40
00B800
00B800
00B800
00B800
ENDCHAR
STARTCHAR uni0279
ENCODING 633
SWIDTH 600 0
DWIDTH 11 0
BBX 8 9 1 0
BITMAP
003E
003E
003E
003E
003E
007E
01FE
BFAE
BE2E
ENDCHAR
STARTCHAR uni027A
ENCODING 634
SWIDTH 600 0
DWIDTH 11 0
BBX 8 13 1 0
BITMAP
003E
003E
003E
003E
003E
003E
003E
003E
003E
007E
01FE
BFAE
BE2E
ENDCHAR
STARTCHAR uni027B
ENCODING 635
SWIDTH 600 0
DWIDTH 11 0
BBX 9 13 1 -4
BITMAP
00B800
00B800
00B800
00B800
00B800
00F800
06F800
BFB800
F9B800
007C00
007C00
003F80
001FC0
ENDCHAR
STARTCHAR uni027D
ENCODING 637
SWIDTH 600 0
DWIDTH 11 0
BBX 8 13 2 -4
BITMAP
F4BE
F7FE
FF40
FD00
F800
F800
F800
F800
F800
F800
BD00
7FF8
1BF8
ENDCHAR
STARTCHAR uni027E
ENCODING 638
SWIDTH 600 0
DWIDTH 11 0
BBX 8 9 2 0
BITMAP
0BFE
3FFE
BE40
BC00
F800
F800
F800
F800
F800
ENDCHAR
STARTCHAR uni0280
ENCODING 640
SWIDTH 600 0
DWIDTH 11 0
BBX 9 9 1 0
BITMAP
BFF900
BFFF40
BC1F80
BC1F40
BFFF00
BFFC00
BC7D00
BC2F40
BC0F80
ENDCHAR
STARTCHAR uni0281
ENCODING 641
SWIDTH 600 0
DWIDTH 11 0
BBX 9 9 1 0
BITMAP
FC1F40
7E1F40
2F5F40
1FFF40
7FFF40
BD1F40
BC1F40
7FFF40
1BFF40
ENDCHAR
STARTCHAR uni0282
ENCODING 642
SWIDTH 600 0
DWIDTH 11 0
BBX 9 13 1 -4
BITMAP
0BF900
3FFF40
7D0500
7F9400
1FFE00
016F80
640F80
FFFF40
FFF900
F40000
F80000
BF0000
2F4000
ENDCHAR
STARTCHAR uni0283
ENCODING 643
SWIDTH 600 0
DWIDTH 11 0
BBX 9 17 1 -4
BITMAP
007F80
01FF80
02F000
03E000
03E000
03E000
03E000
03E000
03E000
03E000
03E000
03E000
03E000
03E000
07E000
BFD000
BE4000
ENDCHAR
STARTCHAR uni0284
ENCODING 644
SWIDTH 600 0
DWIDTH 11 0
BBX 9 17 1 -4
BITMAP
007F80
01FF80
02F000
03E000
03E000
03E000
03E000
7FFF40
BFFF40
03E000
03E000
03E000
03E000
03E000
07E000
BFD000
BE4000
ENDCHAR
STARTCHAR uni0287
ENCODING 647
SWIDTH 600 0
DWIDTH 11 0
BBX 9 12 1 -3
BITMAP
BF9000
FFF000
01F400
00F800
00F800
00F800
00F800
BFFFC0
BFFFC0
00F400
00F400
00F400
ENDCHAR
STARTCHAR uni0288
ENCODING 648
SWIDTH 600 0
DWIDTH 11 0
BBX 9 16 1 -4
BITMAP
078000
0B8000
0B8000
FFFF80
FFFF80
0F8000
0F8000
0F8000
0F8000
0F8000
0F8000
0F8000
0BC000
0BD000
07FF80
01BF80
ENDCHAR
STARTCHAR uni0289
ENCODING 649
SWIDTH 600 0
DWIDTH 11 0
BBX 12 9 -1 0
BITMAP
0BC1F4
0BC1F4
7FFFFE
7FFFFE
0BC1F4
0BC1F4
0BD2F4
07FFF4
02F9F4
ENDCHAR
STARTCHAR uni028A
ENCODING 650
SWIDTH 600 0
DWIDTH 11 0
BBX 10 9 0 0
BITMAP
7F8FF0
7F8FF0
0F47C0
2E03D0
3E02E0
3E03F0
2F47E0
1FFFC0
02FE00
ENDCHAR
STARTCHAR uni028B
ENCODING 651
SWIDTH 600 0
DWIDTH 11 0
BBX 9 9 1 0
BITMAP
F87D00
F87F40
F80F80
F80BC0
F80BC0
FC0F80
BD2F40
3FFE00
0BF800
ENDCHAR
STARTCHAR uni028C
ENCODING 652
SWIDTH 600 0
DWIDTH 11 0
BBX 10 9 0 0
BITMAP
01FC00
02FD00
03EE00
07DF40
0B8F80
1F4BC0
2F07D0
3E03E0
7D02F0
ENDCHAR
STARTCHAR uni028D
ENCODING 653
SWIDTH 600 0
DWIDTH 11 0
BBX 11 9 0 0
BITMAP
2F8FD0
2F8FE0
3FDFE0
3EDEF0
7DEDF0
7CF9F0
B8F9F4
B8A4F4
F800F8
ENDCHAR
STARTCHAR uni028E
ENCODING 654
SWIDTH 600 0
DWIDTH 11 0
BBX 10 13 0 0
BITMAP
000BD0
002FD0
007D00
00B800
01F400
02FC00
03FD00
079E00
0B8F40
0F4B80
2F07C0
3E03E0
7D02F0
ENDCHAR
STARTCHAR uni028F
ENCODING 655
SWIDTH 600 0
DWIDTH 11 0
BBX 9 9 1 0
BITMAP
F80BC0
BC1F40
3E2E00
1F7D00
0FF800
07F400
03E000
03E000
03E000
ENDCHAR
STARTCHAR uni0290
ENCODING 656
SWIDTH 600 0
DWIDTH 11 0
BBX 11 13 1 -4
BITMAP
7FFF80
7FFF40
00BE00
01F800
07F000
0FD000
2F4000
BFFF80
BFFF80
000F80
000F80
0007F0
0002F4
ENDCHAR
STARTCHAR uni0291
ENCODING 657
SWIDTH 600 0
DWIDTH 11 0
BBX 10 11 1 -2
BITMAP
7FFF00
7FFE00
00B800
02F000
07D780
0F9FE0
2F29E0
BFFFD0
BFFE40
00A000
00A000
ENDCHAR
STARTCHAR uni0292
ENCODING 658
SWIDTH 600 0
DWIDTH 11 0
BBX 9 13 1 -4
BITMAP
7FFF40
7FFF00
007D00
01F400
07D000
1FF800
0FFF00
042F40
000F80
000F80
742F40
BFFE00
1BE400
ENDCHAR
STARTCHAR uni0294
ENCODING 660
SWIDTH 600 0
DWIDTH 11 0
BBX 9 13 1 0
BITMAP
1BE400
BFFE00
742F40
001F40
001F40
003F00
01FD00
07F400
07D000
07D000
07D000
07D000
07D000
ENDCHAR
STARTCHAR uni0295
ENCODING 661
SWIDTH 600 0
DWIDTH 11 0
BBX 9 13 1 0
BITMAP
06F900
2FFF80
BE0740
BC0000
BC0000
7E0000
2F9000
0BF000
02F000
02F000
02F000
02F000
02F000
ENDCHAR
STARTCHAR uni0298
ENCODING 664
SWIDTH 600 0
DWIDTH 11 0
BBX 9 13 1 0
BITMAP
0BF400
2FFE00
7D2F40
B80F80
F40B80
F59BC0
F7E7C0
F59BC0
F40B80
B80F80
7D2F40
2FFE00
0BE400
ENDCHAR
STARTCHAR uni0299
ENCODING 665
SWIDTH 600 0
DWIDTH 11 0
BBX 9 9 2 0
BITMAP
FFF800
FFFE00
F82F00
FFFD00
FFFE00
F82F40
F82F40
FFFF00
FFF800
ENDCHAR
STARTCHAR uni029C
ENCODING 668
SWIDTH 600 0
DWIDTH 11 0
BBX 9 9 1 0
BITMAP
BC0F80
BC0F80
BC0F80
BC0F80
BFFF80
BFFF80
BC0F80
BC0F80
BC0F80
ENDCHAR
STARTCHAR uni029D
ENCODING 669
SWIDTH 600 0
DWIDTH 11 0
BBX 10 18 0 -5
BITMAP
003D00
007F00
007D00
000000
2FFE00
2FFE00
003E00
003E00
003E00
003E00
003E00
003E00
1FFE00
7FFE00
787F00
7FFF80
1BE7D0
000240
ENDCHAR
STARTCHAR uni029E
ENCODING 670
SWIDTH 600 0
DWIDTH 11 0
BBX 10 13 0 -4
BITMAP
3E07D0
1F47D0
0B87D0
03EFD0
01FFD0
01FBD0
07E7D0
1F87D0
7E07D0
0007D0
0007D0
0007D0
0007D0
ENDCHAR
STARTCHAR uni029F
ENCODING 671
SWIDTH 600 0
DWIDTH 11 0
BBX 8 9 2 0
BITMAP
B800
B800
B800
B800
B800
B800
B800
BFFE
BFFE
ENDCHAR
STARTCHAR uni02A1
ENCODING 673
SWIDTH 600 0
DWIDTH 11 0
BBX 9 13 1 0
BITMAP
1BE400
BFFE00
742F40
001F40
001F40
003E00
01F800
FFFF80
FFFF80
07D000
07D000
07D000
07D000
ENDCHAR
STARTCHAR uni02A2
ENCODING 674
SWIDTH 600 0
DWIDTH 11 0
BBX 9 13 1 0
BITMAP
0BF900
3FFF80
BE0740
BC0000
BC0000
3E0000
1F9000
FFFF80
FFFF80
02F000
02F000
02F000
02F000
ENDCHAR
STARTCHAR uni02A4
ENCODING 676
SWIDTH 600 0
DWIDTH 11 0
BBX 11 17 0 -4
BITMAP
00F000
00F000
00F000
00F000
2EFFF8
7FFFF8
F9F0F0
F4F2E0
F4F7C0
F4FBE0
F9F7F8
7FF0BC
2EA07C
00007C
0004BC
001FF4
001BD0
ENDCHAR
STARTCHAR uni02A6
ENCODING 678
SWIDTH 600 0
DWIDTH 11 0
BBX 11 12 0 0
BITMAP
0A0000
1F0000
1F0000
BFFFE0
FFFFF4
2F2E10
2F1F80
2F07F0
2F00F4
2F80F8
0FFFF4
02FF90
ENDCHAR
STARTCHAR uni02A7
ENCODING 679
SWIDTH 600 0
DWIDTH 11 0
BBX 12 17 0 -4
BITMAP
00007E
1F01FD
1F02F0
1F03E0
BFFFE0
FFFFE0
2F03E0
2F03E0
2F03E0
2F03E0
2F43E0
1FF3E0
07F3E0
0003E0
0003E0
002FD0
002F40
ENDCHAR
STARTCHAR h.sups
ENCODING 688
SWIDTH 600 0
DWIDTH 11 0
BBX 7 9 2 6
BITMAP
7800
7800
7AE0
7FF4
78B4
7874
7874
7874
1454
ENDCHAR
STARTCHAR j.sups
ENCODING 690
SWIDTH 600 0
DWIDTH 11 0
BBX 5 12 2 4
BITMAP
03C0
03C0
0000
7FC0
7FC0
03C0
03C0
03C0
03C0
03C0
7F80
7E00
ENDCHAR
STARTCHAR r.sups
ENCODING 691
SWIDTH 600 0
DWIDTH 11 0
BBX 5 7 4 6
BITMAP
D780
EF80
F400
E000
E000
E000
5000
ENDCHAR
STARTCHAR w.sups
ENCODING 695
SWIDTH 600 0
DWIDTH 11 0
BBX 10 7 0 6
BITMAP
78B1D0
38F6D0
2DFAC0
2EEB80
1EAF80
0F9F40
0F4F40
ENDCHAR
STARTCHAR y.sups
ENCODING 696
SWIDTH 600 0
DWIDTH 11 0
BBX 7 9 2 4
BITMAP
7474
38B0
2CE0
1ED0
0FC0
0B80
0B40
3F00
3D00
ENDCHAR
STARTCHAR uni02B9
ENCODING 697
SWIDTH 600 0
DWIDTH 11 0
BBX 3 6 4 6
BITMAP
BC
BC
B8
B8
B4
B0
ENDCHAR
STARTCHAR uni02BB
ENCODING 699
SWIDTH 600 0
DWIDTH 11 0
BBX 4 7 3 5
BITMAP
06
1F
78
B4
BE
BF
2E
ENDCHAR
STARTCHAR uni02BC
ENCODING 700
SWIDTH 600 0
DWIDTH 11 0
BBX 5 7 3 5
BITMAP
2E00
7F40
2F40
0740
0F00
3D00
2400
ENDCHAR
STARTCHAR uni02BE
ENCODING 702
SWIDTH 600 0
DWIDTH 11 0
BBX 4 6 4 9
BITMAP
E4
FD
2D
2D
FD
F4
ENDCHAR
STARTCHAR uni02BF
ENCODING 703
SWIDTH 600 0
DWIDTH 11 0
BBX 4 6 3 9
BITMAP
1E
7E
B4
B4
7E
1E
ENDCHAR
STARTCHAR uni02C1
ENCODING 705
SWIDTH 600 0
DWIDTH 11 0
BBX 6 8 2 7
BITMAP
0BD0
3FF0
7850
7800
2D00
0B40
0780
0140
ENDCHAR
STARTCHAR circumflex
ENCODING 710
SWIDTH 600 0
DWIDTH 11 0
BBX 7 3 2 10
BITMAP
1FD0
7EF4
6064
ENDCHAR
STARTCHAR caron
ENCODING 711
SWIDTH 600 0
DWIDTH 11 0
BBX 7 3 2 11
BITMAP
6064
7EF4
1FD0
ENDCHAR
STARTCHAR uni02C8
ENCODING 712
SWIDTH 600 0
DWIDTH 11 0
BBX 3 7 4 7
BITMAP
F8
F8
B8
B4
B4
B4
74
ENDCHAR
STARTCHAR uni02C9
ENCODING 713
SWIDTH 600 0
DWIDTH 11 0
BBX 6 2 2 10
BITMAP
7FF0
7FF0
ENDCHAR
STARTCHAR uni02CA
ENCODING 714
SWIDTH 600 0
DWIDTH 11 0
BBX 5 5 4 10
BITMAP
0900
1F40
7F00
B800
6000
ENDCHAR
STARTCHAR uni02CB
ENCODING 715
SWIDTH 600 0
DWIDTH 11 0
BBX 5 5 2 10
BITMAP
1400
7D00
7F00
1F80
0200
ENDCHAR
STARTCHAR uni02CC
ENCODING 716
SWIDTH 600 0
DWIDTH 11 0
BBX 3 7 4 -5
BITMAP
74
B4
B4
B4
B8
F8
F8
ENDCHAR
STARTCHAR uni02D0
ENCODING 720
SWIDTH 600 0
DWIDTH 11 0
BBX 5 10 3 0
BITMAP
AA40
7F40
2E00
1C00
0000
0000
0800
2D00
7F00
BF80
ENDCHAR
STARTCHAR uni02D1
ENCODING 721
SWIDTH 600 0
DWIDTH 11 0
BBX 5 4 3 6
BITMAP
BF80
7F00
2D00
0800
ENDCHAR
STARTCHAR breve
ENCODING 728
SWIDTH 600 0
DWIDTH 11 0
BBX 7 3 2 10
BITMAP
B474
7FF0
1F90
ENDCHAR
STARTCHAR dotaccent
ENCODING 729
SWIDTH 600 0
DWIDTH 11 0
BBX 4 3 3 10
BITMAP
2E
7F
2E
ENDCHAR
STARTCHAR ring
ENCODING 730
SWIDTH 600 0
DWIDTH 11 0
BBX 5 4 3 10
BITMAP
7E00
E380
E380
7E00
ENDCHAR
STARTCHAR ogonek
ENCODING 731
SWIDTH 600 0
DWIDTH 11 0
BBX 5 4 3 -4
BITMAP
2800
7400
7F40
2E40
ENDCHAR
STARTCHAR tilde
ENCODING 732
SWIDTH 600 0
DWIDTH 11 0
BBX 7 4 2 10
BITMAP
0400
7E38
FBF8
A2E0
ENDCHAR
STARTCHAR hungarumlaut
ENCODING 733
SWIDTH 600 0
DWIDTH 11 0
BBX 7 4 3 10
BITMAP
2864
3CF4
B5E0
A180
ENDCHAR
STARTCHAR uni02DE
ENCODING 734
SWIDTH 600 0
DWIDTH 11 0
BBX 7 5 1 4
BITMAP
0100
2F40
7F80
67F4
01F4
ENDCHAR
STARTCHAR uni02E0
ENCODING 736
SWIDTH 600 0
DWIDTH 11 0
BBX 7 9 2 4
BITMAP
7474
38B0
2CE0
1ED0
0FC0
0E80
1DD0
1FD0
0B80
ENDCHAR
STARTCHAR l.sups
ENCODING 737
SWIDTH 600 0
DWIDTH 11 0
BBX 6 9 3 6
BITMAP
BD00
BD00
2D00
2D00
2D00
2D00
1E00
1FD0
0BD0
ENDCHAR
STARTCHAR s.sups
ENCODING 738
SWIDTH 600 0
DWIDTH 11 0
BBX 6 7 2 6
BITMAP
1BD0
3FF0
2C50
0B90
14B0
7FF0
1FD0
ENDCHAR
STARTCHAR x.sups
ENCODING 739
SWIDTH 600 0
DWIDTH 11 0
BBX 7 6 2 7
BITMAP
78B0
2DE0
0FC0
1F80
2DD0
74B4
ENDCHAR
STARTCHAR uni02E4
ENCODING 740
SWIDTH 600 0
DWIDTH 11 0
BBX 6 9 2 6
BITMAP
0BD0
3FF0
7850
7800
2D00
0B80
0780
0780
0780
ENDCHAR
STARTCHAR uni0300
ENCODING 768
SWIDTH 600 0
DWIDTH 11 0
BBX 5 5 2 10
BITMAP
1400
7D00
7F00
1F80
0200
ENDCHAR
STARTCHAR uni0301
ENCODING 769
SWIDTH 600 0
DWIDTH 11 0
BBX 5 5 4 10
BITMAP
0900
1F40
7F00
B800
6000
ENDCHAR
STARTCHAR uni0302
ENCODING 770
SWIDTH 600 0
DWIDTH 11 0
BBX 7 3 2 10
BITMAP
1FD0
7EF4
6064
ENDCHAR
STARTCHAR uni0303
ENCODING 771
SWIDTH 600 0
DWIDTH 11 0
BBX 7 4 2 10
BITMAP
0400
7E38
FBF8
A2E0
ENDCHAR
STARTCHAR uni0304
ENCODING 772
SWIDTH 600 0
DWIDTH 11 0
BBX 6 2 2 10
BITMAP
7FF0
7FF0
ENDCHAR
STARTCHAR uni0305
ENCODING 773
SWIDTH 600 0
DWIDTH 11 0
BBX 6 2 2 10
BITMAP
7FF0
7FF0
ENDCHAR
STARTCHAR uni0306
ENCODING 774
SWIDTH 600 0
DWIDTH 11 0
BBX 7 3 2 10
BITMAP
B474
7FF0
1F90
ENDCHAR
STARTCHAR uni0307
ENCODING 775
SWIDTH 600 0
DWIDTH 11 0
BBX 4 3 3 10
BITMAP
2E
7F
2E
ENDCHAR
STARTCHAR uni0308
ENCODING 776
SWIDTH 600 0
DWIDTH 11 0
BBX 7 3 2 10
BITMAP
B4B4
F8F8
B4B4
ENDCHAR
STARTCHAR uni0309
ENCODING 777
SWIDTH 600 0
DWIDTH 11 0
BBX 4 4 3 10
BITMAP
39
7F
0F
1D
ENDCHAR
STARTCHAR uni030A
ENCODING 778
SWIDTH 600 0
DWIDTH 11 0
BBX 5 4 3 10
BITMAP
7E00
E380
E380
7E00
ENDCHAR
STARTCHAR uni030B
ENCODING 779
SWIDTH 600 0
DWIDTH 11 0
BBX 7 4 3 10
BITMAP
2864
3CF4
B5E0
A180
ENDCHAR
STARTCHAR uni030C
ENCODING 780
SWIDTH 600 0
DWIDTH 11 0
BBX 7 3 2 11
BITMAP
6064
7EF4
1FD0
ENDCHAR
STARTCHAR uni030F
ENCODING 783
SWIDTH 600 0
DWIDTH 11 0
BBX 7 4 1 10
BITMAP
6590
79F0
2CB4
1924
ENDCHAR
STARTCHAR uni0310
ENCODING 784
SWIDTH 600 0
DWIDTH 11 0
BBX 7 6 2 10
BITMAP
0500
0F80
0F80
B578
7FF4
1F90
ENDCHAR
STARTCHAR uni0311
ENCODING 785
SWIDTH 600 0
DWIDTH 11 0
BBX 7 3 2 10
BITMAP
1F90
7FF0
B474
ENDCHAR
STARTCHAR uni0312
ENCODING 786
SWIDTH 600 0
DWIDTH 11 0
BBX 3 4 4 10
BITMAP
24
A0
F8
78
ENDCHAR
STARTCHAR uni0313
ENCODING 787
SWIDTH 600 0
DWIDTH 11 0
BBX 3 4 4 10
BITMAP
B4
B8
28
A0
ENDCHAR
STARTCHAR uni0318
ENCODING 792
SWIDTH 600 0
DWIDTH 11 0
BBX 5 6 3 -6
BITMAP
0100
0340
7F40
7F40
0340
0100
ENDCHAR
STARTCHAR uni0319
ENCODING 793
SWIDTH 600 0
DWIDTH 11 0
BBX 4 4 3 -5
BITMAP
B0
BF
BF
B0
ENDCHAR
STARTCHAR uni031A
ENCODING 794
SWIDTH 600 0
DWIDTH 11 0
BBX 5 4 3 9
BITMAP
7F40
7F40
0740
0100
ENDCHAR
STARTCHAR uni031B
ENCODING 795
SWIDTH 600 0
DWIDTH 11 0
BBX 4 5 5 7
BITMAP
19
2E
2E
7D
A4
ENDCHAR
STARTCHAR uni031C
ENCODING 796
SWIDTH 600 0
DWIDTH 11 0
BBX 4 4 3 -5
BITMAP
2E
78
78
2E
ENDCHAR
STARTCHAR uni031D
ENCODING 797
SWIDTH 600 0
DWIDTH 11 0
BBX 5 3 3 -4
BITMAP
1C00
FF80
FF80
ENDCHAR
STARTCHAR uni031E
ENCODING 798
SWIDTH 600 0
DWIDTH 11 0
BBX 5 3 3 -5
BITMAP
FF80
FF80
1C00
ENDCHAR
STARTCHAR uni031F
ENCODING 799
SWIDTH 600 0
DWIDTH 11 0
BBX 5 6 3 -6
BITMAP
0400
1C00
FF80
FF80
1C00
0400
ENDCHAR
STARTCHAR uni0320
ENCODING 800
SWIDTH 600 0
DWIDTH 11 0
BBX 5 2 3 -3
BITMAP
FF80
FF80
ENDCHAR
STARTCHAR uni0323
ENCODING 803
SWIDTH 600 0
DWIDTH 11 0
BBX 4 3 3 -5
BITMAP
2E
7F
2E
ENDCHAR
STARTCHAR uni0324
ENCODING 804
SWIDTH 600 0
DWIDTH 11 0
BBX 7 3 2 -4
BITMAP
B4B4
F8F8
B4B4
ENDCHAR
STARTCHAR uni0325
ENCODING 805
SWIDTH 600 0
DWIDTH 11 0
BBX 5 4 3 -5
BITMAP
7E00
E380
E380
7E00
ENDCHAR
STARTCHAR uni0326
ENCODING 806
SWIDTH 600 0
DWIDTH 11 0
BBX 4 4 3 -5
BITMAP
29
1F
BF
79
ENDCHAR
STARTCHAR uni0327
ENCODING 807
SWIDTH 600 0
DWIDTH 11 0
BBX 4 5 3 -5
BITMAP
1C
3E
1F
1F
B8
ENDCHAR
STARTCHAR uni0328
ENCODING 808
SWIDTH 600 0
DWIDTH 11 0
BBX 5 4 3 -4
BITMAP
2800
7400
7F40
2E40
ENDCHAR
STARTCHAR uni0329
ENCODING 809
SWIDTH 600 0
DWIDTH 11 0
BBX 3 4 4 -5
BITMAP
B4
B4
B4
B4
ENDCHAR
STARTCHAR uni032A
ENCODING 810
SWIDTH 600 0
DWIDTH 11 0
BBX 5 4 3 -5
BITMAP
FF80
FF80
D280
4040
ENDCHAR
STARTCHAR uni032C
ENCODING 812
SWIDTH 600 0
DWIDTH 11 0
BBX 7 3 2 -3
BITMAP
6064
7EF4
1FD0
ENDCHAR
STARTCHAR uni032E
ENCODING 814
SWIDTH 600 0
DWIDTH 11 0
BBX 7 3 2 -4
BITMAP
B474
7FF0
1F90
ENDCHAR
STARTCHAR uni032F
ENCODING 815
SWIDTH 600 0
DWIDTH 11 0
BBX 7 3 2 -5
BITMAP
1F90
7FF0
B474
ENDCHAR
STARTCHAR uni0330
ENCODING 816
SWIDTH 600 0
DWIDTH 11 0
BBX 7 4 2 -4
BITMAP
0400
7E38
FBF8
A2E0
ENDCHAR
STARTCHAR uni0331
ENCODING 817
SWIDTH 600 0
DWIDTH 11 0
BBX 6 2 2 -4
BITMAP
7FF0
7FF0
ENDCHAR
STARTCHAR uni0334
ENCODING 820
SWIDTH 600 0
DWIDTH 11 0
BBX 9 4 1 3
BITMAP
040000
7F9740
BBFF40
606E00
ENDCHAR
STARTCHAR uni0339
ENCODING 825
SWIDTH 600 0
DWIDTH 11 0
BBX 3 4 4 -5
BITMAP
B4
2C
2C
B4
ENDCHAR
STARTCHAR uni033A
ENCODING 826
SWIDTH 600 0
DWIDTH 11 0
BBX 5 4 3 -4
BITMAP
4140
D280
FF80
FF80
ENDCHAR
STARTCHAR uni033B
ENCODING 827
SWIDTH 600 0
DWIDTH 11 0
BBX 5 3 3 -4
BITMAP
FF80
D280
FF80
ENDCHAR
STARTCHAR uni033C
ENCODING 828
SWIDTH 600 0
DWIDTH 11 0
BBX 7 3 2 -4
BITMAP
7DF4
FFF8
E768
ENDCHAR
STARTCHAR uni033D
ENCODING 829
SWIDTH 600 0
DWIDTH 11 0
BBX 4 4 3 10
BITMAP
66
2E
7F
11
ENDCHAR
STARTCHAR uni0342
ENCODING 834
SWIDTH 600 0
DWIDTH 11 0
BBX 7 4 2 10
BITMAP
0400
7E38
FBF8
A2E0
ENDCHAR
STARTCHAR uni0345
ENCODING 837
SWIDTH 600 0
DWIDTH 11 0
BBX 4 2 4 -4
BITMAP
BD
7D
ENDCHAR
STARTCHAR uni035F
ENCODING 863
SWIDTH 600 0
DWIDTH 11 0
BBX 19 2 -4 -4
BITMAP
BFFFFFFFF8
BFFFFFFFF8
ENDCHAR
STARTCHAR uni0361
ENCODING 865
SWIDTH 600 0
DWIDTH 11 0
BBX 17 4 -3 10
BITMAP
006FFA4000
1BFFFFF800
BE5001BF40
6000000640
ENDCHAR
STARTCHAR uni0374
ENCODING 884
SWIDTH 600 0
DWIDTH 11 0
BBX 3 5 4 7
BITMAP
BC
BC
B8
B4
B0
ENDCHAR
STARTCHAR uni0375
ENCODING 885
SWIDTH 600 0
DWIDTH 11 0
BBX 4 5 3 0
BITMAP
1E
2E
3D
3D
7D
ENDCHAR
STARTCHAR uni037A
ENCODING 890
SWIDTH 600 0
DWIDTH 11 0
BBX 4 2 4 -4
BITMAP
BD
7D
ENDCHAR
STARTCHAR uni037E
ENCODING 894
SWIDTH 600 0
DWIDTH 11 0
BBX 5 14 3 -4
BITMAP
2E00
BF40
BF40
2E00
0000
0000
2E00
7F40
7F80
2F80
0780
0F40
7E00
7400
ENDCHAR
STARTCHAR tonos
ENCODING 900
SWIDTH 600 0
DWIDTH 11 0
BBX 4 5 4 10
BITMAP
39
3D
7C
78
74
ENDCHAR
STARTCHAR dieresistonos
ENCODING 901
SWIDTH 600 0
DWIDTH 11 0
BBX 7 5 2 10
BITMAP
0380
0380
E778
E778
0600
ENDCHAR
STARTCHAR Alphatonos
ENCODING 902
SWIDTH 600 0
DWIDTH 11 0
BBX 11 12 0 0
BITMAP
78FE00
7CFF00
79FF00
B6EF40
B3DB80
A7C7C0
07C7D0
0BFFD0
0FFFE0
1F42F0
2F01F4
2F01F8
ENDCHAR
STARTCHAR anoteleia
ENCODING 903
SWIDTH 600 0
DWIDTH 11 0
BBX 5 4 3 5
BITMAP
2E00
BF40
BF40
2E00
ENDCHAR
STARTCHAR Epsilontonos
ENCODING 904
SWIDTH 600 0
DWIDTH 11 0
BBX 10 12 0 0
BITMAP
79FFD0
79FFD0
B9F000
B5F000
F1F000
A1FF80
01FF80
01F000
01F000
01F000
01FFE0
01FFE0
ENDCHAR
STARTCHAR Etatonos
ENCODING 905
SWIDTH 600 0
DWIDTH 11 0
BBX 10 12 0 0
BITMAP
79F1F0
79F1F0
B9F1F0
B5F1F0
F1F1F0
A1FFF0
01FFF0
01F1F0
01F1F0
01F1F0
01F1F0
01F1F0
ENDCHAR
STARTCHAR Iotatonos
ENCODING 906
SWIDTH 600 0
DWIDTH 11 0
BBX 10 12 0 0
BITMAP
79FFD0
79FFD0
B82F00
B42F00
F02F00
A02F00
002F00
002F00
002F00
002F00
01FFD0
01FFD0
ENDCHAR
STARTCHAR Omicrontonos
ENCODING 908
SWIDTH 600 0
DWIDTH 11 0
BBX 10 12 0 0
BITMAP
787E40
79FFC0
BAE3E0
B7D2F0
F7D1F0
A7C1F0
07C1F0
07D1F0
03D2F0
02E3E0
01FFC0
007E40
ENDCHAR
STARTCHAR Upsilontonos
ENCODING 910
SWIDTH 600 0
DWIDTH 11 0
BBX 11 12 0 0
BITMAP
39F47C
7CF478
78B8B4
747CF0
B43DE0
B02FD0
001FC0
000F80
000B80
000B80
000B80
000B80
ENDCHAR
STARTCHAR Omegatonos
ENCODING 911
SWIDTH 600 0
DWIDTH 11 0
BBX 11 12 0 0
BITMAP
787E40
79FFC0
BBE3E0
B7D2F0
F7D1F0
A7C1F0
07C1F0
03D2E0
02D2D0
01E3C0
0BF7F4
0BF7F4
ENDCHAR
STARTCHAR iotadieresistonos
ENCODING 912
SWIDTH 600 0
DWIDTH 11 0
BBX 9 15 1 0
BITMAP
01D000
01D000
76DD00
769D00
024000
000000
FFD000
FFD000
07D000
07D000
07D000
07D000
07E000
02FF40
00BF40
ENDCHAR
STARTCHAR Alpha
ENCODING 913
SWIDTH 600 0
DWIDTH 11 0
BBX 11 12 0 0
BITMAP
01FC00
02FD00
03EE00
07DF00
0B8F40
0F4B80
1F4BC0
1FFFD0
2FFFE0
3D02F0
7D02F4
BC01F4
ENDCHAR
STARTCHAR Beta
ENCODING 914
SWIDTH 600 0
DWIDTH 11 0
BBX 9 12 1 0
BITMAP
BFF900
BFFF00
BC1F80
BC0F80
BC1F40
BFFD00
BFFF40
BC0BC0
BC0BC0
BC1FC0
BFFF40
BFF900
ENDCHAR
STARTCHAR Gamma
ENCODING 915
SWIDTH 600 0
DWIDTH 11 0
BBX 8 12 2 0
BITMAP
FFFE
FFFE
F800
F800
F800
F800
F800
F800
F800
F800
F800
F800
ENDCHAR
STARTCHAR uni0394
ENCODING 916
SWIDTH 600 0
DWIDTH 11 0
BBX 11 12 0 0
BITMAP
01FC00
02FD00
03EE00
07DF00
0B8F40
0F8F80
1F4BC0
2F07D0
3E03E0
7E02F0
7FFFF4
7FFFF4
ENDCHAR
STARTCHAR Epsilon
ENCODING 917
SWIDTH 600 0
DWIDTH 11 0
BBX 9 12 1 0
BITMAP
7FFF40
7FFF40
7D0000
7D0000
7D0000
7FFE00
7FFE00
7D0000
7D0000
7D0000
7FFF80
7FFF80
ENDCHAR
STARTCHAR Zeta
ENCODING 918
SWIDTH 600 0
DWIDTH 11 0
BBX 9 12 1 0
BITMAP
7FFF80
7FFF80
002F00
007D00
00F800
02F400
07E000
0FC000
2F4000
7E0000
FFFFC0
FFFFC0
ENDCHAR
STARTCHAR Eta
ENCODING 919
SWIDTH 600 0
DWIDTH 11 0
BBX 9 12 1 0
BITMAP
F80F80
F80F80
F80F80
F80F80
F80F80
FFFF80
FFFF80
F80F80
F80F80
F80F80
F80F80
F80F80
ENDCHAR
STARTCHAR Theta
ENCODING 920
SWIDTH 600 0
DWIDTH 11 0
BBX 10 12 0 0
BITMAP
02FD00
0FFF80
2F4BD0
3E03E0
7E02F0
7DBAF0
7DBAF0
7E02F0
3E03E0
2F4BD0
0BFF80
02FD00
ENDCHAR
STARTCHAR Iota
ENCODING 921
SWIDTH 600 0
DWIDTH 11 0
BBX 9 12 1 0
BITMAP
BFFF40
BFFF40
03E000
03E000
03E000
03E000
03E000
03E000
03E000
03E000
BFFF40
BFFF40
ENDCHAR
STARTCHAR Kappa
ENCODING 922
SWIDTH 600 0
DWIDTH 11 0
BBX 10 12 1 0
BITMAP
BC0FC0
BC2F40
BC7E00
BCF800
BEF000
BFF400
BFF800
BE7D00
BC3E00
BC1F40
BC0FC0
BC07D0
ENDCHAR
STARTCHAR Lambda
ENCODING 923
SWIDTH 600 0
DWIDTH 11 0
BBX 11 12 0 0
BITMAP
01FC00
02FD00
03FE00
07DF00
0B8F40
0B8F80
0F4BC0
1F07D0
2F03D0
3E03E0
7D02F0
BC01F4
ENDCHAR
STARTCHAR Mu
ENCODING 924
SWIDTH 600 0
DWIDTH 11 0
BBX 9 12 1 0
BITMAP
FC0F80
FD1F80
FD2F80
FE3B80
FB7B80
F7B780
F7E780
F6D780
F58780
F40780
F40780
F40780
ENDCHAR
STARTCHAR Nu
ENCODING 925
SWIDTH 600 0
DWIDTH 11 0
BBX 9 12 1 0
BITMAP
BC0F80
BE0F80
BF0F80
BF4F80
BB8F80
BADF80
B9EB80
B8FB80
B8BF80
B83F80
B82F80
B81F80
ENDCHAR
STARTCHAR Xi
ENCODING 926
SWIDTH 600 0
DWIDTH 11 0
BBX 9 12 1 0
BITMAP
BFFF40
BFFF40
000000
000000
000000
2FFD00
2FFD00
000000
000000
000000
BFFF80
BFFF80
ENDCHAR
STARTCHAR Omicron
ENCODING 927
SWIDTH 600 0
DWIDTH 11 0
BBX 10 12 0 0
BITMAP
02FD00
0FFF80
2F4BD0
3E03E0
7E02F0
7D02F0
7D02F0
7E02F0
3E03E0
2F4BD0
0FFF80
02FD00
ENDCHAR
STARTCHAR Pi
ENCODING 928
SWIDTH 600 0
DWIDTH 11 0
BBX 9 12 1 0
BITMAP
FFFF80
FFFF80
F80F80
F80F80
F80F80
F80F80
F80F80
F80F80
F80F80
F80F80
F80F80
F80F80
ENDCHAR
STARTCHAR Rho
ENCODING 929
SWIDTH 600 0
DWIDTH 11 0
BBX 9 12 1 0
BITMAP
BFF900
BFFF40
BC1FC0
BC0BC0
BC0BC0
BC1F80
BFFF40
BFF800
BC0000
BC0000
BC0000
BC0000
ENDCHAR
STARTCHAR Sigma
ENCODING 931
SWIDTH 600 0
DWIDTH 11 0
BBX 9 12 1 0
BITMAP
BFFF40
BFFF40
3F0000
1F8000
07D000
02F400
02F000
07D000
1F8000
3E0000
BFFF80
FFFF80
ENDCHAR
STARTCHAR Tau
ENCODING 932
SWIDTH 600 0
DWIDTH 11 0
BBX 11 12 0 0
BITMAP
7FFFF4
7FFFF4
00F800
00F800
00F800
00F800
00F800
00F800
00F800
00F800
00F800
00F800
ENDCHAR
STARTCHAR Upsilon
ENCODING 933
SWIDTH 600 0
DWIDTH 11 0
BBX 11 12 0 0
BITMAP
7D01F4
3E03E0
2F07D0
0F8BC0
0BCF40
03EF00
02FD00
00FC00
00F800
00F800
00F800
00F800
ENDCHAR
STARTCHAR Phi
ENCODING 934
SWIDTH 600 0
DWIDTH 11 0
BBX 11 12 0 0
BITMAP
00B400
01B900
1FFF80
3FFBF0
BCB5F4
B8B4F4
B8B4F4
BCB5F4
3FFBF0
1FFF80
01B900
00B400
ENDCHAR
STARTCHAR Chi
ENCODING 935
SWIDTH 600 0
DWIDTH 11 0
BBX 11 12 0 0
BITMAP
7E02F0
2F47D0
0F8BC0
0BDF40
03FF00
01FD00
02FD00
07FF00
0BDF40
1F4BC0
2F07E0
7D02F4
ENDCHAR
STARTCHAR Psi
ENCODING 936
SWIDTH 600 0
DWIDTH 11 0
BBX 11 12 0 0
BITMAP
B8B8F4
B8B8F4
B8B8F4
BCB8F4
BCB8F4
7DBAF0
2FFFE0
0AFE40
00B800
00B800
00B800
00B800
ENDCHAR
STARTCHAR uni03A9
ENCODING 937
SWIDTH 600 0
DWIDTH 11 0
BBX 11 12 0 0
BITMAP
02FD00
0FFF80
2F4BD0
3E03E0
7E02F0
7D02F0
7D02F0
3E02E0
2E03D0
0F4780
7F8BF4
7F8FF4
ENDCHAR
STARTCHAR Iotadieresis
ENCODING 938
SWIDTH 600 0
DWIDTH 11 0
BBX 9 15 1 0
BITMAP
2D2D00
3E3E00
2D2D00
BFFF40
BFFF40
03E000
03E000
03E000
03E000
03E000
03E000
03E000
03E000
BFFF40
BFFF40
ENDCHAR
STARTCHAR Upsilondieresis
ENCODING 939
SWIDTH 600 0
DWIDTH 11 0
BBX 11 15 0 0
BITMAP
0B4B40
0F8F80
0B4B40
7D01F4
3E03E0
2F07D0
0F8BC0
0BCF40
03EF00
02FD00
00FC00
00F800
00F800
00F800
00F800
ENDCHAR
STARTCHAR alphatonos
ENCODING 940
SWIDTH 600 0
DWIDTH 11 0
BBX 11 15 0 0
BITMAP
002E00
002E00
002D00
003C00
002800
000000
06E6F0
1FFFE0
3F5FD0
3E0BD0
7D07C0
3E0BC0
3F1FC0
1FFFF4
07E2F4
ENDCHAR
STARTCHAR epsilontonos
ENCODING 941
SWIDTH 600 0
DWIDTH 11 0
BBX 9 15 1 0
BITMAP
007800
00BC00
00B800
00F400
00B000
000000
1BF900
7FFF40
7E0600
1FF400
2FF400
BD0000
BD0600
7FFF80
1BFA00
ENDCHAR
STARTCHAR etatonos
ENCODING 942
SWIDTH 600 0
DWIDTH 11 0
BBX 9 19 1 -4
BITMAP
00A800
00B800
00F400
00F000
00E000
000000
B8BD00
BBFF00
BE1F40
BC0F80
BC0F80
BC0F80
BC0F80
BC0F80
BC0F80
000F80
000F80
000F80
000F80
ENDCHAR
STARTCHAR iotatonos
ENCODING 943
SWIDTH 600 0
DWIDTH 11 0
BBX 9 15 1 0
BITMAP
01E000
02F000
02E000
02D000
02C000
000000
FFD000
FFD000
07D000
07D000
07D000
07D000
07E000
02FF40
00BF40
ENDCHAR
STARTCHAR upsilondieresistonos
ENCODING 944
SWIDTH 600 0
DWIDTH 11 0
BBX 9 15 1 0
BITMAP
00E000
01E000
39DE00
39DE00
028000
000000
F81B00
B81F40
BC0F80
B80F80
B80F80
B80F80
BD2F40
3FFE00
1BF800
ENDCHAR
STARTCHAR alpha
ENCODING 945
SWIDTH 600 0
DWIDTH 11 0
BBX 11 9 0 0
BITMAP
06E6F0
1FFFE0
3F5FD0
3E0BD0
7D07C0
3E0BC0
3F1FC0
1FFFF4
07E2F4
ENDCHAR
STARTCHAR beta
ENCODING 946
SWIDTH 600 0
DWIDTH 11 0
BBX 9 17 1 -4
BITMAP
0BE400
2FFE00
7D2F00
BC1F00
BC7E00
B8FC00
B8FF40
B81F80
B80BC0
B80BC0
BD1F80
BFFF40
B9F900
BC0000
BC0000
BC0000
BC0000
ENDCHAR
STARTCHAR gamma
ENCODING 947
SWIDTH 600 0
DWIDTH 11 0
BBX 10 14 0 -4
BITMAP
140000
7E02F0
2F02E0
1F83D0
0BC7C0
07DB80
03EF00
02FE00
01FC00
01F400
00F800
00F800
00F800
00F800
ENDCHAR
STARTCHAR delta
ENCODING 948
SWIDTH 600 0
DWIDTH 11 0
BBX 9 13 1 0
BITMAP
1BF900
3FFF40
3E0600
2F4000
0FE000
0BFD00
3FBF00
BC1F80
F80B80
F80B80
BD1F80
3FFF00
0BF800
ENDCHAR
STARTCHAR epsilon
ENCODING 949
SWIDTH 600 0
DWIDTH 11 0
BBX 9 9 1 0
BITMAP
1BF900
7FFF40
7E0600
1FF400
2FF400
BD0000
BD0600
7FFF80
1BFA00
ENDCHAR
STARTCHAR zeta
ENCODING 950
SWIDTH 600 0
DWIDTH 11 0
BBX 9 17 1 -4
BITMAP
3FFF40
3FFF40
007E00
01F400
07D000
1F4000
3F0000
7D0000
7D0000
7D0000
3F4000
2FF900
06FF40
001F80
000B40
001F40
000A00
ENDCHAR
STARTCHAR eta
ENCODING 951
SWIDTH 600 0
DWIDTH 11 0
BBX 9 13 1 -4
BITMAP
B8BD00
BBFF00
BE1F40
BC0F80
BC0F80
BC0F80
BC0F80
BC0F80
BC0F80
000F80
000F80
000F80
000F80
ENDCHAR
STARTCHAR theta
ENCODING 952
SWIDTH 600 0
DWIDTH 11 0
BBX 9 13 1 0
BITMAP
0BF400
2FFD00
7D2F00
B80F40
F80B80
FFFF80
FFFF80
F80B80
F80F80
BC0F40
7D2F00
2FFD00
0BE400
ENDCHAR
STARTCHAR iota
ENCODING 953
SWIDTH 600 0
DWIDTH 11 0
BBX 9 9 1 0
BITMAP
FFD000
FFD000
07D000
07D000
07D000
07D000
07E000
02FF40
00BF40
ENDCHAR
STARTCHAR kappa
ENCODING 954
SWIDTH 600 0
DWIDTH 11 0
BBX 10 9 1 0
BITMAP
BC0640
BC2F80
7CBD00
7EF400
7FF400
7FBC00
7D7E00
7C2F40
7C0FD0
ENDCHAR
STARTCHAR lambda
ENCODING 955
SWIDTH 600 0
DWIDTH 11 0
BBX 11 13 0 0
BITMAP
2F8000
2FF000
01F800
00BC00
00BD00
01FE00
02FF00
03EF40
07CB80
0F8BC0
1F47D0
2F03F0
7E02F4
ENDCHAR
STARTCHAR uni03BC
ENCODING 956
SWIDTH 600 0
DWIDTH 11 0
BBX 10 13 1 -4
BITMAP
F81F40
F81F40
F81F40
F81F40
F81F40
F81F40
FC3F40
FFFFD0
FFD7D0
F80000
F80000
F80000
F80000
ENDCHAR
STARTCHAR nu
ENCODING 957
SWIDTH 600 0
DWIDTH 11 0
BBX 10 10 0 0
BITMAP
150000
7E02F0
2F02E0
1F83D0
0BC7C0
07DB80
03EF40
02FF00
01FD00
00F800
ENDCHAR
STARTCHAR xi
ENCODING 958
SWIDTH 600 0
DWIDTH 11 0
BBX 9 17 1 -4
BITMAP
FFFF40
FFFF40
1F8000
2F0000
1F8000
07FE00
0BFE00
3F4000
7D0000
7D0000
7F4000
2FFD00
06FF40
001F80
000B80
001F40
000A00
ENDCHAR
STARTCHAR omicron
ENCODING 959
SWIDTH 600 0
DWIDTH 11 0
BBX 9 9 1 0
BITMAP
0BF400
3FFE00
BD2F40
F80F80
F80FC0
F80F80
BD2F40
3FFE00
0BF400
ENDCHAR
STARTCHAR pi
ENCODING 960
SWIDTH 600 0
DWIDTH 11 0
BBX 11 9 0 0
BITMAP
BFFFF8
BFFFF8
0F47C0
0F47C0
0F47C0
1F47C0
1F47C0
1F47F4
1F41F4
ENDCHAR
STARTCHAR rho
ENCODING 961
SWIDTH 600 0
DWIDTH 11 0
BBX 9 13 1 -4
BITMAP
07F800
2FFF00
7E1F80
BC0FC0
B80BC0
B80F80
BD1F80
BFFF00
BEF800
BC0000
BC0000
BC0000
BC0000
ENDCHAR
STARTCHAR uni03C2
ENCODING 962
SWIDTH 600 0
DWIDTH 11 0
BBX 9 13 1 -4
BITMAP
06FE00
1FFF40
7F4500
BD0000
BC0000
BD0000
7F4000
1FF900
06FF00
001F40
000F40
001F00
001A00
ENDCHAR
STARTCHAR sigma
ENCODING 963
SWIDTH 600 0
DWIDTH 11 0
BBX 10 9 1 0
BITMAP
0BFFD0
7FFFD0
BD3D00
F81F00
F81F40
F81F40
BD2F00
3FFD00
1BE400
ENDCHAR
STARTCHAR tau
ENCODING 964
SWIDTH 600 0
DWIDTH 11 0
BBX 9 9 1 0
BITMAP
FFFFC0
FFFFC0
03E000
03E000
03E000
03E000
03E000
02FF00
00BE00
ENDCHAR
STARTCHAR upsilon
ENCODING 965
SWIDTH 600 0
DWIDTH 11 0
BBX 9 9 1 0
BITMAP
F81B00
B81F40
BC0F80
B80F80
B80F80
B80F80
BD2F40
3FFE00
1BF800
ENDCHAR
STARTCHAR phi
ENCODING 966
SWIDTH 600 0
DWIDTH 11 0
BBX 11 15 0 -4
BITMAP
00B800
00B800
07FE40
2FFFD0
3DBAF0
7CB8F4
B8B8F4
7CB8F4
3DBAF0
2FFFD0
07FE40
00B800
00B800
00B800
00B800
ENDCHAR
STARTCHAR chi
ENCODING 967
SWIDTH 600 0
DWIDTH 11 0
BBX 10 13 1 -4
BITMAP
F80F80
7D2F40
2F7E00
1FFC00
0BF800
03F000
03F000
0BF800
0FFC00
2FBE00
3F2F00
BD1F80
F80BD0
ENDCHAR
STARTCHAR psi
ENCODING 968
SWIDTH 600 0
DWIDTH 11 0
BBX 11 15 0 -4
BITMAP
00B800
00B800
B8B9B0
BCB9F0
7CB8F4
7CB8F4
7CB8F4
7CB8F4
7DBAF0
2FFFE0
0BFF40
00B800
00B800
00B800
00B800
ENDCHAR
STARTCHAR omega
ENCODING 969
SWIDTH 600 0
DWIDTH 11 0
BBX 11 9 0 0
BITMAP
190190
3E03E0
7D01F0
BCB5F4
BCB5F4
BCB5F4
7CB6F0
3FFFE0
1B8B80
ENDCHAR
STARTCHAR iotadieresis
ENCODING 970
SWIDTH 600 0
DWIDTH 11 0
BBX 9 13 1 0
BITMAP
3C3C00
7D7D00
3C3C00
000000
FFD000
FFD000
07D000
07D000
07D000
07D000
07E000
02FF40
00BF40
ENDCHAR
STARTCHAR upsilondieresis
ENCODING 971
SWIDTH 600 0
DWIDTH 11 0
BBX 9 13 1 0
BITMAP
2D2D00
3E3E00
2D2D00
000000
F81B00
B81F40
BC0F80
B80F80
B80F80
B80F80
BD2F40
3FFE00
1BF800
ENDCHAR
STARTCHAR omicrontonos
ENCODING 972
SWIDTH 600 0
DWIDTH 11 0
BBX 9 15 1 0
BITMAP
00E400
00F400
01F000
01E000
01D000
000000
0BF400
3FFE00
BD2F40
F80F80
F80FC0
F80F80
BD2F40
3FFE00
0BF400
ENDCHAR
STARTCHAR upsilontonos
ENCODING 973
SWIDTH 600 0
DWIDTH 11 0
BBX 9 15 1 0
BITMAP
00E400
01F000
01F000
02E000
02D000
000000
F81B00
B81F40
BC0F80
B80F80
B80F80
B80F80
BD2F40
3FFE00
1BF800
ENDCHAR
STARTCHAR omegatonos
ENCODING 974
SWIDTH 600 0
DWIDTH 11 0
BBX 11 15 0 0
BITMAP
003900
003D00
007C00
007800
007400
000000
190190
3E03E0
7D01F0
BCB5F4
BCB5F4
BCB5F4
7CB6F0
3FFFE0
1B8B80
ENDCHAR
STARTCHAR uni03D0
ENCODING 976
SWIDTH 600 0
DWIDTH 11 0
BBX 9 13 1 0
BITMAP
0BE400
3FFE00
7D2F00
BC1F00
BC2E00
BEFC00
BFFE00
BD1F80
B80BC0
BC0BC0
7E1F80
2FFF40
06F900
ENDCHAR
STARTCHAR uni03D1
ENCODING 977
SWIDTH 600 0
DWIDTH 11 0
BBX 9 13 1 0
BITMAP
1BE400
7FFD00
B82F00
F40F40
BD0F80
7FFF80
1BFF80
540B80
BC0F80
BC0F40
7D2F00
3FFE00
0BF400
ENDCHAR
STARTCHAR uni03D5
ENCODING 981
SWIDTH 600 0
DWIDTH 11 0
BBX 11 15 0 -4
BITMAP
00B800
00B800
07FE40
2FFFD0
3DBAF0
7CB8F4
B8B8F4
7CB8F4
3DBAF0
2FFFD0
07FE40
00B800
00B800
00B800
00B800
ENDCHAR
STARTCHAR uni03D7
ENCODING 983
SWIDTH 600 0
DWIDTH 11 0
BBX 10 12 1 -3
BITMAP
BC0640
BC2F80
7CBD00
7EF400
7FF400
7FBC00
7D7E00
7C2F40
7C0BD0
000BC0
002F40
007E00
ENDCHAR
STARTCHAR uni03D9
ENCODING 985
SWIDTH 600 0
DWIDTH 11 0
BBX 9 13 1 -4
BITMAP
0BF400
3FFE00
BD1F40
F80F80
F80BC0
F80F80
BD1F80
7FFF00
1BF800
02E000
02E000
02E000
02F000
ENDCHAR
STARTCHAR uni03DB
ENCODING 987
SWIDTH 600 0
DWIDTH 11 0
BBX 9 13 1 -4
BITMAP
06FF80
2FFF80
7F4000
BD0000
BC0000
BD0000
7F4000
1FF900
06FF00
001F40
000F40
001F00
001A00
ENDCHAR
STARTCHAR uni03DD
ENCODING 989
SWIDTH 600 0
DWIDTH 11 0
BBX 8 13 2 -4
BITMAP
FFFD
FFFD
F800
F800
F954
FFFC
FEA8
F800
F800
F800
F800
F800
F800
ENDCHAR
STARTCHAR uni03E1
ENCODING 993
SWIDTH 600 0
DWIDTH 11 0
BBX 9 16 1 -3
BITMAP
090000
2F4000
1FD000
07F400
01FC00
02FD00
6FFF00
FF6F40
B41F80
00BF80
1BFFC0
1FDBC0
090BC0
000BC0
000B80
000A80
ENDCHAR
STARTCHAR uni0400
ENCODING 1024
SWIDTH 600 0
DWIDTH 11 0
BBX 9 16 1 0
BITMAP
024000
0BD000
02F400
006000
7FFF40
7FFF40
7D0000
7D0000
7D0000
7FFE00
7FFE00
7D0000
7D0000
7D0000
7FFF80
7FFF80
ENDCHAR
STARTCHAR uni0401
ENCODING 1025
SWIDTH 600 0
DWIDTH 11 0
BBX 9 15 1 0
BITMAP
1E1E00
1F1F00
1E1E00
7FFF40
7FFF40
7D0000
7D0000
7D0000
7FFE00
7FFE00
7D0000
7D0000
7D0000
7FFF80
7FFF80
ENDCHAR
STARTCHAR uni0402
ENCODING 1026
SWIDTH 600 0
DWIDTH 11 0
BBX 11 12 0 0
BITMAP
BFFF40
BFFF40
03D000
03D000
03FF80
03FFE0
03E2F0
03D1F4
03D1F4
03D1F0
03D7E0
03DB90
ENDCHAR
STARTCHAR uni0403
ENCODING 1027
SWIDTH 600 0
DWIDTH 11 0
BBX 8 16 2 0
BITMAP
0080
07E0
1F90
0900
FFFE
FFFE
F800
F800
F800
F800
F800
F800
F800
F800
F800
F800
ENDCHAR
STARTCHAR uni0404
ENCODING 1028
SWIDTH 600 0
DWIDTH 11 0
BBX 9 12 1 0
BITMAP
06FE00
1FFF80
3F4600
BD0000
FC0000
FFF800
FFF800
F80000
BC0000
7E4640
1FFFC0
06FE00
ENDCHAR
STARTCHAR uni0405
ENCODING 1029
SWIDTH 600 0
DWIDTH 11 0
BBX 9 12 1 0
BITMAP
0BF900
2FFF40
7D0A00
BD0000
7F8000
2FF800
07FF40
006F80
000FC0
781F80
BFFF40
1BF800
ENDCHAR
STARTCHAR uni0406
ENCODING 1030
SWIDTH 600 0
DWIDTH 11 0
BBX 9 12 1 0
BITMAP
BFFF40
BFFF40
03E000
03E000
03E000
03E000
03E000
03E000
03E000
03E000
BFFF40
BFFF40
ENDCHAR
STARTCHAR uni0407
ENCODING 1031
SWIDTH 600 0
DWIDTH 11 0
BBX 9 15 1 0
BITMAP
2D2D00
3E3E00
2D2D00
BFFF40
BFFF40
03E000
03E000
03E000
03E000
03E000
03E000
03E000
03E000
BFFF40
BFFF40
ENDCHAR
STARTCHAR uni0408
ENCODING 1032
SWIDTH 600 0
DWIDTH 11 0
BBX 9 12 1 0
BITMAP
3FFF40
3FFF40
001F40
001F40
001F40
001F40
001F40
001F40
001F40
742F00
BFFD00
1BE400
ENDCHAR
STARTCHAR uni0409
ENCODING 1033
SWIDTH 600 0
DWIDTH 11 0
BBX 11 12 0 0
BITMAP
1FFC00
1FFC00
1E7C00
1E7C00
2E7F80
2E7FF0
2D7CF4
2D7CB4
3D7CB4
3C7CF4
F87FE0
F47F80
ENDCHAR
STARTCHAR uni040A
ENCODING 1034
SWIDTH 600 0
DWIDTH 11 0
BBX 11 12 0 0
BITMAP
7CB800
7CB800
7CB800
7CB800
7CB800
7FFF90
7FFFF0
7CB8F4
7CB8B4
7CB8F4
7CBFF0
7CBF80
ENDCHAR
STARTCHAR uni040B
ENCODING 1035
SWIDTH 600 0
DWIDTH 11 0
BBX 11 12 0 0
BITMAP
BFFF40
BFFF40
03D000
03D000
03D000
03FF80
03FFE0
03E2F0
03D1F4
03D1F4
03D1F4
03D1F4
ENDCHAR
STARTCHAR uni040C
ENCODING 1036
SWIDTH 600 0
DWIDTH 11 0
BBX 10 16 1 0
BITMAP
001400
00BD00
02F400
018000
BC07D0
BC1FC0
BC3E00
BC7C00
BCB800
BFF400
BFF400
BCBC00
BC7E00
BC2F40
BC0F80
BC07D0
ENDCHAR
STARTCHAR uni040D
ENCODING 1037
SWIDTH 600 0
DWIDTH 11 0
BBX 9 16 1 0
BITMAP
060000
0FC000
07F000
00A000
F81F80
F82F80
F87F80
F8BF80
F8FB80
F6EB80
F7DB80
FBCB80
FF4B80
FF0B80
FE0B80
FC0B80
ENDCHAR
STARTCHAR uni040E
ENCODING 1038
SWIDTH 600 0
DWIDTH 11 0
BBX 11 15 0 0
BITMAP
0B8B80
02FE00
000000
7D01F4
3E02F0
1F43D0
0F87C0
0BCB80
03DF40
02FF00
00FD00
00BC00
00F800
0FF000
0F9000
ENDCHAR
STARTCHAR uni040F
ENCODING 1039
SWIDTH 600 0
DWIDTH 11 0
BBX 9 16 1 -4
BITMAP
F80F80
F80F80
F80F80
F80F80
F80F80
F80F80
F80F80
F80F80
F80F80
F80F80
FFFF80
FFFF80
02E000
02E000
02E000
02E000
ENDCHAR
STARTCHAR uni0410
ENCODING 1040
SWIDTH 600 0
DWIDTH 11 0
BBX 11 12 0 0
BITMAP
01FC00
02FD00
03EE00
07DF00
0B8F40
0F4B80
1F4BC0
1FFFD0
2FFFE0
3D02F0
7D02F4
BC01F4
ENDCHAR
STARTCHAR uni0411
ENCODING 1041
SWIDTH 600 0
DWIDTH 11 0
BBX 9 12 1 0
BITMAP
BFFF40
BFFF40
BC0000
BC0000
BC0000
BFF900
BFFF40
BC0BC0
BC0BC0
BC0FC0
BFFF40
BFF900
ENDCHAR
STARTCHAR uni0412
ENCODING 1042
SWIDTH 600 0
DWIDTH 11 0
BBX 9 12 1 0
BITMAP
BFF900
BFFF00
BC1F80
BC0F80
BC1F40
BFFD00
BFFF40
BC0BC0
BC0BC0
BC1FC0
BFFF40
BFF900
ENDCHAR
STARTCHAR uni0413
ENCODING 1043
SWIDTH 600 0
DWIDTH 11 0
BBX 8 12 2 0
BITMAP
FFFE
FFFE
F800
F800
F800
F800
F800
F800
F800
F800
F800
F800
ENDCHAR
STARTCHAR uni0414
ENCODING 1044
SWIDTH 600 0
DWIDTH 11 0
BBX 11 16 0 -4
BITMAP
03FFC0
07FFC0
07C7C0
0B87C0
0B87C0
0F87C0
0F47C0
1F47C0
1F07C0
3E07C0
BFFFF8
BFFFF8
B800F8
B800F4
B800F4
B800F4
ENDCHAR
STARTCHAR uni0415
ENCODING 1045
SWIDTH 600 0
DWIDTH 11 0
BBX 9 12 1 0
BITMAP
7FFF40
7FFF40
7D0000
7D0000
7D0000
7FFE00
7FFE00
7D0000
7D0000
7D0000
7FFF80
7FFF80
ENDCHAR
STARTCHAR uni0416
ENCODING 1046
SWIDTH 600 0
DWIDTH 11 0
BBX 11 12 0 0
BITMAP
F4B478
BCB5F4
2DB5D0
1EB6C0
1EBBC0
0FFF80
1FFFC0
2EB6D0
3DB6E0
3CB5F0
78B4F4
B8B4B8
ENDCHAR
STARTCHAR uni0417
ENCODING 1047
SWIDTH 600 0
DWIDTH 11 0
BBX 9 12 1 0
BITMAP
1BF800
BFFF00
242F40
001F40
002F00
07FD00
07FF40
001F80
000BC0
741F80
FFFF40
1BF900
ENDCHAR
STARTCHAR uni0418
ENCODING 1048
SWIDTH 600 0
DWIDTH 11 0
BBX 9 12 1 0
BITMAP
F81F80
F82F80
F87F80
F8BF80
F8FB80
F6EB80
F7DB80
FBCB80
FF4B80
FF0B80
FE0B80
FC0B80
ENDCHAR
STARTCHAR uni0419
ENCODING 1049
SWIDTH 600 0
DWIDTH 11 0
BBX 9 15 1 0
BITMAP
2E2E00
0BF800
000000
F81F80
F82F80
F87F80
F8BF80
F8FB80
F6EB80
F7DB80
FBCB80
FF4B80
FF0B80
FE0B80
FC0B80
ENDCHAR
STARTCHAR uni041A
ENCODING 1050
SWIDTH 600 0
DWIDTH 11 0
BBX 10 12 1 0
BITMAP
BC07D0
BC1FC0
BC3E00
BC7C00
BCB800
BFF400
BFF400
BCBC00
BC7E00
BC2F40
BC0F80
BC07D0
ENDCHAR
STARTCHAR uni041B
ENCODING 1051
SWIDTH 600 0
DWIDTH 11 0
BBX 10 12 0 0
BITMAP
02FFE0
03FFE0
03D3E0
07D3E0
07C3E0
0BC3E0
0B83E0
0F83E0
0F43E0
2F03E0
BE03E0
F803E0
ENDCHAR
STARTCHAR uni041C
ENCODING 1052
SWIDTH 600 0
DWIDTH 11 0
BBX 9 12 1 0
BITMAP
FC0F80
FD1F80
FD2F80
FE3B80
FB7B80
F7B780
F7E780
F6D780
F58780
F40780
F40780
F40780
ENDCHAR
STARTCHAR uni041D
ENCODING 1053
SWIDTH 600 0
DWIDTH 11 0
BBX 9 12 1 0
BITMAP
F80F80
F80F80
F80F80
F80F80
F80F80
FFFF80
FFFF80
F80F80
F80F80
F80F80
F80F80
F80F80
ENDCHAR
STARTCHAR uni041E
ENCODING 1054
SWIDTH 600 0
DWIDTH 11 0
BBX 10 12 0 0
BITMAP
02FD00
0FFF80
2F4BD0
3E03E0
7E02F0
7D02F0
7D02F0
7E02F0
3E03E0
2F4BD0
0FFF80
02FD00
ENDCHAR
STARTCHAR uni041F
ENCODING 1055
SWIDTH 600 0
DWIDTH 11 0
BBX 9 12 1 0
BITMAP
FFFF80
FFFF80
F80F80
F80F80
F80F80
F80F80
F80F80
F80F80
F80F80
F80F80
F80F80
F80F80
ENDCHAR
STARTCHAR uni0420
ENCODING 1056
SWIDTH 600 0
DWIDTH 11 0
BBX 9 12 1 0
BITMAP
BFF900
BFFF40
BC1FC0
BC0BC0
BC0BC0
BC1F80
BFFF40
BFF800
BC0000
BC0000
BC0000
BC0000
ENDCHAR
STARTCHAR uni0421
ENCODING 1057
SWIDTH 600 0
DWIDTH 11 0
BBX 9 12 1 0
BITMAP
02FE00
1FFF80
3F4600
BD0000
FC0000
F80000
F80000
FC0000
BD0000
3F4240
1FFFC0
06FE00
ENDCHAR
STARTCHAR uni0422
ENCODING 1058
SWIDTH 600 0
DWIDTH 11 0
BBX 11 12 0 0
BITMAP
7FFFF4
7FFFF4
00F800
00F800
00F800
00F800
00F800
00F800
00F800
00F800
00F800
00F800
ENDCHAR
STARTCHAR uni0423
ENCODING 1059
SWIDTH 600 0
DWIDTH 11 0
BBX 11 12 0 0
BITMAP
7D01F4
3E02F0
1F43D0
0F87C0
0BCB80
03DF40
02FF00
00FD00
00BC00
00F800
0FF000
0F9000
ENDCHAR
STARTCHAR uni0424
ENCODING 1060
SWIDTH 600 0
DWIDTH 11 0
BBX 11 12 0 0
BITMAP
00B400
00B400
0AFE40
3FFFE0
7DB5F4
B8B4F4
B8B4F4
7DB5F4
3FFFE0
0AFE40
00B400
00B400
ENDCHAR
STARTCHAR uni0425
ENCODING 1061
SWIDTH 600 0
DWIDTH 11 0
BBX 11 12 0 0
BITMAP
7E02F0
2F47D0
0F8BC0
0BDF40
03FF00
01FD00
02FD00
07FF00
0BDF40
1F4BC0
2F07E0
7D02F4
ENDCHAR
STARTCHAR uni0426
ENCODING 1062
SWIDTH 600 0
DWIDTH 11 0
BBX 10 16 1 -4
BITMAP
F80F80
F80F80
F80F80
F80F80
F80F80
F80F80
F80F80
F80F80
F80F80
F80F80
FFFFF0
FFFFF0
0002F0
0002E0
0002E0
0002E0
ENDCHAR
STARTCHAR uni0427
ENCODING 1063
SWIDTH 600 0
DWIDTH 11 0
BBX 10 12 0 0
BITMAP
7D03E0
7D03E0
7D03E0
3D03E0
3F43E0
1FFFE0
06FFE0
0003E0
0003E0
0003E0
0003E0
0003E0
ENDCHAR
STARTCHAR uni0428
ENCODING 1064
SWIDTH 600 0
DWIDTH 11 0
BBX 11 12 0 0
BITMAP
7CB4F4
7CB4F4
7CB4F4
7CB4F4
7CB4F4
7CB4F4
7CB4F4
7CB4F4
7CB4F4
7CB4F4
7FFFF4
7FFFF4
ENDCHAR
STARTCHAR uni0429
ENCODING 1065
SWIDTH 600 0
DWIDTH 11 0
BBX 11 16 0 -4
BITMAP
78F5F0
78F5F0
78F5F0
78F5F0
78F5F0
78F5F0
78F5F0
78F5F0
78F5F0
78F5F0
7FFFFC
7FFFFC
00007C
000078
000078
000078
ENDCHAR
STARTCHAR uni042A
ENCODING 1066
SWIDTH 600 0
DWIDTH 11 0
BBX 11 12 0 0
BITMAP
BFE000
BFE000
03E000
03E000
03E000
03FE40
03FFE0
03E2F0
03E1F4
03E2F0
03FFE0
03FF40
ENDCHAR
STARTCHAR uni042B
ENCODING 1067
SWIDTH 600 0
DWIDTH 11 0
BBX 11 12 0 0
BITMAP
7C01F4
7C01F4
7C01F4
7C01F4
7C01F4
7F91F4
7FF5F4
7CB9F4
7C7DF4
7CB9F4
7FF5F4
7F91F4
ENDCHAR
STARTCHAR uni042C
ENCODING 1068
SWIDTH 600 0
DWIDTH 11 0
BBX 9 12 1 0
BITMAP
BC0000
BC0000
BC0000
BC0000
BC0000
BFF900
BFFF80
BC1FC0
BC0BC0
BC1FC0
BFFF40
BFF900
ENDCHAR
STARTCHAR uni042D
ENCODING 1069
SWIDTH 600 0
DWIDTH 11 0
BBX 10 12 0 0
BITMAP
1BF800
3FFF40
181FC0
0007D0
0003E0
03FFE0
03FFE0
0003E0
0007D0
281FC0
7FFF40
1BF900
ENDCHAR
STARTCHAR uni042E
ENCODING 1070
SWIDTH 600 0
DWIDTH 11 0
BBX 11 12 0 0
BITMAP
7C1F80
7C7FE0
7CB6F0
7CF1F4
7CF0F4
7FF0F4
7FF0F4
7CF0F4
7CF1F4
7CB6F0
7C7FE0
7C1F80
ENDCHAR
STARTCHAR uni042F
ENCODING 1071
SWIDTH 600 0
DWIDTH 11 0
BBX 10 12 0 0
BITMAP
06FFE0
1FFFE0
3F43E0
3D03E0
3E03E0
3F43E0
1FFFE0
07FFE0
0BD3E0
1F83E0
3F03E0
BD03E0
ENDCHAR
STARTCHAR uni0430
ENCODING 1072
SWIDTH 600 0
DWIDTH 11 0
BBX 9 9 1 0
BITMAP
1BF800
7FFF00
241F40
06FF80
7FFF80
BD0F80
F81F80
BFFF80
2F9B80
ENDCHAR
STARTCHAR uni0431
ENCODING 1073
SWIDTH 600 0
DWIDTH 11 0
BBX 9 13 1 0
BITMAP
005B00
07FF40
2FF900
7E4000
BC0000
BAF900
FFFF00
FD1F80
F80F80
B80F80
7D1F40
2FFE00
0BF800
ENDCHAR
STARTCHAR uni0432
ENCODING 1074
SWIDTH 600 0
DWIDTH 11 0
BBX 9 9 1 0
BITMAP
7FF900
7FFF40
7C1F40
7FFE00
7FFF40
7C0F80
7C0F80
7FFF40
7FF900
ENDCHAR
STARTCHAR uni0433
ENCODING 1075
SWIDTH 600 0
DWIDTH 11 0
BBX 8 9 2 0
BITMAP
FFFD
FFFD
F800
F800
F800
F800
F800
F800
F800
ENDCHAR
STARTCHAR uni0434
ENCODING 1076
SWIDTH 600 0
DWIDTH 11 0
BBX 11 13 0 -4
BITMAP
0BFFC0
0FFFC0
0F4BC0
0F4BC0
1F0BC0
1F0BC0
2E0BC0
BFFFF4
BFFFF4
BC00F4
BC00F4
BC00F4
7C00F4
ENDCHAR
STARTCHAR uni0435
ENCODING 1077
SWIDTH 600 0
DWIDTH 11 0
BBX 9 9 1 0
BITMAP
0BF800
2FFF00
BD0B80
FFFF80
FFFF80
F80000
BE0500
2FFF40
06F900
ENDCHAR
STARTCHAR uni0436
ENCODING 1078
SWIDTH 600 0
DWIDTH 11 0
BBX 11 9 0 0
BITMAP
B4B4B8
BDB5F4
1EB7D0
0FFFC0
1FFFC0
2DB6D0
3DB5E0
7CB4F4
B8B4B8
ENDCHAR
STARTCHAR uni0437
ENCODING 1079
SWIDTH 600 0
DWIDTH 11 0
BBX 9 9 1 0
BITMAP
2FF900
BFFF40
641F40
0BFE00
0BFE00
001F80
641F80
FFFF40
2FF900
ENDCHAR
STARTCHAR uni0438
ENCODING 1080
SWIDTH 600 0
DWIDTH 11 0
BBX 9 9 1 0
BITMAP
BC1F40
BC2F40
BC7F40
B8FF40
BADF40
BFCF40
BF4F40
BE0F40
BC0F40
ENDCHAR
STARTCHAR uni0439
ENCODING 1081
SWIDTH 600 0
DWIDTH 11 0
BBX 9 12 1 0
BITMAP
1F1E00
07F800
000000
BC1F40
BC2F40
BC7F40
B8FF40
BADF40
BFCF40
BF4F40
BE0F40
BC0F40
ENDCHAR
STARTCHAR uni043A
ENCODING 1082
SWIDTH 600 0
DWIDTH 11 0
BBX 10 9 1 0
BITMAP
BC0B80
BC2F80
BC7D00
BFF800
BFF800
BC7D00
BC2F00
BC1F80
BC0BD0
ENDCHAR
STARTCHAR uni043B
ENCODING 1083
SWIDTH 600 0
DWIDTH 11 0
BBX 10 9 0 0
BITMAP
07FFD0
07FFD0
0B87D0
0B87D0
0B87D0
0F47D0
1F07D0
7E07D0
B807D0
ENDCHAR
STARTCHAR uni043C
ENCODING 1084
SWIDTH 600 0
DWIDTH 11 0
BBX 10 9 0 0
BITMAP
7F03F0
7F47F0
7F8BF0
7BCEF0
7EEDF0
7DFDF0
7CF9F0
7CB5F0
7C11F0
ENDCHAR
STARTCHAR uni043D
ENCODING 1085
SWIDTH 600 0
DWIDTH 11 0
BBX 9 9 1 0
BITMAP
BC0F80
BC0F80
BC0F80
BC0F80
BFFF80
BFFF80
BC0F80
BC0F80
BC0F80
ENDCHAR
STARTCHAR uni043E
ENCODING 1086
SWIDTH 600 0
DWIDTH 11 0
BBX 9 9 1 0
BITMAP
0BF400
3FFE00
BD1F80
F80FC0
F80BC0
F80FC0
BD1F80
3FFE00
0BF400
ENDCHAR
STARTCHAR uni043F
ENCODING 1087
SWIDTH 600 0
DWIDTH 11 0
BBX 9 9 1 0
BITMAP
BFFF80
BFFF80
BC0F80
BC0F80
BC0F80
BC0F80
BC0F80
BC0F80
BC0F80
ENDCHAR
STARTCHAR uni0440
ENCODING 1088
SWIDTH 600 0
DWIDTH 11 0
BBX 9 13 1 -4
BITMAP
B9F900
BFFF00
BE1F80
BC0FC0
BC0BC0
BC0F80
BD1F80
BFFF00
BDF800
BC0000
BC0000
BC0000
BC0000
ENDCHAR
STARTCHAR uni0441
ENCODING 1089
SWIDTH 600 0
DWIDTH 11 0
BBX 9 9 1 0
BITMAP
06FE00
2FFF40
7E4500
BC0000
BC0000
BC0000
7E4600
2FFF80
06FE00
ENDCHAR
STARTCHAR uni0442
ENCODING 1090
SWIDTH 600 0
DWIDTH 11 0
BBX 9 9 1 0
BITMAP
FFFFC0
FFFFC0
03E000
03E000
03E000
03E000
03E000
03E000
03E000
ENDCHAR
STARTCHAR uni0443
ENCODING 1091
SWIDTH 600 0
DWIDTH 11 0
BBX 10 13 0 -4
BITMAP
7D01F0
2E02E0
1F03D0
0F47C0
07CB80
03DF40
02EF00
00FD00
00BC00
00B800
01F400
1FE000
2F8000
ENDCHAR
STARTCHAR uni0444
ENCODING 1092
SWIDTH 600 0
DWIDTH 11 0
BBX 11 17 0 -4
BITMAP
00B800
00B800
00B800
00B400
1FFFD0
3FFFF0
7CB5F4
78B4F4
B8B4F4
B8B4F4
7CB5F0
3FFFE0
1FFF80
00B800
00B800
00B800
00B800
ENDCHAR
STARTCHAR uni0445
ENCODING 1093
SWIDTH 600 0
DWIDTH 11 0
BBX 9 9 1 0
BITMAP
BC0F80
3E2F00
1F7D00
0BF800
07F400
0FF800
2F7D00
7D2F00
F80F80
ENDCHAR
STARTCHAR uni0446
ENCODING 1094
SWIDTH 600 0
DWIDTH 11 0
BBX 10 13 1 -4
BITMAP
BC2F00
BC2F00
BC2F00
BC2F00
BC2F00
BC2F00
BC2F00
BFFFE0
BFFFE0
0003E0
0003D0
0003D0
0003D0
ENDCHAR
STARTCHAR uni0447
ENCODING 1095
SWIDTH 600 0
DWIDTH 11 0
BBX 9 9 1 0
BITMAP
F81F40
F81F40
B81F40
BD1F40
7FFF40
1BFF40
001F40
001F40
001F40
ENDCHAR
STARTCHAR uni0448
ENCODING 1096
SWIDTH 600 0
DWIDTH 11 0
BBX 11 9 0 0
BITMAP
7CB5F4
7CB5F4
7CB5F4
7CB5F4
7CB5F4
7CB5F4
7CB5F4
7FFFF4
7FFFF4
ENDCHAR
STARTCHAR uni0449
ENCODING 1097
SWIDTH 600 0
DWIDTH 11 0
BBX 11 13 0 -4
BITMAP
7CB5F0
7CB5F0
7CB5F0
7CB5F0
7CB5F0
7CB5F0
7CB5F0
7FFFFC
7FFFFC
00007C
000078
000078
000078
ENDCHAR
STARTCHAR uni044A
ENCODING 1098
SWIDTH 600 0
DWIDTH 11 0
BBX 10 9 0 0
BITMAP
7FE000
7FE000
03E000
03FF80
03FFE0
03E2F0
03E2F0
03FFE0
03FF80
ENDCHAR
STARTCHAR uni044B
ENCODING 1099
SWIDTH 600 0
DWIDTH 11 0
BBX 10 9 0 0
BITMAP
7C01F0
7C01F0
7C01F0
7FE1F0
7FF9F0
7C7DF0
7CBDF0
7FF9F0
7FE1F0
ENDCHAR
STARTCHAR uni044C
ENCODING 1100
SWIDTH 600 0
DWIDTH 11 0
BBX 9 9 1 0
BITMAP
BC0000
BC0000
BC0000
BFF900
BFFF80
BC0BC0
BC0BC0
BFFF80
BFFD00
ENDCHAR
STARTCHAR uni044D
ENCODING 1101
SWIDTH 600 0
DWIDTH 11 0
BBX 9 9 1 0
BITMAP
6FE400
BFFD00
101F00
0BFF40
0BFF80
000F40
506F00
BFFD00
6FE400
ENDCHAR
STARTCHAR uni044E
ENCODING 1102
SWIDTH 600 0
DWIDTH 11 0
BBX 11 9 0 0
BITMAP
7C1F80
7C7FE0
7CB5F4
7CF1F4
7FF0F4
7FF1F4
7CF5F4
7C7FE0
7C2F80
ENDCHAR
STARTCHAR uni044F
ENCODING 1103
SWIDTH 600 0
DWIDTH 11 0
BBX 9 9 1 0
BITMAP
1BFF40
7FFF40
BC1F40
BD1F40
7FFF40
1FFF40
2F5F40
7E1F40
FC1F40
ENDCHAR
STARTCHAR uni0450
ENCODING 1104
SWIDTH 600 0
DWIDTH 11 0
BBX 9 15 1 0
BITMAP
060000
1F4000
0BD000
02E000
009000
000000
0BF800
2FFF00
BD0B80
FFFF80
FFFF80
F80000
BE0500
2FFF40
06F900
ENDCHAR
STARTCHAR uni0451
ENCODING 1105
SWIDTH 600 0
DWIDTH 11 0
BBX 9 13 1 0
BITMAP
1E1E00
2F2F00
1E1E00
000000
0BF800
2FFF00
BD0B80
FFFF80
FFFF80
F80000
BE0500
2FFF40
06F900
ENDCHAR
STARTCHAR uni0452
ENCODING 1106
SWIDTH 600 0
DWIDTH 11 0
BBX 10 17 0 -4
BITMAP
2F0000
BFFD00
FFFD00
2F0000
2F6E40
2FFFC0
2F4BD0
2F03E0
2F03F0
2F02F0
2F02F0
2F03F0
2F03E0
0007E0
000BD0
007F80
00BE00
ENDCHAR
STARTCHAR uni0453
ENCODING 1107
SWIDTH 600 0
DWIDTH 11 0
BBX 8 15 2 0
BITMAP
0020
00B8
02F8
07E0
0240
0000
FFFD
FFFD
F800
F800
F800
F800
F800
F800
F800
ENDCHAR
STARTCHAR uni0454
ENCODING 1108
SWIDTH 600 0
DWIDTH 11 0
BBX 9 9 1 0
BITMAP
06FE00
2FFF40
7D0100
BFF400
BFF400
BC0000
7E0200
2FFF80
06FE00
ENDCHAR
STARTCHAR uni0455
ENCODING 1109
SWIDTH 600 0
DWIDTH 11 0
BBX 9 9 1 0
BITMAP
0BF900
3FFF40
7D0500
7F9400
1FFE00
016F80
640F80
BFFF40
1BF900
ENDCHAR
STARTCHAR uni0456
ENCODING 1110
SWIDTH 600 0
DWIDTH 11 0
BBX 7 13 1 0
BITMAP
00F4
01FC
01F4
0000
BFF8
BFF8
00F8
00F8
00F8
00F8
00F8
00F8
00F8
ENDCHAR
STARTCHAR uni0457
ENCODING 1111
SWIDTH 600 0
DWIDTH 11 0
BBX 9 13 1 0
BITMAP
0B4B40
1F9F80
0B4B40
000000
BFF800
BFF800
00F800
00F800
00F800
00F800
00F800
00F800
00F800
ENDCHAR
STARTCHAR uni0458
ENCODING 1112
SWIDTH 600 0
DWIDTH 11 0
BBX 7 17 1 -4
BITMAP
00F4
01FC
01F4
0000
BFF8
BFF8
00F8
00F8
00F8
00F8
00F8
00F8
00F8
00F8
41F4
FFF0
BF80
ENDCHAR
STARTCHAR uni0459
ENCODING 1113
SWIDTH 600 0
DWIDTH 11 0
BBX 11 9 0 0
BITMAP
1FFC00
1FFC00
1E7C00
2E7F90
2D7FF0
2D7CF4
3D7CF4
FC7FF0
F47F90
ENDCHAR
STARTCHAR uni045A
ENCODING 1114
SWIDTH 600 0
DWIDTH 11 0
BBX 11 9 0 0
BITMAP
7CB800
7CB800
7CB800
7EFF90
7FFFF0
7EF8F4
7CB8F4
7CBFF0
7CBF90
ENDCHAR
STARTCHAR uni045B
ENCODING 1115
SWIDTH 600 0
DWIDTH 11 0
BBX 10 13 0 0
BITMAP
2F0000
BFFD00
FFFD00
2F0000
2F6F40
2FFFD0
2F87E0
2F03E0
2F03E0
2F03E0
2F03E0
2F03E0
2F03E0
ENDCHAR
STARTCHAR uni045C
ENCODING 1116
SWIDTH 600 0
DWIDTH 11 0
BBX 10 15 1 0
BITMAP
001800
003E00
00BD00
01F400
009000
000000
BC0B80
BC2F80
BC7D00
BFF800
BFF800
BC7D00
BC2F00
BC1F80
BC0BD0
ENDCHAR
STARTCHAR uni045D
ENCODING 1117
SWIDTH 600 0
DWIDTH 11 0
BBX 9 15 1 0
BITMAP
060000
0F8000
0BD000
02F000
009000
000000
BC1F40
BC2F40
BC7F40
B8FF40
BADF40
BFCF40
BF4F40
BE0F40
BC0F40
ENDCHAR
STARTCHAR uni045E
ENCODING 1118
SWIDTH 600 0
DWIDTH 11 0
BBX 10 16 0 -4
BITMAP
078B80
02FE00
000000
7D01F0
2E02E0
1F03D0
0F47C0
07CB80
03DF40
02EF00
00FD00
00BC00
00B800
01F400
1FE000
2F8000
ENDCHAR
STARTCHAR uni045F
ENCODING 1119
SWIDTH 600 0
DWIDTH 11 0
BBX 9 13 1 -4
BITMAP
BC1F40
BC1F40
BC1F40
BC1F40
BC1F40
BC1F40
BC1F40
BFFF40
BFFF40
03FA40
03E000
03E000
02E000
ENDCHAR
STARTCHAR uni0462
ENCODING 1122
SWIDTH 600 0
DWIDTH 11 0
BBX 11 13 0 0
BITMAP
0BC000
0BC000
BFFFC0
BFFFC0
0BC000
0BC000
0BFE40
0BFFE0
0BC2F4
0BC1F4
0BC2F0
0BFFE0
0BFE40
ENDCHAR
STARTCHAR uni0463
ENCODING 1123
SWIDTH 600 0
DWIDTH 11 0
BBX 10 11 0 0
BITMAP
03E000
03E000
7FFF40
7FFF40
03E000
03FF80
03FFE0
03E2F0
03E2F0
03FFE0
03FF80
ENDCHAR
STARTCHAR uni0472
ENCODING 1138
SWIDTH 600 0
DWIDTH 11 0
BBX 10 12 0 0
BITMAP
02FD00
0FFF80
2F4BD0
3E03E0
7D02F0
7FFFF0
7FFFF0
7D02F0
3E03E0
2F4BD0
0FFF80
02FD00
ENDCHAR
STARTCHAR uni0473
ENCODING 1139
SWIDTH 600 0
DWIDTH 11 0
BBX 9 9 1 0
BITMAP
0BF800
3FFE00
B81F80
FFFFC0
FFFFC0
F80BC0
BD1F80
3FFE00
0BF800
ENDCHAR
STARTCHAR uni0474
ENCODING 1140
SWIDTH 600 0
DWIDTH 11 0
BBX 11 12 0 0
BITMAP
BC00BC
7D02FC
3E03E0
3E07C0
2F0BC0
1F4B80
0F8F40
0B9F00
07EF00
03FE00
02FD00
01FC00
ENDCHAR
STARTCHAR uni0475
ENCODING 1141
SWIDTH 600 0
DWIDTH 11 0
BBX 10 9 1 0
BITMAP
F407D0
B80FD0
7C1F00
3D2E00
2E3D00
1F7C00
0FB800
0BF400
07F400
ENDCHAR
STARTCHAR uni0490
ENCODING 1168
SWIDTH 600 0
DWIDTH 11 0
BBX 8 15 2 0
BITMAP
002E
002E
003E
FFFE
FFFE
F800
F800
F800
F800
F800
F800
F800
F800
F800
F800
ENDCHAR
STARTCHAR uni0491
ENCODING 1169
SWIDTH 600 0
DWIDTH 11 0
BBX 8 12 2 0
BITMAP
002D
002D
003D
FFFD
FFFD
F800
F800
F800
F800
F800
F800
F800
ENDCHAR
STARTCHAR uni0492
ENCODING 1170
SWIDTH 600 0
DWIDTH 11 0
BBX 9 12 1 0
BITMAP
2FFF80
2FFF80
2F0000
2F0000
2F0000
FFF800
FFF800
2F0000
2F0000
2F0000
2F0000
2F0000
ENDCHAR
STARTCHAR uni0493
ENCODING 1171
SWIDTH 600 0
DWIDTH 11 0
BBX 9 9 1 0
BITMAP
2FFF40
2FFF40
2F0000
2F0000
FFF800
FFF800
2F0000
2F0000
2F0000
ENDCHAR
STARTCHAR uni0496
ENCODING 1174
SWIDTH 600 0
DWIDTH 11 0
BBX 11 16 0 -4
BITMAP
F4B478
BCB5F4
2DB5D0
1EB6C0
1EBBC0
0FFF80
1FFFC0
2EB6D0
3DB6E0
3CB5F0
78B4FC
B8B4BC
00003C
00003C
00003C
000038
ENDCHAR
STARTCHAR uni0497
ENCODING 1175
SWIDTH 600 0
DWIDTH 11 0
BBX 11 13 0 -4
BITMAP
B4B4B8
BDB5F4
1EB7D0
0FFFC0
1FFFC0
2DB6D0
3DB5E0
7CB4FC
B8B4BC
00003C
00003C
00003C
000038
ENDCHAR
STARTCHAR uni0498
ENCODING 1176
SWIDTH 600 0
DWIDTH 11 0
BBX 9 16 1 -4
BITMAP
1BF800
BFFF00
242F40
001F40
002F00
07FD00
07FF40
001F80
000BC0
741F80
FFFF40
2BF900
02E000
02E000
02E000
02E000
ENDCHAR
STARTCHAR uni0499
ENCODING 1177
SWIDTH 600 0
DWIDTH 11 0
BBX 9 13 1 -4
BITMAP
2FF900
BFFF40
641F40
0BFE00
0BFE00
001F80
641F80
FFFF40
2FF900
03D000
03D000
03D000
03D000
ENDCHAR
STARTCHAR uni049A
ENCODING 1178
SWIDTH 600 0
DWIDTH 11 0
BBX 10 16 1 -4
BITMAP
BC07D0
BC1FC0
BC3E00
BC7C00
BCB800
BFF400
BFF400
BCBC00
BC7E00
BC2F00
BC0FF0
BC07F0
0001F0
0001E0
0001E0
0001E0
ENDCHAR
STARTCHAR uni049B
ENCODING 1179
SWIDTH 600 0
DWIDTH 11 0
BBX 10 13 1 -4
BITMAP
BC0B80
BC2F80
BC7D00
BFF800
BFF800
BC7D00
BC2E00
BC1FE0
BC0BE0
0002E0
0002E0
0002E0
0002D0
ENDCHAR
STARTCHAR uni04A0
ENCODING 1184
SWIDTH 600 0
DWIDTH 11 0
BBX 11 12 0 0
BITMAP
BFD0B4
BFD1F4
03D2D0
03D3C0
03D780
03FF40
03FF40
03D7C0
03D3D0
03D2E0
03D1F0
03D0B8
ENDCHAR
STARTCHAR uni04A1
ENCODING 1185
SWIDTH 600 0
DWIDTH 11 0
BBX 11 9 0 0
BITMAP
7FD1F0
7FD3F0
03D780
03FF40
03FF40
03D7C0
03D3D0
03D1F0
03D0F4
ENDCHAR
STARTCHAR uni04A2
ENCODING 1186
SWIDTH 600 0
DWIDTH 11 0
BBX 10 16 1 -4
BITMAP
F80F80
F80F80
F80F80
F80F80
F80F80
FFFF80
FFFF80
F80F80
F80F80
F80F80
F80FF0
F80FF0
0001F0
0001E0
0001E0
0001E0
ENDCHAR
STARTCHAR uni04A3
ENCODING 1187
SWIDTH 600 0
DWIDTH 11 0
BBX 10 13 1 -4
BITMAP
BC2F00
BC2F00
BC2F00
BC2F00
BFFF00
BFFF00
BC2F00
BC2FE0
BC2FE0
0003E0
0003D0
0003D0
0003D0
ENDCHAR
STARTCHAR uni04AA
ENCODING 1194
SWIDTH 600 0
DWIDTH 11 0
BBX 9 16 1 -4
BITMAP
02FE00
1FFF80
3F4600
BD0000
FC0000
F80000
F80000
FC0000
BD0000
3F4240
1FFFC0
06FE40
00B800
00B800
00B800
00B800
ENDCHAR
STARTCHAR uni04AB
ENCODING 1195
SWIDTH 600 0
DWIDTH 11 0
BBX 9 13 1 -4
BITMAP
06FE00
2FFF40
7E4500
BC0000
BC0000
BC0000
7E4600
2FFF80
07FE00
00F400
00F400
00F400
00F400
ENDCHAR
STARTCHAR uni04AE
ENCODING 1198
SWIDTH 600 0
DWIDTH 11 0
BBX 11 12 0 0
BITMAP
7D01F4
3E03E0
2F07D0
0F8BC0
0BCF40
03EF00
02FD00
00FC00
00F800
00F800
00F800
00F800
ENDCHAR
STARTCHAR uni04AF
ENCODING 1199
SWIDTH 600 0
DWIDTH 11 0
BBX 10 13 0 -4
BITMAP
7D01F0
3E02E0
2F03D0
0F47C0
0B8B80
07CF40
03EF00
02FE00
01FD00
00FC00
00F800
00F800
00F800
ENDCHAR
STARTCHAR uni04B0
ENCODING 1200
SWIDTH 600 0
DWIDTH 11 0
BBX 11 12 0 0
BITMAP
7D01F4
3E03E0
1F07D0
0B8B80
07CF00
02EE00
1FFFD0
2FFFD0
00F800
00F800
00F800
00F800
ENDCHAR
STARTCHAR uni04B1
ENCODING 1201
SWIDTH 600 0
DWIDTH 11 0
BBX 10 13 0 -4
BITMAP
7D01F0
2E02E0
1F03D0
0F4780
078B40
03CF00
02EE00
1FFFD0
1FFFD0
00F800
00F800
00F800
00F800
ENDCHAR
STARTCHAR uni04B2
ENCODING 1202
SWIDTH 600 0
DWIDTH 11 0
BBX 11 16 0 -4
BITMAP
7E02F0
2F47D0
0F8BC0
0BDF40
03FF00
01FD00
02FD00
03FF00
0BDF40
1F4BC0
2F07F8
7D02F8
000078
000078
000078
000078
ENDCHAR
STARTCHAR uni04B3
ENCODING 1203
SWIDTH 600 0
DWIDTH 11 0
BBX 10 13 1 -4
BITMAP
BC0F80
3E2F00
1F7D00
0BF800
07F400
0FF800
2F7D00
7D2FD0
F80FD0
0003D0
0003D0
0003D0
0003D0
ENDCHAR
STARTCHAR uni04B6
ENCODING 1206
SWIDTH 600 0
DWIDTH 11 0
BBX 11 16 0 -4
BITMAP
7D03E0
7D03E0
7D03E0
3D03E0
3F47E0
1FFFE0
06FFE0
0003E0
0003E0
0003E0
0003FC
0003FC
0000BC
0000B8
0000B8
0000B8
ENDCHAR
STARTCHAR uni04B7
ENCODING 1207
SWIDTH 600 0
DWIDTH 11 0
BBX 10 13 1 -4
BITMAP
F82F00
F82F00
F82F00
BD2F00
7FFF00
1BFF00
002F00
002FE0
002FE0
0003E0
0003D0
0003D0
0003D0
ENDCHAR
STARTCHAR uni04BA
ENCODING 1210
SWIDTH 600 0
DWIDTH 11 0
BBX 9 12 1 0
BITMAP
F80000
F80000
F80000
F80000
FFF900
FFFF40
F81F80
F80BC0
F80BC0
F80BC0
F80BC0
F80BC0
ENDCHAR
STARTCHAR uni04BB
ENCODING 1211
SWIDTH 600 0
DWIDTH 11 0
BBX 9 13 1 0
BITMAP
BC0000
BC0000
BC0000
BC0000
BDBD00
BFFF40
BE1F80
BC0F80
BC0F80
BC0F80
BC0F80
BC0F80
BC0F80
ENDCHAR
STARTCHAR uni04C0
ENCODING 1216
SWIDTH 600 0
DWIDTH 11 0
BBX 9 12 1 0
BITMAP
BFFF40
BFFF40
03E000
03E000
03E000
03E000
03E000
03E000
03E000
03E000
BFFF40
BFFF40
ENDCHAR
STARTCHAR uni04C1
ENCODING 1217
SWIDTH 600 0
DWIDTH 11 0
BBX 11 15 0 0
BITMAP
0B8F40
02FE00
000000
F4B478
BCB5F4
2DB5D0
1EB6C0
1EBBC0
0FFF80
1FFFC0
2EB6D0
3DB6E0
3CB5F0
78B4F4
B8B4B8
ENDCHAR
STARTCHAR uni04C2
ENCODING 1218
SWIDTH 600 0
DWIDTH 11 0
BBX 11 12 0 0
BITMAP
0B8B40
02FE00
000000
B4B4B8
BDB5F4
1EB7D0
0FFFC0
1FFFC0
2DB6D0
3DB5E0
7CB4F4
B8B4B8
ENDCHAR
STARTCHAR uni04CF
ENCODING 1231
SWIDTH 600 0
DWIDTH 11 0
BBX 9 13 1 0
BITMAP
FFD000
FFD000
07D000
07D000
07D000
07D000
07D000
07D000
07D000
07D000
03E000
02FF40
00BF40
ENDCHAR
STARTCHAR uni04D0
ENCODING 1232
SWIDTH 600 0
DWIDTH 11 0
BBX 11 15 0 0
BITMAP
0B8F40
02FE00
000000
01FC00
02FD00
03EE00
07DF00
0B8F40
0F4B80
1F4BC0
1FFFD0
2FFFE0
3D02F0
7D02F4
BC01F4
ENDCHAR
STARTCHAR uni04D1
ENCODING 1233
SWIDTH 600 0
DWIDTH 11 0
BBX 9 12 1 0
BITMAP
1F1E00
07F800
000000
1BF800
7FFF00
241F40
06FF80
7FFF80
BD0F80
F81F80
BFFF80
2F9B80
ENDCHAR
STARTCHAR uni04D4
ENCODING 1236
SWIDTH 600 0
DWIDTH 11 0
BBX 11 12 0 0
BITMAP
01FFF8
02FFF8
03EF00
07EF00
0BDF00
0F9FF0
1F5FF0
2FFF00
3FFF00
7D1F00
BC1FF8
F81FF8
ENDCHAR
STARTCHAR uni04D5
ENCODING 1237
SWIDTH 600 0
DWIDTH 11 0
BBX 11 9 0 0
BITMAP
2F8BD0
7FFFF0
10B8B4
0AFFF8
3FFFF8
BDB800
B8BD10
7FFFF0
2F4BE0
ENDCHAR
STARTCHAR uni04D6
ENCODING 1238
SWIDTH 600 0
DWIDTH 11 0
BBX 9 15 1 0
BITMAP
1F1F00
07F900
000000
7FFF40
7FFF40
7D0000
7D0000
7D0000
7FFE00
7FFE00
7D0000
7D0000
7D0000
7FFF80
7FFF80
ENDCHAR
STARTCHAR uni04D7
ENCODING 1239
SWIDTH 600 0
DWIDTH 11 0
BBX 9 12 1 0
BITMAP
1E2E00
0BF800
000000
0BF800
2FFF00
BD0B80
FFFF80
FFFF80
F80000
BE0500
2FFF40
06F900
ENDCHAR
STARTCHAR uni04D8
ENCODING 1240
SWIDTH 600 0
DWIDTH 11 0
BBX 9 12 1 0
BITMAP
0BF400
2FFE00
082F40
000F80
000BC0
FFFFC0
FFFFC0
F80BC0
B80F80
7D1F40
2FFE00
07F400
ENDCHAR
STARTCHAR uni04D9
ENCODING 1241
SWIDTH 600 0
DWIDTH 11 0
BBX 9 9 1 0
BITMAP
1BE400
7FFE00
142F40
000F80
FFFF80
FFFF80
B81F40
7FFE00
0BE400
ENDCHAR
STARTCHAR uni04E2
ENCODING 1250
SWIDTH 600 0
DWIDTH 11 0
BBX 9 15 1 0
BITMAP
1FFD00
1FFD00
000000
F81F80
F82F80
F87F80
F8BF80
F8FB80
F6EB80
F7DB80
FBCB80
FF4B80
FF0B80
FE0B80
FC0B80
ENDCHAR
STARTCHAR uni04E3
ENCODING 1251
SWIDTH 600 0
DWIDTH 11 0
BBX 9 12 1 0
BITMAP
0FFD00
0FFD00
000000
BC1F40
BC2F40
BC7F40
B8FF40
BADF40
BFCF40
BF4F40
BE0F40
BC0F40
ENDCHAR
STARTCHAR uni04E6
ENCODING 1254
SWIDTH 600 0
DWIDTH 11 0
BBX 10 15 0 0
BITMAP
0B4B40
0F8F80
0B4B40
02FD00
0FFF80
2F4BD0
3E03E0
7E02F0
7D02F0
7D02F0
7E02F0
3E03E0
2F4BD0
0FFF80
02FD00
ENDCHAR
STARTCHAR uni04E7
ENCODING 1255
SWIDTH 600 0
DWIDTH 11 0
BBX 9 13 1 0
BITMAP
2D2D00
3E3E00
2D2D00
000000
0BF400
3FFE00
BD1F80
F80FC0
F80BC0
F80FC0
BD1F80
3FFE00
0BF400
ENDCHAR
STARTCHAR uni04E8
ENCODING 1256
SWIDTH 600 0
DWIDTH 11 0
BBX 10 12 0 0
BITMAP
02FD00
0FFF80
2F4BD0
3E03E0
7D02F0
7FFFF0
7FFFF0
7D02F0
3E03E0
2F4BD0
0FFF80
02FD00
ENDCHAR
STARTCHAR uni04E9
ENCODING 1257
SWIDTH 600 0
DWIDTH 11 0
BBX 9 9 1 0
BITMAP
0BF800
3FFE00
B81F80
FFFFC0
FFFFC0
F80BC0
BD1F80
3FFE00
0BF800
ENDCHAR
STARTCHAR uni04EE
ENCODING 1262
SWIDTH 600 0
DWIDTH 11 0
BBX 11 15 0 0
BITMAP
07FF40
07FF40
000000
7D01F4
3E02F0
1F43D0
0F87C0
0BCB80
03DF40
02FF00
00FD00
00BC00
00F800
0FF000
0F9000
ENDCHAR
STARTCHAR uni04EF
ENCODING 1263
SWIDTH 600 0
DWIDTH 11 0
BBX 10 16 0 -4
BITMAP
03FF40
03FF40
000000
7D01F0
2E02E0
1F03D0
0F47C0
07CB80
03DF40
02EF00
00FD00
00BC00
00B800
01F400
1FE000
2F8000
ENDCHAR
STARTCHAR uni04F2
ENCODING 1266
SWIDTH 600 0
DWIDTH 11 0
BBX 11 16 0 0
BITMAP
006090
00F6E0
02D380
028600
7D01F4
3E02F0
1F43D0
0F87C0
0BCB80
03DF40
02FF00
00FD00
00BC00
00F800
0FF000
0F9000
ENDCHAR
STARTCHAR uni04F3
ENCODING 1267
SWIDTH 600 0
DWIDTH 11 0
BBX 10 18 0 -4
BITMAP
006190
00F2D0
01E780
018600
000000
7D01F0
2E02E0
1F03D0
0F47C0
07CB80
03DF40
02EF00
00FD00
00BC00
00B800
01F400
1FE000
2F8000
ENDCHAR
STARTCHAR a.sups
ENCODING 7491
SWIDTH 600 0
DWIDTH 11 0
BBX 7 7 2 6
BITMAP
1BD0
3FF0
10B4
1BF4
7FF4
7FF4
2E74
ENDCHAR
STARTCHAR b.sups
ENCODING 7495
SWIDTH 600 0
DWIDTH 11 0
BBX 7 9 2 6
BITMAP
7800
7800
7AD0
7FF4
78B8
7878
78B4
7FF0
77D0
ENDCHAR
STARTCHAR d.sups
ENCODING 7496
SWIDTH 600 0
DWIDTH 11 0
BBX 6 9 2 6
BITMAP
00B0
00B0
1EB0
7FF0
B8B0
B4B0
B8B0
7FF0
2EB0
ENDCHAR
STARTCHAR e.sups
ENCODING 7497
SWIDTH 600 0
DWIDTH 11 0
BBX 7 7 2 6
BITMAP
0B80
3FE0
7870
BFF4
7FF4
3FF0
1BD0
ENDCHAR
STARTCHAR g.sups
ENCODING 7501
SWIDTH 600 0
DWIDTH 11 0
BBX 7 9 2 4
BITMAP
1FF8
3FF8
79E0
3FE0
3F80
7FE4
3FF8
BFF4
2F90
ENDCHAR
STARTCHAR k.sups
ENCODING 7503
SWIDTH 600 0
DWIDTH 11 0
BBX 6 9 3 7
BITMAP
5000
E000
E000
E2D0
EB80
FF00
FF40
F3C0
E1E0
ENDCHAR
STARTCHAR m.sups
ENCODING 7504
SWIDTH 600 0
DWIDTH 11 0
BBX 9 7 1 6
BITMAP
DB5E00
FFFF80
F2D780
E2D380
E2D380
E2D380
918240
ENDCHAR
STARTCHAR o.sups
ENCODING 7506
SWIDTH 600 0
DWIDTH 11 0
BBX 7 7 2 6
BITMAP
1B80
3FE0
78B4
B4B4
78B4
3FE0
1B80
ENDCHAR
STARTCHAR p.sups
ENCODING 7510
SWIDTH 600 0
DWIDTH 11 0
BBX 7 9 2 4
BITMAP
76D0
7FF4
78B8
7878
78B4
7FF0
7AD0
7800
7800
ENDCHAR
STARTCHAR t.sups
ENCODING 7511
SWIDTH 600 0
DWIDTH 11 0
BBX 7 9 2 6
BITMAP
0A00
0E00
7FF0
7FF0
0E00
0E00
0F00
0BF4
06F4
ENDCHAR
STARTCHAR u.sups
ENCODING 7512
SWIDTH 600 0
DWIDTH 11 0
BBX 7 7 2 6
BITMAP
74B4
74B4
74B4
74B4
78B4
7FF4
2E74
ENDCHAR
STARTCHAR v.sups
ENCODING 7515
SWIDTH 600 0
DWIDTH 11 0
BBX 7 7 2 6
BITMAP
B074
74B0
38E0
2DD0
2ED0
1FC0
0F80
ENDCHAR
STARTCHAR c.sups
ENCODING 7580
SWIDTH 600 0
DWIDTH 11 0
BBX 5 7 3 6
BITMAP
1B80
7FC0
B400
F000
B440
7FC0
1F80
ENDCHAR
STARTCHAR f.sups
ENCODING 7584
SWIDTH 600 0
DWIDTH 11 0
BBX 6 10 3 6
BITMAP
07E0
0FF0
1E00
BFD0
BFD0
1D00
1D00
1D00
1D00
1500
ENDCHAR
STARTCHAR z.sups
ENCODING 7611
SWIDTH 600 0
DWIDTH 11 0
BBX 7 7 2 6
BITMAP
3FF4
3FF0
02D0
0740
1E00
3FF4
7FF4
ENDCHAR
STARTCHAR uni1E06
ENCODING 7686
SWIDTH 600 0
DWIDTH 11 0
BBX 9 16 1 -4
BITMAP
BFF900
BFFF00
BC1F80
BC0F80
BC1F40
BFFD00
BFFF40
BC0BC0
BC0BC0
BC1FC0
BFFF40
BFF900
000000
000000
0FFD00
0FFD00
ENDCHAR
STARTCHAR uni1E07
ENCODING 7687
SWIDTH 600 0
DWIDTH 11 0
BBX 9 17 1 -4
BITMAP
BC0000
BC0000
BC0000
BC0000
BDF900
BFFF00
BD1F80
BC0FC0
BC0BC0
BC0F80
BD1F80
BFFF00
B5F800
000000
000000
0FFD00
0FFD00
ENDCHAR
STARTCHAR uni1E0C
ENCODING 7692
SWIDTH 600 0
DWIDTH 11 0
BBX 9 17 1 -5
BITMAP
BFE400
BFFE00
BC6F40
BC0F80
BC0BC0
BC0BC0
BC0BC0
BC0BC0
BC0F80
BC6F40
BFFE00
BFE400
000000
000000
02E000
07F000
02E000
ENDCHAR
STARTCHAR uni1E0D
ENCODING 7693
SWIDTH 600 0
DWIDTH 11 0
BBX 9 18 1 -5
BITMAP
000F80
000F80
000F80
000F80
1BDF80
7FFF80
BD2F80
F80F80
F80F80
F80F80
BD2F80
7FFF80
1BDB80
000000
000000
02E000
07F400
02E000
ENDCHAR
STARTCHAR uni1E0E
ENCODING 7694
SWIDTH 600 0
DWIDTH 11 0
BBX 9 16 1 -4
BITMAP
BFE400
BFFE00
BC6F40
BC0F80
BC0BC0
BC0BC0
BC0BC0
BC0BC0
BC0F80
BC6F40
BFFE00
BFE400
000000
000000
1FFC00
1FFC00
ENDCHAR
STARTCHAR uni1E0F
ENCODING 7695
SWIDTH 600 0
DWIDTH 11 0
BBX 9 17 1 -4
BITMAP
000F80
000F80
000F80
000F80
1BDF80
7FFF80
BD2F80
F80F80
F80F80
F80F80
BD2F80
7FFF80
1BDB80
000000
000000
0FFD00
0FFD00
ENDCHAR
STARTCHAR uni1E10
ENCODING 7696
SWIDTH 600 0
DWIDTH 11 0
BBX 9 17 1 -5
BITMAP
BFE400
BFFE00
BC6F40
BC0F80
BC0BC0
BC0BC0
BC0BC0
BC0BC0
BC0F80
BC6F40
BFFE00
BFE400
028000
07D000
01E000
01E000
0B8000
ENDCHAR
STARTCHAR uni1E11
ENCODING 7697
SWIDTH 600 0
DWIDTH 11 0
BBX 9 18 1 -5
BITMAP
000F80
000F80
000F80
000F80
1BDF80
7FFF80
BD2F80
F80F80
F80F80
F80F80
BD2F80
7FFF80
1BDB80
038000
07D000
01E000
01D000
0E4000
ENDCHAR
STARTCHAR uni1E16
ENCODING 7702
SWIDTH 600 0
DWIDTH 11 0
BBX 9 19 1 0
BITMAP
002800
01F800
019000
000000
0FFE00
0FFE00
000000
7FFF40
7FFF40
7D0000
7D0000
7D0000
7FFE00
7FFE00
7D0000
7D0000
7D0000
7FFF80
7FFF80
ENDCHAR
STARTCHAR uni1E17
ENCODING 7703
SWIDTH 600 0
DWIDTH 11 0
BBX 9 16 1 0
BITMAP
002400
01F800
019000
000000
0FFD00
0FFD00
000000
0BF800
2FFF00
BD0B80
FFFF80
FFFF80
F80000
BE0500
2FFF40
06F900
ENDCHAR
STARTCHAR uni1E20
ENCODING 7712
SWIDTH 600 0
DWIDTH 11 0
BBX 10 15 0 0
BITMAP
02FF80
02FF80
000000
01BE40
07FFD0
1F8140
2F0000
3E0000
3E1FF0
7E1FF0
3E02F0
2F02F0
1F82F0
0BFFE0
01BE40
ENDCHAR
STARTCHAR uni1E21
ENCODING 7713
SWIDTH 600 0
DWIDTH 11 0
BBX 10 16 1 -4
BITMAP
1FFC00
1FFC00
000000
1BFFD0
3FFFD0
BD2E00
BC2E00
7EBE00
2FF800
794000
BFFE40
3FFFC0
7407D0
F80BC0
FFFF40
2FF900
ENDCHAR
STARTCHAR uni1E24
ENCODING 7716
SWIDTH 600 0
DWIDTH 11 0
BBX 9 17 1 -5
BITMAP
F80F80
F80F80
F80F80
F80F80
F80F80
FFFF80
FFFF80
F80F80
F80F80
F80F80
F80F80
F80F80
000000
000000
02E000
07F000
02E000
ENDCHAR
STARTCHAR uni1E25
ENCODING 7717
SWIDTH 600 0
DWIDTH 11 0
BBX 9 18 1 -5
BITMAP
BC0000
BC0000
BC0000
BC0000
BDBD00
BFFF40
BE1F80
BC0F80
BC0F80
BC0F80
BC0F80
BC0F80
BC0F80
000000
000000
02E000
07F400
02E000
ENDCHAR
STARTCHAR uni1E26
ENCODING 7718
SWIDTH 600 0
DWIDTH 11 0
BBX 9 15 1 0
BITMAP
2D2D00
3E3E00
2D2D00
F80F80
F80F80
F80F80
F80F80
F80F80
FFFF80
FFFF80
F80F80
F80F80
F80F80
F80F80
F80F80
ENDCHAR
STARTCHAR uni1E27
ENCODING 7719
SWIDTH 600 0
DWIDTH 11 0
BBX 11 16 -1 0
BITMAP
787800
BCBC00
787800
0BC000
0BC000
0BC000
0BC000
0BDBD0
0BFFF4
0BE1F8
0BC0F8
0BC0F8
0BC0F8
0BC0F8
0BC0F8
0BC0F8
ENDCHAR
STARTCHAR uni1E28
ENCODING 7720
SWIDTH 600 0
DWIDTH 11 0
BBX 10 17 0 -5
BITMAP
3E03E0
3E03E0
3E03E0
3E03E0
3E03E0
3FFFE0
3FFFE0
3E03E0
3E03E0
3E03E0
3E03E0
3E03E0
1C0000
2E0000
0F4000
0F0000
790000
ENDCHAR
STARTCHAR uni1E29
ENCODING 7721
SWIDTH 600 0
DWIDTH 11 0
BBX 10 18 0 -5
BITMAP
2F0000
2F0000
2F0000
2F0000
2F6F40
2FFFD0
2F87E0
2F03E0
2F03E0
2F03E0
2F03E0
2F03E0
2F03E0
1D0000
2E0000
0B4000
0B0000
790000
ENDCHAR
STARTCHAR uni1E2A
ENCODING 7722
SWIDTH 600 0
DWIDTH 11 0
BBX 9 16 1 -4
BITMAP
F80F80
F80F80
F80F80
F80F80
F80F80
FFFF80
FFFF80
F80F80
F80F80
F80F80
F80F80
F80F80
000000
2D1D00
1FFC00
07E400
ENDCHAR
STARTCHAR uni1E2B
ENCODING 7723
SWIDTH 600 0
DWIDTH 11 0
BBX 9 17 1 -4
BITMAP
BC0000
BC0000
BC0000
BC0000
BDBD00
BFFF40
BE1F80
BC0F80
BC0F80
BC0F80
BC0F80
BC0F80
BC0F80
000400
1D1D00
0FFD00
06F400
ENDCHAR
STARTCHAR uni1E32
ENCODING 7730
SWIDTH 600 0
DWIDTH 11 0
BBX 10 17 1 -5
BITMAP
BC0FC0
BC2F40
BC7E00
BCF800
BEF000
BFF400
BFF800
BE7D00
BC3E00
BC1F40
BC0FC0
BC07D0
000000
000000
01F400
03F800
01F400
ENDCHAR
STARTCHAR uni1E33
ENCODING 7731
SWIDTH 600 0
DWIDTH 11 0
BBX 10 18 1 -5
BITMAP
BC0000
BC0000
BC0000
BC0000
BC1F80
BC3E00
BCF800
BFF000
BFF800
BFBD00
BD3E00
BC1F80
BC0BD0
000000
000000
01F400
03F800
01F400
ENDCHAR
STARTCHAR uni1E34
ENCODING 7732
SWIDTH 600 0
DWIDTH 11 0
BBX 10 16 1 -4
BITMAP
BC0FC0
BC2F40
BC7E00
BCF800
BEF000
BFF400
BFF800
BE7D00
BC3E00
BC1F40
BC0FC0
BC07D0
000000
000000
0BFE00
0BFE00
ENDCHAR
STARTCHAR uni1E35
ENCODING 7733
SWIDTH 600 0
DWIDTH 11 0
BBX 10 17 1 -4
BITMAP
BC0000
BC0000
BC0000
BC0000
BC1F80
BC3E00
BCF800
BFF000
BFF800
BFBD00
BD3E00
BC1F80
BC0BD0
000000
000000
0BFE00
0BFE00
ENDCHAR
STARTCHAR uni1E36
ENCODING 7734
SWIDTH 600 0
DWIDTH 11 0
BBX 8 17 2 -5
BITMAP
F800
F800
F800
F800
F800
F800
F800
F800
F800
F800
FFFE
FFFE
0000
0000
07D0
0BE0
07D0
ENDCHAR
STARTCHAR uni1E37
ENCODING 7735
SWIDTH 600 0
DWIDTH 11 0
BBX 9 18 1 -5
BITMAP
FFD000
FFD000
07D000
07D000
07D000
07D000
07D000
07D000
07D000
07D000
03E000
02FF40
00BF40
000000
000000
00B800
00FD00
00B800
ENDCHAR
STARTCHAR uni1E38
ENCODING 7736
SWIDTH 600 0
DWIDTH 11 0
BBX 10 20 0 -5
BITMAP
7FF400
7FF400
000000
0F8000
0F8000
0F8000
0F8000
0F8000
0F8000
0F8000
0F8000
0F8000
0F8000
0FFFE0
0FFFE0
000000
000000
007D00
00BE00
007D00
ENDCHAR
STARTCHAR uni1E39
ENCODING 7737
SWIDTH 600 0
DWIDTH 11 0
BBX 9 21 1 -5
BITMAP
2FF800
2FF800
000000
FFD000
FFD000
07D000
07D000
07D000
07D000
07D000
07D000
07D000
07D000
03E000
02FF40
00BF40
000000
000000
00B800
00FD00
00B800
ENDCHAR
STARTCHAR uni1E3A
ENCODING 7738
SWIDTH 600 0
DWIDTH 11 0
BBX 8 16 2 -4
BITMAP
F800
F800
F800
F800
F800
F800
F800
F800
F800
F800
FFFE
FFFE
0000
0000
2FF8
2FF8
ENDCHAR
STARTCHAR uni1E3B
ENCODING 7739
SWIDTH 600 0
DWIDTH 11 0
BBX 9 17 1 -4
BITMAP
FFD000
FFD000
07D000
07D000
07D000
07D000
07D000
07D000
07D000
07D000
03E000
02FF40
00BF40
000000
000000
03FF40
03FF40
ENDCHAR
STARTCHAR uni1E3E
ENCODING 7742
SWIDTH 600 0
DWIDTH 11 0
BBX 9 16 1 0
BITMAP
002000
01F800
07E400
024000
FC0F80
FD1F80
FD2F80
FE3B80
FB7B80
F7B780
F7E780
F6D780
F58780
F40780
F40780
F40780
ENDCHAR
STARTCHAR uni1E3F
ENCODING 7743
SWIDTH 600 0
DWIDTH 11 0
BBX 11 15 0 0
BITMAP
000600
000F80
002F40
007D00
002400
000000
79E2E0
7FFFF0
7DBDF4
7DB9F4
7CB9F4
7CB9F4
7CB9F4
7CB9F4
7CB9F4
ENDCHAR
STARTCHAR uni1E40
ENCODING 7744
SWIDTH 600 0
DWIDTH 11 0
BBX 9 16 1 0
BITMAP
02E000
07F000
02E000
000000
FC0F80
FD1F80
FD2F80
FE3B80
FB7B80
F7B780
F7E780
F6D780
F58780
F40780
F40780
F40780
ENDCHAR
STARTCHAR uni1E41
ENCODING 7745
SWIDTH 600 0
DWIDTH 11 0
BBX 11 13 0 0
BITMAP
007C00
00FD00
00BC00
000000
79E2E0
7FFFF0
7DBDF4
7DB9F4
7CB9F4
7CB9F4
7CB9F4
7CB9F4
7CB9F4
ENDCHAR
STARTCHAR uni1E42
ENCODING 7746
SWIDTH 600 0
DWIDTH 11 0
BBX 9 17 1 -5
BITMAP
FC0F80
FD1F80
FD2F80
FE3B80
FB7B80
F7B780
F7E780
F6D780
F58780
F40780
F40780
F40780
000000
000000
02E000
07F000
02E000
ENDCHAR
STARTCHAR uni1E43
ENCODING 7747
SWIDTH 600 0
DWIDTH 11 0
BBX 11 14 0 -5
BITMAP
79E2E0
7FFFF0
7DBDF4
7DB9F4
7CB9F4
7CB9F4
7CB9F4
7CB9F4
7CB9F4
000000
000000
00B800
01FC00
00B800
ENDCHAR
STARTCHAR uni1E44
ENCODING 7748
SWIDTH 600 0
DWIDTH 11 0
BBX 9 16 1 0
BITMAP
02E000
03F000
02E000
000000
BC0F80
BE0F80
BF0F80
BF4F80
BB8F80
BADF80
B9EB80
B8FB80
B8BF80
B83F80
B82F80
B81F80
ENDCHAR
STARTCHAR uni1E45
ENCODING 7749
SWIDTH 600 0
DWIDTH 11 0
BBX 9 13 1 0
BITMAP
02E000
03F400
02E000
000000
B9BD00
BFFF40
BE1F80
BC0F80
BC0F80
BC0F80
BC0F80
BC0F80
BC0F80
ENDCHAR
STARTCHAR uni1E46
ENCODING 7750
SWIDTH 600 0
DWIDTH 11 0
BBX 9 17 1 -5
BITMAP
BC0F80
BE0F80
BF0F80
BF4F80
BB8F80
BADF80
B9EB80
B8FB80
B8BF80
B83F80
B82F80
B81F80
000000
000000
02E000
07F000
02E000
ENDCHAR
STARTCHAR uni1E47
ENCODING 7751
SWIDTH 600 0
DWIDTH 11 0
BBX 9 14 1 -5
BITMAP
B9BD00
BFFF40
BE1F80
BC0F80
BC0F80
BC0F80
BC0F80
BC0F80
BC0F80
000000
000000
02E000
07F400
02E000
ENDCHAR
STARTCHAR uni1E48
ENCODING 7752
SWIDTH 600 0
DWIDTH 11 0
BBX 9 16 1 -4
BITMAP
BC0F80
BE0F80
BF0F80
BF4F80
BB8F80
BADF80
B9EB80
B8FB80
B8BF80
B83F80
B82F80
B81F80
000000
000000
1FFC00
1FFC00
ENDCHAR
STARTCHAR uni1E49
ENCODING 7753
SWIDTH 600 0
DWIDTH 11 0
BBX 9 13 1 -4
BITMAP
B9BD00
BFFF40
BE1F80
BC0F80
BC0F80
BC0F80
BC0F80
BC0F80
BC0F80
000000
000000
0FFD00
0FFD00
ENDCHAR
STARTCHAR uni1E52
ENCODING 7762
SWIDTH 600 0
DWIDTH 11 0
BBX 10 19 0 0
BITMAP
001900
00BD00
00A000
000000
07FF00
07FF00
000000
02FD00
0FFF80
2F4BD0
3E03E0
7E02F0
7D02F0
7D02F0
7E02F0
3E03E0
2F4BD0
0FFF80
02FD00
ENDCHAR
STARTCHAR uni1E53
ENCODING 7763
SWIDTH 600 0
DWIDTH 11 0
BBX 9 16 1 0
BITMAP
006000
01F400
028000
000000
1FFC00
1FFC00
000000
0BF400
3FFE00
BD1F80
F80FC0
F80BC0
F80FC0
BD1F80
3FFE00
0BF400
ENDCHAR
STARTCHAR uni1E58
ENCODING 7768
SWIDTH 600 0
DWIDTH 11 0
BBX 10 16 1 0
BITMAP
02E000
03F000
02E000
000000
BFF900
BFFF40
BC1F80
BC0BC0
BC0BC0
BC1F80
BFFF40
BFFD00
BC7D00
BC3F00
BC1F80
BC0BD0
ENDCHAR
STARTCHAR uni1E59
ENCODING 7769
SWIDTH 600 0
DWIDTH 11 0
BBX 8 13 2 0
BITMAP
02E0
07F0
03E0
0000
F4BE
FBFE
FF40
FC00
F800
F800
F800
F800
F800
ENDCHAR
STARTCHAR uni1E5A
ENCODING 7770
SWIDTH 600 0
DWIDTH 11 0
BBX 10 17 1 -5
BITMAP
BFF900
BFFF40
BC1F80
BC0BC0
BC0BC0
BC1F80
BFFF40
BFFD00
BC7D00
BC3F00
BC1F80
BC0BD0
000000
000000
01E000
03F400
02F000
ENDCHAR
STARTCHAR uni1E5B
ENCODING 7771
SWIDTH 600 0
DWIDTH 11 0
BBX 9 14 1 -5
BITMAP
3D2F80
3EFF80
3FD000
3F0000
3E0000
3E0000
3E0000
3E0000
3E0000
000000
000000
2E0000
7F4000
2E0000
ENDCHAR
STARTCHAR uni1E5C
ENCODING 7772
SWIDTH 600 0
DWIDTH 11 0
BBX 10 20 1 -5
BITMAP
1FFC00
1FFC00
000000
BFF900
BFFF40
BC1F80
BC0BC0
BC0BC0
BC1F80
BFFF40
BFFD00
BC7D00
BC3F00
BC1F80
BC0BD0
000000
000000
01E000
03F400
02F000
ENDCHAR
STARTCHAR uni1E5D
ENCODING 7773
SWIDTH 600 0
DWIDTH 11 0
BBX 9 17 1 -5
BITMAP
07FF00
07FF00
000000
3D2F80
3EFF80
3FD000
3F0000
3E0000
3E0000
3E0000
3E0000
3E0000
000000
000000
2E0000
7F4000
2E0000
ENDCHAR
STARTCHAR uni1E5E
ENCODING 7774
SWIDTH 600 0
DWIDTH 11 0
BBX 10 16 1 -4
BITMAP
BFF900
BFFF40
BC1F80
BC0BC0
BC0BC0
BC1F80
BFFF40
BFFD00
BC7D00
BC3F00
BC1F80
BC0BD0
000000
000000
0FFD00
0FFD00
ENDCHAR
STARTCHAR uni1E5F
ENCODING 7775
SWIDTH 600 0
DWIDTH 11 0
BBX 9 13 1 -4
BITMAP
3D2F80
3EFF80
3FD000
3F0000
3E0000
3E0000
3E0000
3E0000
3E0000
000000
000000
FFD000
FFD000
ENDCHAR
STARTCHAR uni1E60
ENCODING 7776
SWIDTH 600 0
DWIDTH 11 0
BBX 9 16 1 0
BITMAP
01E000
02F400
01E000
000000
0BF900
2FFF40
7D0A00
BD0000
7F8000
2FF800
07FF40
006F80
000FC0
781F80
BFFF40
1BF800
ENDCHAR
STARTCHAR uni1E61
ENCODING 7777
SWIDTH 600 0
DWIDTH 11 0
BBX 9 13 1 0
BITMAP
02E000
03F400
02E000
000000
0BF900
3FFF40
7D0500
7F9400
1FFE00
016F80
640F80
BFFF40
1BF900
ENDCHAR
STARTCHAR uni1E62
ENCODING 7778
SWIDTH 600 0
DWIDTH 11 0
BBX 9 17 1 -5
BITMAP
0BF900
2FFF40
7D0A00
BD0000
7F8000
2FF800
07FF40
006F80
000FC0
781F80
BFFF40
1BF800
000000
000000
02E000
07F400
02E000
ENDCHAR
STARTCHAR uni1E63
ENCODING 7779
SWIDTH 600 0
DWIDTH 11 0
BBX 9 14 1 -5
BITMAP
0BF900
3FFF40
7D0500
7F9400
1FFE00
016F80
640F80
BFFF40
1BF900
000000
000000
02E000
07F400
02E000
ENDCHAR
STARTCHAR uni1E6C
ENCODING 7788
SWIDTH 600 0
DWIDTH 11 0
BBX 11 17 0 -5
BITMAP
7FFFF4
7FFFF4
00F800
00F800
00F800
00F800
00F800
00F800
00F800
00F800
00F800
00F800
000000
000000
00B800
01FC00
00B800
ENDCHAR
STARTCHAR uni1E6D
ENCODING 7789
SWIDTH 600 0
DWIDTH 11 0
BBX 9 17 1 -5
BITMAP
078000
0B8000
0B8000
FFFF80
FFFF80
0F8000
0F8000
0F8000
0B8000
0BD000
07FF80
01BF80
000000
000000
00B800
00FD00
00B800
ENDCHAR
STARTCHAR uni1E6E
ENCODING 7790
SWIDTH 600 0
DWIDTH 11 0
BBX 11 16 0 -4
BITMAP
7FFFF4
7FFFF4
00F800
00F800
00F800
00F800
00F800
00F800
00F800
00F800
00F800
00F800
000000
000000
07FF00
07FF00
ENDCHAR
STARTCHAR uni1E6F
ENCODING 7791
SWIDTH 600 0
DWIDTH 11 0
BBX 9 16 1 -4
BITMAP
078000
0B8000
0B8000
FFFF80
FFFF80
0F8000
0F8000
0F8000
0B8000
0BD000
07FF80
01BF80
000000
000000
03FF40
03FF40
ENDCHAR
STARTCHAR uni1E7E
ENCODING 7806
SWIDTH 600 0
DWIDTH 11 0
BBX 11 17 0 -5
BITMAP
BD01F4
7D02F0
3E02E0
2F03E0
1F47D0
0F8BC0
0B8F80
0BDF40
07EF00
03FE00
02FD00
01FC00
000000
000000
00B800
01FC00
00B800
ENDCHAR
STARTCHAR uni1E7F
ENCODING 7807
SWIDTH 600 0
DWIDTH 11 0
BBX 10 14 0 -5
BITMAP
7D01F0
3E02E0
2F03D0
0F47C0
0B8B80
07CF40
03EF00
02FE00
01FC00
000000
000000
00B800
01FC00
00B800
ENDCHAR
STARTCHAR Wgrave
ENCODING 7808
SWIDTH 600 0
DWIDTH 11 0
BBX 11 16 0 0
BITMAP
018000
03E000
01FC00
002400
FC00F8
BC00F8
BC00F4
7C74F4
7CB8F4
7CFCF0
3DEDF0
3EEEE0
2EDEE0
2FCFE0
2F8FD0
1F4BD0
ENDCHAR
STARTCHAR wgrave
ENCODING 7809
SWIDTH 600 0
DWIDTH 11 0
BBX 11 15 0 0
BITMAP
014000
07D000
07F000
01F800
002000
000000
F800B8
B864F8
BCB8F4
7CFCF4
7DEDF0
3EDEF0
3FDFE0
2FCFE0
2F8FD0
ENDCHAR
STARTCHAR Wacute
ENCODING 7810
SWIDTH 600 0
DWIDTH 11 0
BBX 11 16 0 0
BITMAP
000800
007E00
01F900
009000
FC00F8
BC00F8
BC00F4
7C74F4
7CB8F4
7CFCF0
3DEDF0
3EEEE0
2EDEE0
2FCFE0
2F8FD0
1F4BD0
ENDCHAR
STARTCHAR wacute
ENCODING 7811
SWIDTH 600 0
DWIDTH 11 0
BBX 11 15 0 0
BITMAP
000900
001F40
007F00
00B800
006000
000000
F800B8
B864F8
BCB8F4
7CFCF4
7DEDF0
3EDEF0
3FDFE0
2FCFE0
2F8FD0
ENDCHAR
STARTCHAR Wdieresis
ENCODING 7812
SWIDTH 600 0
DWIDTH 11 0
BBX 11 15 0 0
BITMAP
0B4B40
0F8F80
0B4B40
FC00F8
BC00F8
BC00F4
7C74F4
7CB8F4
7CFCF0
3DEDF0
3EEEE0
2EDEE0
2FCFE0
2F8FD0
1F4BD0
ENDCHAR
STARTCHAR wdieresis
ENCODING 7813
SWIDTH 600 0
DWIDTH 11 0
BBX 11 13 0 0
BITMAP
0B4B40
0F8F80
0B4B40
000000
F800B8
B864F8
BCB8F4
7CFCF4
7DEDF0
3EDEF0
3FDFE0
2FCFE0
2F8FD0
ENDCHAR
STARTCHAR uni1E8E
ENCODING 7822
SWIDTH 600 0
DWIDTH 11 0
BBX 11 16 0 0
BITMAP
00B800
01FC00
00B800
000000
7D01F4
3E03E0
2F07D0
0F8BC0
0BCF40
03EF00
02FD00
00FC00
00F800
00F800
00F800
00F800
ENDCHAR
STARTCHAR uni1E8F
ENCODING 7823
SWIDTH 600 0
DWIDTH 11 0
BBX 10 17 0 -4
BITMAP
00B800
01FD00
00B800
000000
7D01F0
2E02E0
1F03D0
0F47C0
07CB80
03DF40
02EF00
00FD00
00BC00
00B800
01F400
1FE000
2F8000
ENDCHAR
STARTCHAR uni1E90
ENCODING 7824
SWIDTH 600 0
DWIDTH 11 0
BBX 9 15 1 0
BITMAP
03F800
0BBD00
090900
7FFF80
7FFF80
002F00
007D00
00F800
02F400
07E000
0FC000
2F4000
7E0000
FFFFC0
FFFFC0
ENDCHAR
STARTCHAR uni1E91
ENCODING 7825
SWIDTH 600 0
DWIDTH 11 0
BBX 9 13 1 0
BITMAP
03F800
0BBE00
090A00
000000
7FFF80
7FFF40
007E00
01F800
07F000
0FD000
2F4000
BFFF80
BFFF80
ENDCHAR
STARTCHAR uni1E92
ENCODING 7826
SWIDTH 600 0
DWIDTH 11 0
BBX 9 17 1 -5
BITMAP
7FFF80
7FFF80
002F00
007D00
00F800
02F400
07E000
0FC000
2F4000
7E0000
FFFFC0
FFFFC0
000000
000000
02E000
03F400
02E000
ENDCHAR
STARTCHAR uni1E93
ENCODING 7827
SWIDTH 600 0
DWIDTH 11 0
BBX 9 14 1 -5
BITMAP
7FFF80
7FFF40
007E00
01F800
07F000
0FD000
2F4000
BFFF80
BFFF80
000000
000000
02E000
03F400
02E000
ENDCHAR
STARTCHAR uni1E94
ENCODING 7828
SWIDTH 600 0
DWIDTH 11 0
BBX 9 16 1 -4
BITMAP
7FFF80
7FFF80
002F00
007D00
00F800
02F400
07E000
0FC000
2F4000
7E0000
FFFFC0
FFFFC0
000000
000000
0FFD00
0FFD00
ENDCHAR
STARTCHAR uni1E95
ENCODING 7829
SWIDTH 600 0
DWIDTH 11 0
BBX 9 13 1 -4
BITMAP
7FFF80
7FFF40
007E00
01F800
07F000
0FD000
2F4000
BFFF80
BFFF80
000000
000000
0FFD00
0FFD00
ENDCHAR
STARTCHAR uni1E96
ENCODING 7830
SWIDTH 600 0
DWIDTH 11 0
BBX 9 17 1 -4
BITMAP
BC0000
BC0000
BC0000
BC0000
BDBD00
BFFF40
BE1F80
BC0F80
BC0F80
BC0F80
BC0F80
BC0F80
BC0F80
000000
000000
0FFD00
0FFD00
ENDCHAR
STARTCHAR uni1E97
ENCODING 7831
SWIDTH 600 0
DWIDTH 11 0
BBX 9 16 1 0
BITMAP
787800
BDBD00
787800
000000
078000
0B8000
0B8000
FFFF80
FFFF80
0F8000
0F8000
0F8000
0B8000
0BD000
07FF80
01BF80
ENDCHAR
STARTCHAR uni1E9E
ENCODING 7838
SWIDTH 600 0
DWIDTH 11 0
BBX 10 12 1 0
BITMAP
0BF400
3FFE00
BD1F40
BC2F40
F87D00
F8BE00
F87F80
F81FD0
F807D0
F84BD0
F9FFC0
F8BE00
ENDCHAR
STARTCHAR uni1EA0
ENCODING 7840
SWIDTH 600 0
DWIDTH 11 0
BBX 11 17 0 -5
BITMAP
01FC00
02FD00
03EE00
07DF00
0B8F40
0F4B80
1F4BC0
1FFFD0
2FFFE0
3D02F0
7D02F4
BC01F4
000000
000000
00B800
01FC00
00B800
ENDCHAR
STARTCHAR uni1EA1
ENCODING 7841
SWIDTH 600 0
DWIDTH 11 0
BBX 9 14 1 -5
BITMAP
1BF800
7FFF00
241F40
06FF80
7FFF80
BD0F80
F81F80
BFFF80
2F9B80
000000
000000
02E000
07F000
02E000
ENDCHAR
STARTCHAR uni1EA2
ENCODING 7842
SWIDTH 600 0
DWIDTH 11 0
BBX 11 15 0 0
BITMAP
00F400
003C00
007400
01FC00
02FD00
03EE00
07DF00
0B8F40
0F4B80
1F4BC0
1FFFD0
2FFFE0
3D02F0
7D02F4
BC01F4
ENDCHAR
STARTCHAR uni1EA3
ENCODING 7843
SWIDTH 600 0
DWIDTH 11 0
BBX 9 14 1 0
BITMAP
02D000
02F400
00B400
00E000
000000
1BF800
7FFF00
241F40
06FF80
7FFF80
BD0F80
F81F80
BFFF80
2F9B80
ENDCHAR
STARTCHAR uni1EA4
ENCODING 7844
SWIDTH 600 0
DWIDTH 11 0
BBX 11 16 0 0
BITMAP
0000A0
00FD90
02EE00
024600
01FC00
02FD00
03EE00
07DF00
0B8F40
0F4B80
1F4BC0
1FFFD0
2FFFE0
3D02F0
7D02F4
BC01F4
ENDCHAR
STARTCHAR uni1EA5
ENCODING 7845
SWIDTH 600 0
DWIDTH 11 0
BBX 10 15 1 0
BITMAP
000090
0002D0
02F640
0BBC00
061800
000000
1BF800
7FFF00
241F40
06FF80
7FFF80
BD0F80
F81F80
BFFF80
2F9B80
ENDCHAR
STARTCHAR uni1EA6
ENCODING 7846
SWIDTH 600 0
DWIDTH 11 0
BBX 11 16 0 0
BITMAP
240000
19FC00
02EE00
024600
01FC00
02FD00
03EE00
07DF00
0B8F40
0F4B80
1F4BC0
1FFFD0
2FFFE0
3D02F0
7D02F4
BC01F4
ENDCHAR
STARTCHAR uni1EA7
ENCODING 7847
SWIDTH 600 0
DWIDTH 11 0
BBX 9 15 1 0
BITMAP
900000
B00000
26F400
0BBC00
061800
000000
1BF800
7FFF00
241F40
06FF80
7FFF80
BD0F80
F81F80
BFFF80
2F9B80
ENDCHAR
STARTCHAR uni1EA8
ENCODING 7848
SWIDTH 600 0
DWIDTH 11 0
BBX 11 16 0 0
BITMAP
0002D0
00FCF0
02EFD0
024600
01FC00
02FD00
03EE00
07DF00
0B8F40
0F4B80
1F4BC0
1FFFD0
2FFFE0
3D02F0
7D02F4
BC01F4
ENDCHAR
STARTCHAR uni1EA9
ENCODING 7849
SWIDTH 600 0
DWIDTH 11 0
BBX 10 15 1 0
BITMAP
000780
0002D0
02F680
0BBC00
061800
000000
1BF800
7FFF00
241F40
06FF80
7FFF80
BD0F80
F81F80
BFFF80
2F9B80
ENDCHAR
STARTCHAR uni1EAA
ENCODING 7850
SWIDTH 600 0
DWIDTH 11 0
BBX 11 17 0 0
BITMAP
014100
07BE00
01FD00
028A00
000000
01FC00
02FD00
03EE00
07DF00
0B8F40
0F4B80
1F4BC0
1FFFD0
2FFFE0
3D02F0
7D02F4
BC01F4
ENDCHAR
STARTCHAR uni1EAB
ENCODING 7851
SWIDTH 600 0
DWIDTH 11 0
BBX 9 15 1 0
BITMAP
014400
0ABC00
000000
02F400
0A5D00
000000
1BF800
7FFF00
241F40
06FF80
7FFF80
BD0F80
F81F80
BFFF80
2F9B80
ENDCHAR
STARTCHAR uni1EAC
ENCODING 7852
SWIDTH 600 0
DWIDTH 11 0
BBX 11 20 0 -5
BITMAP
01FD00
07EF00
060600
01FC00
02FD00
03EE00
07DF00
0B8F40
0F4B80
1F4BC0
1FFFD0
2FFFE0
3D02F0
7D02F4
BC01F4
000000
000000
00B800
01FC00
00B800
ENDCHAR
STARTCHAR uni1EAD
ENCODING 7853
SWIDTH 600 0
DWIDTH 11 0
BBX 9 18 1 -5
BITMAP
03F800
0FBD00
190A00
000000
1BF800
7FFF00
241F40
06FF80
7FFF80
BD0F80
F81F80
BFFF80
2F9B80
000000
000000
02E000
07F000
02E000
ENDCHAR
STARTCHAR uni1EAE
ENCODING 7854
SWIDTH 600 0
DWIDTH 11 0
BBX 11 18 0 0
BITMAP
001900
003D00
006400
074700
02FD00
000000
01FC00
02FD00
03EE00
07DF00
0B8F40
0F4B80
1F4BC0
1FFFD0
2FFFE0
3D02F0
7D02F4
BC01F4
ENDCHAR
STARTCHAR uni1EAF
ENCODING 7855
SWIDTH 600 0
DWIDTH 11 0
BBX 9 16 1 0
BITMAP
002400
00B800
009000
1E0E00
0FFD00
06F800
000000
1BF800
7FFF00
241F40
06FF80
7FFF80
BD0F80
F81F80
BFFF80
2F9B80
ENDCHAR
STARTCHAR uni1EB0
ENCODING 7856
SWIDTH 600 0
DWIDTH 11 0
BBX 11 18 0 0
BITMAP
018000
01E000
006000
074700
02FD00
000000
01FC00
02FD00
03EE00
07DF00
0B8F40
0F4B80
1F4BC0
1FFFD0
2FFFE0
3D02F0
7D02F4
BC01F4
ENDCHAR
STARTCHAR uni1EB1
ENCODING 7857
SWIDTH 600 0
DWIDTH 11 0
BBX 9 16 1 0
BITMAP
024000
03D000
009000
1E0E00
0FFD00
06F800
000000
1BF800
7FFF00
241F40
06FF80
7FFF80
BD0F80
F81F80
BFFF80
2F9B80
ENDCHAR
STARTCHAR uni1EB2
ENCODING 7858
SWIDTH 600 0
DWIDTH 11 0
BBX 11 18 0 0
BITMAP
00A400
003800
007400
074700
02FD00
000000
01FC00
02FD00
03EE00
07DF00
0B8F40
0F4B80
1F4BC0
1FFFD0
2FFFE0
3D02F0
7D02F4
BC01F4
ENDCHAR
STARTCHAR uni1EB3
ENCODING 7859
SWIDTH 600 0
DWIDTH 11 0
BBX 9 16 1 0
BITMAP
02E000
00B400
00E000
1E0E00
0FFD00
06F800
000000
1BF800
7FFF00
241F40
06FF80
7FFF80
BD0F80
F81F80
BFFF80
2F9B80
ENDCHAR
STARTCHAR uni1EB4
ENCODING 7860
SWIDTH 600 0
DWIDTH 11 0
BBX 11 17 0 0
BITMAP
014100
07BF00
074B00
01FD00
000000
01FC00
02FD00
03EE00
07DF00
0B8F40
0F4B80
1F4BC0
1FFFD0
2FFFE0
3D02F0
7D02F4
BC01F4
ENDCHAR
STARTCHAR uni1EB5
ENCODING 7861
SWIDTH 600 0
DWIDTH 11 0
BBX 9 15 1 0
BITMAP
014400
0ABD00
000000
0E1D00
06F800
000000
1BF800
7FFF00
241F40
06FF80
7FFF80
BD0F80
F81F80
BFFF80
2F9B80
ENDCHAR
STARTCHAR uni1EB6
ENCODING 7862
SWIDTH 600 0
DWIDTH 11 0
BBX 11 20 0 -5
BITMAP
074740
07FF00
01F900
01FC00
02FD00
03EE00
07DF00
0B8F40
0F4B80
1F4BC0
1FFFD0
2FFFE0
3D02F0
7D02F4
BC01F4
000000
000000
00B800
01FC00
00B800
ENDCHAR
STARTCHAR uni1EB7
ENCODING 7863
SWIDTH 600 0
DWIDTH 11 0
BBX 9 18 1 -5
BITMAP
1E1E00
0FFD00
06F800
000000
1BF800
7FFF00
241F40
06FF80
7FFF80
BD0F80
F81F80
BFFF80
2F9B80
000000
000000
02E000
07F000
02E000
ENDCHAR
STARTCHAR uni1EB8
ENCODING 7864
SWIDTH 600 0
DWIDTH 11 0
BBX 9 17 1 -5
BITMAP
7FFF40
7FFF40
7D0000
7D0000
7D0000
7FFE00
7FFE00
7D0000
7D0000
7D0000
7FFF80
7FFF80
000000
000000
01F400
03F800
01F400
ENDCHAR
STARTCHAR uni1EB9
ENCODING 7865
SWIDTH 600 0
DWIDTH 11 0
BBX 9 14 1 -5
BITMAP
0BF800
2FFF00
BD0B80
FFFF80
FFFF80
F80000
BE0500
2FFF40
06F900
000000
000000
02E000
03F400
02E000
ENDCHAR
STARTCHAR uni1EBA
ENCODING 7866
SWIDTH 600 0
DWIDTH 11 0
BBX 9 15 1 0
BITMAP
02E000
00B400
00E000
7FFF40
7FFF40
7D0000
7D0000
7D0000
7FFE00
7FFE00
7D0000
7D0000
7D0000
7FFF80
7FFF80
ENDCHAR
STARTCHAR uni1EBB
ENCODING 7867
SWIDTH 600 0
DWIDTH 11 0
BBX 9 14 1 0
BITMAP
039000
03F400
00B400
01D000
000000
0BF800
2FFF00
BD0B80
FFFF80
FFFF80
F80000
BE0500
2FFF40
06F900
ENDCHAR
STARTCHAR uni1EBC
ENCODING 7868
SWIDTH 600 0
DWIDTH 11 0
BBX 9 15 1 0
BITMAP
0B9640
2FFF00
287D00
7FFF40
7FFF40
7D0000
7D0000
7D0000
7FFE00
7FFE00
7D0000
7D0000
7D0000
7FFF80
7FFF80
ENDCHAR
STARTCHAR uni1EBD
ENCODING 7869
SWIDTH 600 0
DWIDTH 11 0
BBX 9 14 1 0
BITMAP
010000
1FCB00
2EFE00
287D00
000000
0BF800
2FFF00
BD0B80
FFFF80
FFFF80
F80000
BE0500
2FFF40
06F900
ENDCHAR
STARTCHAR uni1EBE
ENCODING 7870
SWIDTH 600 0
DWIDTH 11 0
BBX 9 16 1 0
BITMAP
000180
02F640
07BC00
0A0900
7FFF40
7FFF40
7D0000
7D0000
7D0000
7FFE00
7FFE00
7D0000
7D0000
7D0000
7FFF80
7FFF80
ENDCHAR
STARTCHAR uni1EBF
ENCODING 7871
SWIDTH 600 0
DWIDTH 11 0
BBX 10 15 1 0
BITMAP
000090
0002C0
02F640
0BBC00
091800
000000
0BF800
2FFF00
BD0B80
FFFF80
FFFF80
F80000
BE0500
2FFF40
06F900
ENDCHAR
STARTCHAR uni1EC0
ENCODING 7872
SWIDTH 600 0
DWIDTH 11 0
BBX 9 16 1 0
BITMAP
600000
2AF400
07BC00
0A0900
7FFF40
7FFF40
7D0000
7D0000
7D0000
7FFE00
7FFE00
7D0000
7D0000
7D0000
7FFF80
7FFF80
ENDCHAR
STARTCHAR uni1EC1
ENCODING 7873
SWIDTH 600 0
DWIDTH 11 0
BBX 9 15 1 0
BITMAP
900000
F00000
26F000
0BBC00
091800
000000
0BF800
2FFF00
BD0B80
FFFF80
FFFF80
F80000
BE0500
2FFF40
06F900
ENDCHAR
STARTCHAR uni1EC2
ENCODING 7874
SWIDTH 600 0
DWIDTH 11 0
BBX 10 16 1 0
BITMAP
000780
02F6D0
07BF80
0A0900
7FFF40
7FFF40
7D0000
7D0000
7D0000
7FFE00
7FFE00
7D0000
7D0000
7D0000
7FFF80
7FFF80
ENDCHAR
STARTCHAR uni1EC3
ENCODING 7875
SWIDTH 600 0
DWIDTH 11 0
BBX 9 15 1 0
BITMAP
000B80
0002C0
02F780
0BBC00
091800
000000
0BF800
2FFF00
BD0B80
FFFF80
FFFF80
F80000
BE0500
2FFF40
06F900
ENDCHAR
STARTCHAR uni1EC4
ENCODING 7876
SWIDTH 600 0
DWIDTH 11 0
BBX 9 17 1 0
BITMAP
014400
0ABD00
02F800
0A5D00
000000
7FFF40
7FFF40
7D0000
7D0000
7D0000
7FFE00
7FFE00
7D0000
7D0000
7D0000
7FFF80
7FFF80
ENDCHAR
STARTCHAR uni1EC5
ENCODING 7877
SWIDTH 600 0
DWIDTH 11 0
BBX 9 15 1 0
BITMAP
014400
0AF800
000000
07F400
0A6800
000000
0BF800
2FFF00
BD0B80
FFFF80
FFFF80
F80000
BE0500
2FFF40
06F900
ENDCHAR
STARTCHAR uni1EC6
ENCODING 7878
SWIDTH 600 0
DWIDTH 11 0
BBX 9 20 1 -5
BITMAP
03F800
0BBD00
090900
7FFF40
7FFF40
7D0000
7D0000
7D0000
7FFE00
7FFE00
7D0000
7D0000
7D0000
7FFF80
7FFF80
000000
000000
01F400
03F800
01F400
ENDCHAR
STARTCHAR uni1EC7
ENCODING 7879
SWIDTH 600 0
DWIDTH 11 0
BBX 9 18 1 -5
BITMAP
07F400
0FBD00
190900
000000
0BF800
2FFF00
BD0B80
FFFF80
FFFF80
F80000
BE0500
2FFF40
06F900
000000
000000
02E000
03F400
02E000
ENDCHAR
STARTCHAR uni1EC8
ENCODING 7880
SWIDTH 600 0
DWIDTH 11 0
BBX 9 15 1 0
BITMAP
03D000
00F000
01D000
BFFF40
BFFF40
03E000
03E000
03E000
03E000
03E000
03E000
03E000
03E000
BFFF40
BFFF40
ENDCHAR
STARTCHAR uni1EC9
ENCODING 7881
SWIDTH 600 0
DWIDTH 11 0
BBX 7 14 1 0
BITMAP
01E0
01F8
007C
00A4
0000
BFF8
BFF8
00F8
00F8
00F8
00F8
00F8
00F8
00F8
ENDCHAR
STARTCHAR uni1ECA
ENCODING 7882
SWIDTH 600 0
DWIDTH 11 0
BBX 9 17 1 -5
BITMAP
BFFF40
BFFF40
03E000
03E000
03E000
03E000
03E000
03E000
03E000
03E000
BFFF40
BFFF40
000000
000000
02E000
07F000
02E000
ENDCHAR
STARTCHAR uni1ECB
ENCODING 7883
SWIDTH 600 0
DWIDTH 11 0
BBX 7 18 1 -5
BITMAP
00F4
01FC
01F4
0000
BFF8
BFF8
00F8
00F8
00F8
00F8
00F8
00F8
00F8
0000
0000
00F4
01FC
01F4
ENDCHAR
STARTCHAR uni1ECC
ENCODING 7884
SWIDTH 600 0
DWIDTH 11 0
BBX 10 17 0 -5
BITMAP
02FD00
0FFF80
2F4BD0
3E03E0
7E02F0
7D02F0
7D02F0
7E02F0
3E03E0
2F4BD0
0FFF80
02FD00
000000
000000
00B800
01FC00
00B800
ENDCHAR
STARTCHAR uni1ECD
ENCODING 7885
SWIDTH 600 0
DWIDTH 11 0
BBX 9 14 1 -5
BITMAP
0BF400
3FFE00
BD1F80
F80FC0
F80BC0
F80FC0
BD1F80
3FFE00
0BF400
000000
000000
02E000
07F000
02E000
ENDCHAR
STARTCHAR uni1ECE
ENCODING 7886
SWIDTH 600 0
DWIDTH 11 0
BBX 10 15 0 0
BITMAP
00F400
003C00
007400
02FD00
0FFF80
2F4BD0
3E03E0
7E02F0
7D02F0
7D02F0
7E02F0
3E03E0
2F4BD0
0FFF80
02FD00
ENDCHAR
STARTCHAR uni1ECF
ENCODING 7887
SWIDTH 600 0
DWIDTH 11 0
BBX 9 14 1 0
BITMAP
039000
07F000
00F000
01D000
000000
0BF400
3FFE00
BD1F80
F80FC0
F80BC0
F80FC0
BD1F80
3FFE00
0BF400
ENDCHAR
STARTCHAR uni1ED0
ENCODING 7888
SWIDTH 600 0
DWIDTH 11 0
BBX 10 16 0 0
BITMAP
0000A0
00FD90
02EE00
024600
02FD00
0FFF80
2F4BD0
3E03E0
7E02F0
7D02F0
7D02F0
7E02F0
3E03E0
2F4BD0
0FFF80
02FD00
ENDCHAR
STARTCHAR uni1ED1
ENCODING 7889
SWIDTH 600 0
DWIDTH 11 0
BBX 9 15 1 0
BITMAP
000180
000380
03E600
0FB800
091800
000000
0BF400
3FFE00
BD1F80
F80FC0
F80BC0
F80FC0
BD1F80
3FFE00
0BF400
ENDCHAR
STARTCHAR uni1ED2
ENCODING 7890
SWIDTH 600 0
DWIDTH 11 0
BBX 10 16 0 0
BITMAP
240000
19FC00
02EE00
024600
02FD00
0FFF80
2F4BD0
3E03E0
7E02F0
7D02F0
7D02F0
7E02F0
3E03E0
2F4BD0
0FFF80
02FD00
ENDCHAR
STARTCHAR uni1ED3
ENCODING 7891
SWIDTH 600 0
DWIDTH 11 0
BBX 10 15 0 0
BITMAP
600000
780000
19F800
03EE00
024600
000000
02FD00
0FFF80
2F47E0
3E03F0
3E02F0
3E03F0
2F47E0
0FFF80
02FD00
ENDCHAR
STARTCHAR uni1ED4
ENCODING 7892
SWIDTH 600 0
DWIDTH 11 0
BBX 10 16 0 0
BITMAP
0002D0
00FCF0
02EFD0
024600
02FD00
0FFF80
2F4BD0
3E03E0
7E02F0
7D02F0
7D02F0
7E02F0
3E03E0
2F4BD0
0FFF80
02FD00
ENDCHAR
STARTCHAR uni1ED5
ENCODING 7893
SWIDTH 600 0
DWIDTH 11 0
BBX 9 15 1 0
BITMAP
000B40
0003C0
03E740
0FB800
091800
000000
0BF400
3FFE00
BD1F80
F80FC0
F80BC0
F80FC0
BD1F80
3FFE00
0BF400
ENDCHAR
STARTCHAR uni1ED6
ENCODING 7894
SWIDTH 600 0
DWIDTH 11 0
BBX 10 17 0 0
BITMAP
014100
07BE00
01FD00
028A00
000000
02FD00
0FFF80
2F4BD0
3E03E0
7E02F0
7D02F0
7D02F0
7E02F0
3E03E0
2F4BD0
0FFF80
02FD00
ENDCHAR
STARTCHAR uni1ED7
ENCODING 7895
SWIDTH 600 0
DWIDTH 11 0
BBX 9 15 1 0
BITMAP
010400
0EF800
000000
07F400
0A6800
000000
0BF400
3FFE00
BD1F80
F80FC0
F80BC0
F80FC0
BD1F80
3FFE00
0BF400
ENDCHAR
STARTCHAR uni1ED8
ENCODING 7896
SWIDTH 600 0
DWIDTH 11 0
BBX 10 20 0 -5
BITMAP
01FD00
07EF00
060600
02FD00
0FFF80
2F4BD0
3E03E0
7E02F0
7D02F0
7D02F0
7E02F0
3E03E0
2F4BD0
0FFF80
02FD00
000000
000000
00B800
01FC00
00B800
ENDCHAR
STARTCHAR uni1ED9
ENCODING 7897
SWIDTH 600 0
DWIDTH 11 0
BBX 9 18 1 -5
BITMAP
07F400
1FBD00
181900
000000
0BF400
3FFE00
BD1F80
F80FC0
F80BC0
F80FC0
BD1F80
3FFE00
0BF400
000000
000000
02E000
07F000
02E000
ENDCHAR
STARTCHAR uni1EDA
ENCODING 7898
SWIDTH 600 0
DWIDTH 11 0
BBX 11 16 0 0
BITMAP
000800
007E64
01F9B8
0090B8
02FEE0
0FFFC0
2F4BD0
3E03E0
7E02F0
7D02F0
7D02F0
7E02F0
3E03E0
2F4BD0
0FFF80
02FD00
ENDCHAR
STARTCHAR uni1EDB
ENCODING 7899
SWIDTH 600 0
DWIDTH 11 0
BBX 10 15 1 0
BITMAP
002400
007D00
01FC00
02E190
0182E0
0002D0
0BFB80
3FFF00
BD1F80
F80FC0
F80BC0
F80F80
BD1F80
3FFE00
0BF400
ENDCHAR
STARTCHAR uni1EDC
ENCODING 7900
SWIDTH 600 0
DWIDTH 11 0
BBX 11 16 0 0
BITMAP
018000
03E064
01FCB8
0024B8
02FEE0
0FFFC0
2F4BD0
3E03E0
7E02F0
7D02F0
7D02F0
7E02F0
3E03E0
2F4BD0
0FFF80
02FD00
ENDCHAR
STARTCHAR uni1EDD
ENCODING 7901
SWIDTH 600 0
DWIDTH 11 0
BBX 10 15 1 0
BITMAP
050000
1F4000
1FC000
07E190
0082E0
0002D0
0BFB80
3FFF00
BD1F80
F80FC0
F80BC0
F80F80
BD1F80
3FFE00
0BF400
ENDCHAR
STARTCHAR uni1EDE
ENCODING 7902
SWIDTH 600 0
DWIDTH 11 0
BBX 11 15 0 0
BITMAP
00F464
003CB8
0074B8
02FEE0
0FFFC0
2F4BD0
3E03E0
7E02F0
7D02F0
7D02F0
7E02F0
3E03E0
2F4BD0
0FFF80
02FD00
ENDCHAR
STARTCHAR uni1EDF
ENCODING 7903
SWIDTH 600 0
DWIDTH 11 0
BBX 10 14 1 0
BITMAP
039000
07F000
00F190
01D2E0
0002D0
0BFB80
3FFF00
BD1F80
F80FC0
F80BC0
F80F80
BD1F80
3FFE00
0BF400
ENDCHAR
STARTCHAR uni1EE0
ENCODING 7904
SWIDTH 600 0
DWIDTH 11 0
BBX 11 15 0 0
BITMAP
0BD6A4
1FFFF8
196EB8
02FEE0
0FFFC0
2F4BD0
3E03E0
7E02F0
7D02F0
7D02F0
7E02F0
3E03E0
2F4BD0
0FFF80
02FD00
ENDCHAR
STARTCHAR uni1EE1
ENCODING 7905
SWIDTH 600 0
DWIDTH 11 0
BBX 10 14 1 0
BITMAP
040000
2F5D00
7FFE90
64BAE0
0002D0
0BFB80
3FFF00
BD1F80
F80FC0
F80BC0
F80F80
BD1F80
3FFE00
0BF400
ENDCHAR
STARTCHAR uni1EE2
ENCODING 7906
SWIDTH 600 0
DWIDTH 11 0
BBX 11 20 0 -5
BITMAP
000064
0000B8
0000B8
02FEE0
0FFFC0
2F4BD0
3E03E0
7E02F0
7D02F0
7D02F0
7E02F0
3E03E0
2F4BD0
0FFF80
02FD00
000000
000000
00B800
01FC00
00B800
ENDCHAR
STARTCHAR uni1EE3
ENCODING 7907
SWIDTH 600 0
DWIDTH 11 0
BBX 10 17 1 -5
BITMAP
000190
0002E0
0002D0
0BFB80
3FFF00
BD1F80
F80FC0
F80BC0
F80F80
BD1F80
3FFE00
0BF400
000000
000000
02E000
07F000
02E000
ENDCHAR
STARTCHAR uni1EE4
ENCODING 7908
SWIDTH 600 0
DWIDTH 11 0
BBX 9 17 1 -5
BITMAP
F80F80
F80F80
F80F80
F80F80
F80F80
F80F80
F80F80
B80F80
BC0F80
7D1F40
3FFE00
0BF800
000000
000000
02E000
07F000
02E000
ENDCHAR
STARTCHAR uni1EE5
ENCODING 7909
SWIDTH 600 0
DWIDTH 11 0
BBX 9 14 1 -5
BITMAP
F81F40
F81F40
F81F40
F81F40
F81F40
F81F40
BC2F40
7FFF40
2F8B40
000000
000000
02E000
03F400
02E000
ENDCHAR
STARTCHAR uni1EE6
ENCODING 7910
SWIDTH 600 0
DWIDTH 11 0
BBX 9 15 1 0
BITMAP
03D000
00F000
01D000
F80F80
F80F80
F80F80
F80F80
F80F80
F80F80
F80F80
B80F80
BC0F80
7D1F40
3FFE00
0BF800
ENDCHAR
STARTCHAR uni1EE7
ENCODING 7911
SWIDTH 600 0
DWIDTH 11 0
BBX 9 14 1 0
BITMAP
039000
07F000
00F000
029000
000000
F81F40
F81F40
F81F40
F81F40
F81F40
F81F40
BC2F40
7FFF40
2F8B40
ENDCHAR
STARTCHAR uni1EE8
ENCODING 7912
SWIDTH 600 0
DWIDTH 11 0
BBX 11 16 1 0
BITMAP
002000
01F868
07E478
0240B8
F80FE0
F80F80
F80F80
F80F80
F80F80
F80F80
F80F80
B80F80
BC0F80
7D1F40
3FFE00
0BF800
ENDCHAR
STARTCHAR uni1EE9
ENCODING 7913
SWIDTH 600 0
DWIDTH 11 0
BBX 10 15 1 0
BITMAP
002400
007D00
01F860
03E0F0
0180F0
0001F0
F81FD0
F81F40
F81F40
F81F40
F81F40
F81F40
BC2F40
7FFF40
2F8B40
ENDCHAR
STARTCHAR uni1EEA
ENCODING 7914
SWIDTH 600 0
DWIDTH 11 0
BBX 11 16 1 0
BITMAP
060000
0F8068
07F078
0090B8
F80FE0
F80F80
F80F80
F80F80
F80F80
F80F80
F80F80
B80F80
BC0F80
7D1F40
3FFE00
0BF800
ENDCHAR
STARTCHAR uni1EEB
ENCODING 7915
SWIDTH 600 0
DWIDTH 11 0
BBX 10 15 1 0
BITMAP
050000
1F4000
1FC060
07E0F0
0080F0
0001F0
F81FD0
F81F40
F81F40
F81F40
F81F40
F81F40
BC2F40
7FFF40
2F8B40
ENDCHAR
STARTCHAR uni1EEC
ENCODING 7916
SWIDTH 600 0
DWIDTH 11 0
BBX 11 15 1 0
BITMAP
03D068
00F078
01D0B8
F80FE0
F80F80
F80F80
F80F80
F80F80
F80F80
F80F80
B80F80
BC0F80
7D1F40
3FFE00
0BF800
ENDCHAR
STARTCHAR uni1EED
ENCODING 7917
SWIDTH 600 0
DWIDTH 11 0
BBX 10 14 1 0
BITMAP
039000
07F060
00F0F0
0290F0
0001F0
F81FD0
F81F40
F81F40
F81F40
F81F40
F81F40
BC2F40
7FFF40
2F8B40
ENDCHAR
STARTCHAR uni1EEE
ENCODING 7918
SWIDTH 600 0
DWIDTH 11 0
BBX 11 15 1 0
BITMAP
1F8A68
3FFE78
28B9B8
F80FE0
F80F80
F80F80
F80F80
F80F80
F80F80
F80F80
B80F80
BC0F80
7D1F40
3FFE00
0BF800
ENDCHAR
STARTCHAR uni1EEF
ENCODING 7919
SWIDTH 600 0
DWIDTH 11 0
BBX 10 14 1 0
BITMAP
040000
2F5D60
7FFDF0
64B8F0
0001F0
F81FD0
F81F40
F81F40
F81F40
F81F40
F81F40
BC2F40
7FFF40
2F8B40
ENDCHAR
STARTCHAR uni1EF0
ENCODING 7920
SWIDTH 600 0
DWIDTH 11 0
BBX 11 20 1 -5
BITMAP
000068
000078
0000B8
F80FE0
F80F80
F80F80
F80F80
F80F80
F80F80
F80F80
B80F80
BC0F80
7D1F40
3FFE00
0BF800
000000
000000
02E000
07F000
02E000
ENDCHAR
STARTCHAR uni1EF1
ENCODING 7921
SWIDTH 600 0
DWIDTH 11 0
BBX 10 18 1 -5
BITMAP
000060
0000F0
0000F0
0001F0
F81FD0
F81F40
F81F40
F81F40
F81F40
F81F40
BC2F40
7FFF40
2F8B40
000000
000000
02E000
03F400
02E000
ENDCHAR
STARTCHAR Ygrave
ENCODING 7922
SWIDTH 600 0
DWIDTH 11 0
BBX 11 16 0 0
BITMAP
018000
03E000
01FC00
002400
7D01F4
3E03E0
2F07D0
0F8BC0
0BCF40
03EF00
02FD00
00FC00
00F800
00F800
00F800
00F800
ENDCHAR
STARTCHAR ygrave
ENCODING 7923
SWIDTH 600 0
DWIDTH 11 0
BBX 10 19 0 -4
BITMAP
018000
07D000
03F000
00F800
002400
000000
7D01F0
2E02E0
1F03D0
0F47C0
07CB80
03DF40
02EF00
00FD00
00BC00
00B800
01F400
1FE000
2F8000
ENDCHAR
STARTCHAR uni1EF4
ENCODING 7924
SWIDTH 600 0
DWIDTH 11 0
BBX 11 17 0 -5
BITMAP
7D01F4
3E03E0
2F07D0
0F8BC0
0BCF40
03EF00
02FD00
00FC00
00F800
00F800
00F800
00F800
000000
000000
00B800
01FC00
00B800
ENDCHAR
STARTCHAR uni1EF5
ENCODING 7925
SWIDTH 600 0
DWIDTH 11 0
BBX 11 14 0 -5
BITMAP
7D01F0
2E02E0
1F03D0
0F47C0
07CB80
03DF40
02EF00
00FD00
00BC00
00B800
01F400
1FE2E0
2F83F4
0002F0
ENDCHAR
STARTCHAR uni1EF6
ENCODING 7926
SWIDTH 600 0
DWIDTH 11 0
BBX 11 15 0 0
BITMAP
00F400
003C00
007400
7D01F4
3E03E0
2F07D0
0F8BC0
0BCF40
03EF00
02FD00
00FC00
00F800
00F800
00F800
00F800
ENDCHAR
STARTCHAR uni1EF7
ENCODING 7927
SWIDTH 600 0
DWIDTH 11 0
BBX 10 18 0 -4
BITMAP
00E400
00FC00
002D00
007400
000000
7D01F0
2E02E0
1F03D0
0F47C0
07CB80
03DF40
02EF00
00FD00
00BC00
00B800
01F400
1FE000
2F8000
ENDCHAR
STARTCHAR uni1EF8
ENCODING 7928
SWIDTH 600 0
DWIDTH 11 0
BBX 11 15 0 0
BITMAP
07E280
0FFF80
0A2E00
7D01F4
3E03E0
2F07D0
0F8BC0
0BCF40
03EF00
02FD00
00FC00
00F800
00F800
00F800
00F800
ENDCHAR
STARTCHAR uni1EF9
ENCODING 7929
SWIDTH 600 0
DWIDTH 11 0
BBX 10 18 0 -4
BITMAP
004000
07E3C0
0BBF80
0A1E00
000000
7D01F0
2E02E0
1F03D0
0F47C0
07CB80
03DF40
02EF00
00FD00
00BC00
00B800
01F400
1FE000
2F8000
ENDCHAR
STARTCHAR uni1FBD
ENCODING 8125
SWIDTH 600 0
DWIDTH 11 0
BBX 4 4 3 10
BITMAP
39
7F
0F
1D
ENDCHAR
STARTCHAR uni1FBE
ENCODING 8126
SWIDTH 600 0
DWIDTH 11 0
BBX 4 7 4 0
BITMAP
F8
F4
F4
F4
F4
FE
7F
ENDCHAR
STARTCHAR uni1FBF
ENCODING 8127
SWIDTH 600 0
DWIDTH 11 0
BBX 4 4 3 10
BITMAP
39
7F
0F
1D
ENDCHAR
STARTCHAR uni1FC0
ENCODING 8128
SWIDTH 600 0
DWIDTH 11 0
BBX 7 4 2 10
BITMAP
0400
7E38
FBF8
A2E0
ENDCHAR
STARTCHAR uni1FC1
ENCODING 8129
SWIDTH 600 0
DWIDTH 11 0
BBX 7 5 2 10
BITMAP
2EB0
6140
0000
74B4
74B4
ENDCHAR
STARTCHAR uni1FCD
ENCODING 8141
SWIDTH 600 0
DWIDTH 11 0
BBX 6 4 2 9
BITMAP
E5E0
38E0
64B0
0010
ENDCHAR
STARTCHAR uni1FCE
ENCODING 8142
SWIDTH 600 0
DWIDTH 11 0
BBX 6 4 2 9
BITMAP
E4F0
38E0
65D0
0040
ENDCHAR
STARTCHAR uni1FCF
ENCODING 8143
SWIDTH 600 0
DWIDTH 11 0
BBX 6 5 2 10
BITMAP
0410
7BE0
0E40
0380
0640
ENDCHAR
STARTCHAR uni1FDD
ENCODING 8157
SWIDTH 600 0
DWIDTH 11 0
BBX 6 4 2 9
BITMAP
79E0
E0E0
70B0
0010
ENDCHAR
STARTCHAR uni1FDE
ENCODING 8158
SWIDTH 600 0
DWIDTH 11 0
BBX 6 4 2 9
BITMAP
6CF0
F1E0
65D0
0040
ENDCHAR
STARTCHAR uni1FDF
ENCODING 8159
SWIDTH 600 0
DWIDTH 11 0
BBX 6 5 2 10
BITMAP
0410
7BE0
0B80
0E00
0700
ENDCHAR
STARTCHAR uni1FED
ENCODING 8173
SWIDTH 600 0
DWIDTH 11 0
BBX 7 4 2 10
BITMAP
0A00
AB38
A778
0340
ENDCHAR
STARTCHAR uni1FEE
ENCODING 8174
SWIDTH 600 0
DWIDTH 11 0
BBX 7 5 2 10
BITMAP
0380
0380
E778
E778
0600
ENDCHAR
STARTCHAR uni1FEF
ENCODING 8175
SWIDTH 600 0
DWIDTH 11 0
BBX 4 4 3 10
BITMAP
68
7C
3D
2D
ENDCHAR
STARTCHAR uni1FFD
ENCODING 8189
SWIDTH 600 0
DWIDTH 11 0
BBX 4 5 4 10
BITMAP
39
3D
7C
78
74
ENDCHAR
STARTCHAR uni1FFE
ENCODING 8190
SWIDTH 600 0
DWIDTH 11 0
BBX 4 4 3 10
BITMAP
1B
7F
78
1D
ENDCHAR
STARTCHAR uni2007
ENCODING 8199
SWIDTH 600 0
DWIDTH 11 0
BBX 1 1 0 0
BITMAP
00
ENDCHAR
STARTCHAR uni2010
ENCODING 8208
SWIDTH 600 0
DWIDTH 11 0
BBX 9 2 1 5
BITMAP
BFFF80
BFFF80
ENDCHAR
STARTCHAR figuredash
ENCODING 8210
SWIDTH 600 0
DWIDTH 11 0
BBX 9 2 1 4
BITMAP
BFFF40
BFFF40
ENDCHAR
STARTCHAR endash
ENCODING 8211
SWIDTH 600 0
DWIDTH 11 0
BBX 9 2 1 4
BITMAP
BFFF40
BFFF40
ENDCHAR
STARTCHAR emdash
ENCODING 8212
SWIDTH 600 0
DWIDTH 11 0
BBX 11 2 0 4
BITMAP
FFFFF8
FFFFF8
ENDCHAR
STARTCHAR uni2015
ENCODING 8213
SWIDTH 600 0
DWIDTH 11 0
BBX 11 2 0 4
BITMAP
FFFFF8
FFFFF8
ENDCHAR
STARTCHAR uni2016
ENCODING 8214
SWIDTH 600 0
DWIDTH 11 0
BBX 7 18 2 -5
BITMAP
B8B8
B8B8
B8B8
B8B8
B8B8
B8B8
B8B8
B8B8
B8B8
B8B8
B8B8
B8B8
B8B8
B8B8
B8B8
B8B8
B8B8
B8B8
ENDCHAR
STARTCHAR underscoredbl
ENCODING 8215
SWIDTH 600 0
DWIDTH 11 0
BBX 9 4 1 -5
BITMAP
FFFF80
FFFF80
FFFF80
FFFF80
ENDCHAR
STARTCHAR quoteleft
ENCODING 8216
SWIDTH 600 0
DWIDTH 11 0
BBX 4 7 3 5
BITMAP
06
1F
78
B4
BE
BF
2E
ENDCHAR
STARTCHAR quoteright
ENCODING 8217
SWIDTH 600 0
DWIDTH 11 0
BBX 5 7 3 5
BITMAP
2E00
7F40
2F40
0740
0F00
3D00
2400
ENDCHAR
STARTCHAR quotesinglbase
ENCODING 8218
SWIDTH 600 0
DWIDTH 11 0
BBX 5 7 3 -4
BITMAP
2E00
7F40
2F40
0740
0F00
3D00
2400
ENDCHAR
STARTCHAR quotereversed
ENCODING 8219
SWIDTH 600 0
DWIDTH 11 0
BBX 4 7 3 5
BITMAP
2E
BF
BE
B4
38
1F
06
ENDCHAR
STARTCHAR quotedblleft
ENCODING 8220
SWIDTH 600 0
DWIDTH 11 0
BBX 9 7 1 5
BITMAP
090200
2E0F40
B42D00
F03800
FD7F40
FE3F40
7D1F00
ENDCHAR
STARTCHAR quotedblright
ENCODING 8221
SWIDTH 600 0
DWIDTH 11 0
BBX 9 7 1 5
BITMAP
7D1E40
BF3F80
7F2F80
0F0380
1E0B40
782E00
601400
ENDCHAR
STARTCHAR quotedblbase
ENCODING 8222
SWIDTH 600 0
DWIDTH 11 0
BBX 9 7 1 -4
BITMAP
7D1E40
BF3F80
7F2F80
0F0380
1E0B40
782E00
601400
ENDCHAR
STARTCHAR dagger
ENCODING 8224
SWIDTH 600 0
DWIDTH 11 0
BBX 9 15 1 -2
BITMAP
02D000
02D000
02D000
7FFF40
7FFF40
02D000
02D000
02D000
02D000
02D000
02D000
02D000
02D000
02D000
014000
ENDCHAR
STARTCHAR daggerdbl
ENCODING 8225
SWIDTH 600 0
DWIDTH 11 0
BBX 9 14 1 -1
BITMAP
02D000
02D000
02D000
7FFF40
7FFF40
02D100
02D000
02D000
02D000
7FFF40
7FFF40
02D000
02D000
02D000
ENDCHAR
STARTCHAR bullet
ENCODING 8226
SWIDTH 600 0
DWIDTH 11 0
BBX 7 6 2 2
BITMAP
1B80
3FF0
7FF4
7FF4
3FF0
1B80
ENDCHAR
STARTCHAR ellipsis
ENCODING 8230
SWIDTH 600 0
DWIDTH 11 0
BBX 11 3 0 0
BITMAP
B8B8F4
FDFDF8
B8B8F4
ENDCHAR
STARTCHAR uni202F
ENCODING 8239
SWIDTH 600 0
DWIDTH 11 0
BBX 1 1 0 0
BITMAP
00
ENDCHAR
STARTCHAR perthousand
ENCODING 8240
SWIDTH 600 0
DWIDTH 11 0
BBX 11 11 0 0
BITMAP
2F4000
7FC000
7FC1B0
2F5BE4
01F900
0E4000
2F47D0
7FCFF0
76DD74
7FCFF0
1F47D0
ENDCHAR
STARTCHAR uni2032
ENCODING 8242
SWIDTH 600 0
DWIDTH 11 0
BBX 3 6 4 6
BITMAP
BC
BC
B8
B8
B4
B0
ENDCHAR
STARTCHAR uni2033
ENCODING 8243
SWIDTH 600 0
DWIDTH 11 0
BBX 8 6 2 6
BITMAP
BC7D
B87C
B8BC
B4B8
F0B4
F0B0
ENDCHAR
STARTCHAR uni2035
ENCODING 8245
SWIDTH 600 0
DWIDTH 11 0
BBX 4 6 3 6
BITMAP
7D
3D
3D
2E
1E
1E
ENDCHAR
STARTCHAR guilsinglleft
ENCODING 8249
SWIDTH 600 0
DWIDTH 11 0
BBX 4 8 3 1
BITMAP
06
1F
BD
F4
F4
BD
1F
06
ENDCHAR
STARTCHAR guilsinglright
ENCODING 8250
SWIDTH 600 0
DWIDTH 11 0
BBX 5 8 3 1
BITMAP
2400
7D00
1F40
0B80
0B80
1F40
7D00
2400
ENDCHAR
STARTCHAR exclamdbl
ENCODING 8252
SWIDTH 600 0
DWIDTH 11 0
BBX 9 12 1 0
BITMAP
7D1F00
7D1F00
7C1F00
7C1F00
3C1F00
3C0E00
3C0E00
000000
7D1E00
BE3F80
BE3F80
7D1E00
ENDCHAR
STARTCHAR uni203D
ENCODING 8253
SWIDTH 600 0
DWIDTH 11 0
BBX 8 12 1 0
BITMAP
1BE4
BFFE
242F
079F
079E
03FD
03F4
03D0
0000
07D0
0BE0
07D0
ENDCHAR
STARTCHAR uni203E
ENCODING 8254
SWIDTH 600 0
DWIDTH 11 0
BBX 9 2 1 10
BITMAP
FFFF80
FFFF80
ENDCHAR
STARTCHAR uni203F
ENCODING 8255
SWIDTH 600 0
DWIDTH 11 0
BBX 17 4 -3 -4
BITMAP
5000000200
BE50016F40
1BFFFFF800
006FFA4000
ENDCHAR
STARTCHAR fraction
ENCODING 8260
SWIDTH 600 0
DWIDTH 11 0
BBX 11 11 0 0
BITMAP
000060
0000F4
0003D0
000B40
000000
000000
010000
074000
1E0000
780000
200000
ENDCHAR
STARTCHAR uni2047
ENCODING 8263
SWIDTH 600 0
DWIDTH 11 0
BBX 11 12 0 0
BITMAP
6F5BD0
7FEFF4
17D5F4
07C1F4
0F83E0
1F07C0
2E0B80
000000
2E0780
3F4FD0
3F4FD0
2E0780
ENDCHAR
STARTCHAR uni2048
ENCODING 8264
SWIDTH 600 0
DWIDTH 11 0
BBX 10 12 0 0
BITMAP
6F47D0
7FD7D0
17D7C0
07C7C0
0F83C0
1F03C0
2E0380
000000
2E07D0
3F4BE0
3F4BE0
2E07C0
ENDCHAR
STARTCHAR uni2049
ENCODING 8265
SWIDTH 600 0
DWIDTH 11 0
BBX 10 12 1 0
BITMAP
7D6F40
7C7FD0
7C17D0
7C07D0
7C0F80
3C1F00
382E00
000000
7C1E00
FE3F40
BE3F40
7C1E00
ENDCHAR
STARTCHAR zero.sups
ENCODING 8304
SWIDTH 600 0
DWIDTH 11 0
BBX 7 8 2 6
BITMAP
1B80
3FF0
78B4
B474
B474
78B4
3FF0
1F80
ENDCHAR
STARTCHAR i.sups
ENCODING 8305
SWIDTH 600 0
DWIDTH 11 0
BBX 5 10 3 6
BITMAP
0B40
0B40
0000
FF40
FF40
0B40
0B40
0B40
0B40
0500
ENDCHAR
STARTCHAR four.sups
ENCODING 8308
SWIDTH 600 0
DWIDTH 11 0
BBX 7 7 2 7
BITMAP
0600
0E00
2DA0
38E0
BFF8
BFF8
00E0
ENDCHAR
STARTCHAR five.sups
ENCODING 8309
SWIDTH 600 0
DWIDTH 11 0
BBX 7 8 2 6
BITMAP
2FF0
2FF0
2FD0
3FF0
00B4
20B4
7FE0
1F80
ENDCHAR
STARTCHAR six.sups
ENCODING 8310
SWIDTH 600 0
DWIDTH 11 0
BBX 7 8 2 6
BITMAP
0BE0
2FF0
7810
7BD0
7FF0
78B4
3FF0
0B90
ENDCHAR
STARTCHAR seven.sups
ENCODING 8311
SWIDTH 600 0
DWIDTH 11 0
BBX 7 7 2 7
BITMAP
7FF4
7FF0
00D0
02C0
0780
0B40
0B40
ENDCHAR
STARTCHAR eight.sups
ENCODING 8312
SWIDTH 600 0
DWIDTH 11 0
BBX 7 8 2 6
BITMAP
1F90
3FF0
78F0
2FD0
2FE0
78B4
7FF0
1F90
ENDCHAR
STARTCHAR nine.sups
ENCODING 8313
SWIDTH 600 0
DWIDTH 11 0
BBX 7 8 2 6
BITMAP
1F80
7FE0
74B0
7FF4
2FF4
10F0
3FE0
2F80
ENDCHAR
STARTCHAR parenleft.sups
ENCODING 8317
SWIDTH 600 0
DWIDTH 11 0
BBX 3 10 4 5
BITMAP
18
38
B4
F0
E0
E0
F0
B4
38
18
ENDCHAR
STARTCHAR parenright.sups
ENCODING 8318
SWIDTH 600 0
DWIDTH 11 0
BBX 4 10 3 5
BITMAP
64
3C
2D
1E
0E
0E
1E
2D
3C
64
ENDCHAR
STARTCHAR n.sups
ENCODING 8319
SWIDTH 600 0
DWIDTH 11 0
BBX 7 7 2 6
BITMAP
76E0
7FF4
78B4
7874
7874
7874
1454
ENDCHAR
STARTCHAR zero.subs
ENCODING 8320
SWIDTH 600 0
DWIDTH 11 0
BBX 7 8 2 -4
BITMAP
1B80
3FF0
78B4
B474
B474
78B4
3FF0
1F80
ENDCHAR
STARTCHAR one.subs
ENCODING 8321
SWIDTH 600 0
DWIDTH 11 0
BBX 6 8 3 -4
BITMAP
5F00
BF00
0B00
0B00
0B00
0B00
FFF0
FFF0
ENDCHAR
STARTCHAR two.subs
ENCODING 8322
SWIDTH 600 0
DWIDTH 11 0
BBX 7 8 2 -4
BITMAP
1F80
7FE0
21F0
00E0
02D0
0B40
7FF4
7FF4
ENDCHAR
STARTCHAR three.subs
ENCODING 8323
SWIDTH 600 0
DWIDTH 11 0
BBX 7 8 2 -4
BITMAP
1F90
7FE0
15F0
0BD0
0BE0
20B4
7FF0
1F90
ENDCHAR
STARTCHAR four.subs
ENCODING 8324
SWIDTH 600 0
DWIDTH 11 0
BBX 7 7 2 -3
BITMAP
0600
0E00
2DA0
38E0
BFF8
BFF8
00E0
ENDCHAR
STARTCHAR five.subs
ENCODING 8325
SWIDTH 600 0
DWIDTH 11 0
BBX 7 8 2 -4
BITMAP
2FF0
2FF0
2FD0
3FF0
00B4
20B4
7FE0
1F80
ENDCHAR
STARTCHAR six.subs
ENCODING 8326
SWIDTH 600 0
DWIDTH 11 0
BBX 7 8 2 -4
BITMAP
0BE0
2FF0
7810
7BD0
7FF0
78B4
3FF0
0B90
ENDCHAR
STARTCHAR seven.subs
ENCODING 8327
SWIDTH 600 0
DWIDTH 11 0
BBX 7 7 2 -3
BITMAP
7FF4
7FF0
00D0
02C0
0780
0B40
0B40
ENDCHAR
STARTCHAR eight.subs
ENCODING 8328
SWIDTH 600 0
DWIDTH 11 0
BBX 7 8 2 -4
BITMAP
1F90
3FF0
78F0
2FD0
2FE0
78B4
7FF0
1F90
ENDCHAR
STARTCHAR nine.subs
ENCODING 8329
SWIDTH 600 0
DWIDTH 11 0
BBX 7 8 2 -4
BITMAP
1F80
7FE0
74B0
7FF4
2FF4
10F0
3FE0
2F80
ENDCHAR
STARTCHAR parenleft.subs
ENCODING 8333
SWIDTH 600 0
DWIDTH 11 0
BBX 3 10 4 -5
BITMAP
18
38
B4
F0
E0
E0
F0
B4
38
18
ENDCHAR
STARTCHAR parenright.subs
ENCODING 8334
SWIDTH 600 0
DWIDTH 11 0
BBX 4 10 3 -5
BITMAP
64
3C
2D
1E
0E
0E
1E
2D
3C
64
ENDCHAR
STARTCHAR uni0259.sups
ENCODING 8340
SWIDTH 600 0
DWIDTH 11 0
BBX 7 7 2 6
BITMAP
1F80
3FE0
BFF4
7FF4
74B4
3FE0
1F80
ENDCHAR
STARTCHAR colonmonetary
ENCODING 8353
SWIDTH 600 0
DWIDTH 11 0
BBX 9 15 1 -2
BITMAP
002500
006900
06FF40
1FFF80
3F9D00
7D9C00
BCD800
BCD800
7D9400
7EA400
3FA500
1FFF80
07FF40
027000
026000
ENDCHAR
STARTCHAR franc
ENCODING 8355
SWIDTH 600 0
DWIDTH 11 0
BBX 9 11 1 0
BITMAP
2FFF80
2FFF80
2F0000
2F0000
2FFF00
2FFF00
2F0000
FFF800
FFF800
2F0000
2F0000
ENDCHAR
STARTCHAR lira
ENCODING 8356
SWIDTH 600 0
DWIDTH 11 0
BBX 9 11 1 0
BITMAP
02FE00
0BFF80
1F4600
2F0000
BFFD00
0F4000
BFFD00
0F4000
1F0000
BFFFC0
BFFFC0
ENDCHAR
STARTCHAR uni20A6
ENCODING 8358
SWIDTH 600 0
DWIDTH 11 0
BBX 11 11 0 0
BITMAP
1F43C0
1F83C0
1EC3C0
1EE3C0
7FFFF4
1E76C0
7FFFF4
1E2EC0
1E1EC0
1E0FC0
1E0BC0
ENDCHAR
STARTCHAR peseta
ENCODING 8359
SWIDTH 600 0
DWIDTH 11 0
BBX 11 11 0 0
BITMAP
1FF900
1FFF80
1F4BD0
BFFFF8
BFFFF8
1F4BD0
1FFF80
1FF900
1F4000
1F4000
1F4000
ENDCHAR
STARTCHAR uni20A9
ENCODING 8361
SWIDTH 600 0
DWIDTH 11 0
BBX 11 11 0 0
BITMAP
3C54F0
3DB9F0
3DB9E0
2DE9E0
2DEDE0
BFFFF8
1EDED0
1EDED0
1FCEC0
0FCFC0
0F8FC0
ENDCHAR
STARTCHAR dong
ENCODING 8363
SWIDTH 600 0
DWIDTH 11 0
BBX 9 13 1 0
BITMAP
001E00
03FFC0
03FFC0
001E00
0BEE00
3FFE00
7D1E00
7D2E00
3FFE00
1BDA00
000000
3FFF40
3FFF40
ENDCHAR
STARTCHAR Euro
ENCODING 8364
SWIDTH 600 0
DWIDTH 11 0
BBX 11 11 0 0
BITMAP
006F90
03FFF0
0BD090
3FFFC0
7FFFC0
1F4000
3FFF40
7FFF40
0BD0A0
07FFF4
00BF90
ENDCHAR
STARTCHAR uni20AE
ENCODING 8366
SWIDTH 600 0
DWIDTH 11 0
BBX 11 11 0 0
BITMAP
7FFFF4
7FFFF4
00F800
00F980
00FF80
06F840
1EFF80
05FD00
1FF800
04F800
00F800
ENDCHAR
STARTCHAR uni20B1
ENCODING 8369
SWIDTH 600 0
DWIDTH 11 0
BBX 11 11 0 0
BITMAP
1FF900
1FFF40
1F4BC0
BFFFF8
1F43D0
BFFFF8
1F4BC0
1FFF40
1FF900
1F4000
1F4000
ENDCHAR
STARTCHAR uni20B2
ENCODING 8370
SWIDTH 600 0
DWIDTH 11 0
BBX 9 15 1 -2
BITMAP
00B000
00B000
06FD00
1FFF40
3F4600
7D0000
BC0000
BC3F80
BC3F80
BD0B80
3F4B80
1FFF80
06FE00
00B000
00B000
ENDCHAR
STARTCHAR uni20B4
ENCODING 8372
SWIDTH 600 0
DWIDTH 11 0
BBX 9 11 1 0
BITMAP
0BE400
3FFD00
183E00
003E00
FFFF80
0BF400
FFFF80
3E0000
3E0600
1FFF40
06F900
ENDCHAR
STARTCHAR uni20B5
ENCODING 8373
SWIDTH 600 0
DWIDTH 11 0
BBX 9 15 1 -2
BITMAP
007400
007400
02FE00
1FFF80
3F7500
7D7400
7C7400
BC7400
BC7400
7D7400
3F7600
1FFF80
06FE00
007400
007400
ENDCHAR
STARTCHAR uni20B8
ENCODING 8376
SWIDTH 600 0
DWIDTH 11 0
BBX 11 11 0 0
BITMAP
7FFFF4
7FFFF4
000000
7FFFF4
7FFFF4
00F800
00F800
00F800
00F800
00F800
00F800
ENDCHAR
STARTCHAR uni20B9
ENCODING 8377
SWIDTH 600 0
DWIDTH 11 0
BBX 9 11 1 0
BITMAP
7FFF40
7FFF40
01F800
7FFF40
7FFF40
01FC00
7FF400
7FD000
07E000
01F800
007E00
ENDCHAR
STARTCHAR uni20BA
ENCODING 8378
SWIDTH 600 0
DWIDTH 11 0
BBX 10 11 0 0
BITMAP
0B8000
0BDA00
0BF900
1FD500
7FFE00
0FE010
7F81F0
6F82E0
0B8BD0
0BFF80
0BE900
ENDCHAR
STARTCHAR uni20BD
ENCODING 8381
SWIDTH 600 0
DWIDTH 11 0
BBX 10 11 0 0
BITMAP
0BFE40
0BFFE0
0B82F0
0B82F0
BFFFE0
BFFE40
0B8000
BFFFC0
BFFFC0
0B8000
0B8000
ENDCHAR
STARTCHAR uni2105
ENCODING 8453
SWIDTH 600 0
DWIDTH 11 0
BBX 11 11 0 0
BITMAP
1F4060
3F81F0
7403C0
740600
7F8000
1F4B90
026FF0
0B3CB4
3D3CB4
742FF0
100B90
ENDCHAR
STARTCHAR uni2113
ENCODING 8467
SWIDTH 600 0
DWIDTH 11 0
BBX 9 13 1 0
BITMAP
01F900
07FF00
0BCF40
0F8B40
0F8F00
0FAE00
0FF800
0FE000
1F8000
7F8000
2BD200
07FF40
01BD00
ENDCHAR
STARTCHAR uni2116
ENCODING 8470
SWIDTH 600 0
DWIDTH 11 0
BBX 13 11 -1 0
BITMAP
3E1E7D00
3E2EBF00
3F2DE740
3B6DE740
3BADBF00
3EED7D00
3DED0000
3CED7E00
3CFD7E00
7CBD0000
747D0000
ENDCHAR
STARTCHAR uni2117
ENCODING 8471
SWIDTH 600 0
DWIDTH 11 0
BBX 11 11 0 0
BITMAP
02FE00
1FFFC0
3D06E0
755470
A2FF34
A2FF64
A2FD34
754070
3D06E0
1FFFC0
02FE00
ENDCHAR
STARTCHAR uni2120
ENCODING 8480
SWIDTH 600 0
DWIDTH 11 0
BBX 11 7 0 6
BITMAP
7D3C78
BF3DB8
B13DB8
2D3AE8
5B3BA8
FF3668
7D2428
ENDCHAR
STARTCHAR trademark
ENCODING 8482
SWIDTH 600 0
DWIDTH 11 0
BBX 12 5 -1 7
BITMAP
7FDF1E
7FDF6E
0B0EBE
0B0EFA
0B0DEA
ENDCHAR
STARTCHAR uni2126
ENCODING 8486
SWIDTH 600 0
DWIDTH 11 0
BBX 11 12 0 0
BITMAP
02FD00
0FFF80
2F4BD0
3E03E0
7E02F0
7D02F0
7D02F0
3E02E0
2E03D0
0F4780
7F8BF4
7F8FF4
ENDCHAR
STARTCHAR estimated
ENCODING 8494
SWIDTH 600 0
DWIDTH 11 0
BBX 11 12 0 0
BITMAP
010000
080040
2800D0
3800E0
7800F0
7800F4
7FFFF4
780000
380000
280000
080080
000100
ENDCHAR
STARTCHAR uni2150
ENCODING 8528
SWIDTH 600 0
DWIDTH 11 0
BBX 11 12 0 0
BITMAP
1B4000
3F4060
0B40F4
0B43D0
0B4B40
0B4000
001FF8
011FF4
0740E0
1E02D0
7803C0
200380
ENDCHAR
STARTCHAR uni2151
ENCODING 8529
SWIDTH 600 0
DWIDTH 11 0
BBX 11 12 0 0
BITMAP
1B4000
3F4060
0B40F4
0B43D0
0B4B40
0B4000
000BD0
011FF0
075FF4
1E0FF4
781FF0
200B90
ENDCHAR
STARTCHAR uni2152
ENCODING 8530
SWIDTH 600 0
DWIDTH 11 0
BBX 10 11 1 0
BITMAP
FD0000
FD0000
2D06C0
2D6F90
07E400
390000
001F40
FD3FC0
FD75D0
2D3FC0
2D1F40
ENDCHAR
STARTCHAR onethird
ENCODING 8531
SWIDTH 600 0
DWIDTH 11 0
BBX 11 12 0 0
BITMAP
1B4000
3F4060
0B40F4
0B43D0
0B4B40
0B4000
000BD0
010FF0
0744F0
1E07E0
781FF4
200BE0
ENDCHAR
STARTCHAR twothirds
ENCODING 8532
SWIDTH 600 0
DWIDTH 11 0
BBX 11 12 0 0
BITMAP
2F4000
7FC060
1380F4
0B03D0
7FDB40
7FD000
000BD0
010FF0
0744F0
1E07E0
781FF4
200BE0
ENDCHAR
STARTCHAR uni2155
ENCODING 8533
SWIDTH 600 0
DWIDTH 11 0
BBX 11 12 0 0
BITMAP
1B4000
3F4060
0B40F4
0B43D0
0B4B40
0B4000
000BF0
010BF0
074FE0
1E0FF4
781FF4
200BE0
ENDCHAR
STARTCHAR uni2156
ENCODING 8534
SWIDTH 600 0
DWIDTH 11 0
BBX 11 12 0 0
BITMAP
2F4000
7FC060
1380F4
0B03D0
7FDB40
7FD000
000BF0
010BF0
074FE0
1E0FF4
781FF4
200BE0
ENDCHAR
STARTCHAR uni2157
ENCODING 8535
SWIDTH 600 0
DWIDTH 11 0
BBX 11 12 0 0
BITMAP
2F4000
7FC060
13C0F4
1F83D0
7FCB40
2F8000
000BF0
010BF0
074FE0
1E0FF4
781FF4
200BE0
ENDCHAR
STARTCHAR uni2158
ENCODING 8536
SWIDTH 600 0
DWIDTH 11 0
BBX 11 12 0 0
BITMAP
1D0000
2D8060
76C0F4
BFE3D0
BFEB40
02C000
000BF0
010BF0
074FE0
1E0FF4
781FF4
200BE0
ENDCHAR
STARTCHAR uni2159
ENCODING 8537
SWIDTH 600 0
DWIDTH 11 0
BBX 11 12 0 0
BITMAP
1B4000
3F4060
0B40F4
0B43D0
0B4B40
0B4000
0006E0
010FF0
075FF0
1E1FF4
781FF4
2007E0
ENDCHAR
STARTCHAR uni215A
ENCODING 8538
SWIDTH 600 0
DWIDTH 11 0
BBX 11 12 0 0
BITMAP
3FC000
3FC060
3F80F4
3FD3D0
7FCB40
2F4000
0006E0
010FF0
075FF0
1E1FF4
781FF4
2007E0
ENDCHAR
STARTCHAR oneeighth
ENCODING 8539
SWIDTH 600 0
DWIDTH 11 0
BBX 11 12 0 0
BITMAP
1B4000
3F4060
0B40F4
0B43D0
0B4B40
0B4000
000BE0
011FF4
074BE0
1E0FF0
781FF4
200BE0
ENDCHAR
STARTCHAR threeeighths
ENCODING 8540
SWIDTH 600 0
DWIDTH 11 0
BBX 11 12 0 0
BITMAP
2F4000
7FC060
13C0F4
1F83D0
7FCB40
2F8000
000BE0
011FF4
074BE0
1E0FF0
781FF4
200BE0
ENDCHAR
STARTCHAR fiveeighths
ENCODING 8541
SWIDTH 600 0
DWIDTH 11 0
BBX 11 12 0 0
BITMAP
3FC000
3FC060
3F80F4
3FD3D0
7FCB40
2F4000
000BE0
011FF4
074BE0
1E0FF0
781FF4
200BE0
ENDCHAR
STARTCHAR seveneighths
ENCODING 8542
SWIDTH 600 0
DWIDTH 11 0
BBX 11 12 0 0
BITMAP
7FD000
7FD060
0380F4
0B03D0
0E0B40
1E0000
000BE0
011FF4
074BE0
1E0FF0
781FF4
200BE0
ENDCHAR
STARTCHAR uni2189
ENCODING 8585
SWIDTH 600 0
DWIDTH 11 0
BBX 11 12 0 0
BITMAP
1F8000
7FD060
75E0F4
75E3D0
7FDB40
1F8000
000BD0
010FF0
0744F0
1E07E0
781FF4
200BE0
ENDCHAR
STARTCHAR uni2190
ENCODING 8592
SWIDTH 600 0
DWIDTH 11 0
BBX 11 10 0 0
BITMAP
005000
01F400
07E000
1F4000
7FFFF4
7FFFF4
1F4000
07E000
01F400
005000
ENDCHAR
STARTCHAR arrowup
ENCODING 8593
SWIDTH 600 0
DWIDTH 11 0
BBX 9 10 1 0
BITMAP
018000
03E000
0FF800
3FFE00
FADB80
A2D280
02D000
02D000
02D000
02D000
ENDCHAR
STARTCHAR uni2192
ENCODING 8594
SWIDTH 600 0
DWIDTH 11 0
BBX 10 10 0 0
BITMAP
002000
007800
002F00
000BC0
7FFFF0
7FFFF0
000BC0
002F00
007800
002000
ENDCHAR
STARTCHAR arrowdown
ENCODING 8595
SWIDTH 600 0
DWIDTH 11 0
BBX 9 10 1 0
BITMAP
02D000
02D000
02D000
02D000
A2D280
FADB80
3FFE00
0FF800
03E000
018000
ENDCHAR
STARTCHAR arrowboth
ENCODING 8596
SWIDTH 600 0
DWIDTH 11 0
BBX 11 8 0 1
BITMAP
060240
1F07C0
3D01E0
BFFFF8
BFFFF8
3D01E0
1F07C0
060240
ENDCHAR
STARTCHAR arrowupdn
ENCODING 8597
SWIDTH 600 0
DWIDTH 11 0
BBX 9 11 1 -1
BITMAP
019000
0BF400
2FFE00
7AEB40
12D100
02D000
12D100
7AEB40
2FFE00
0BF400
019000
ENDCHAR
STARTCHAR uni2196
ENCODING 8598
SWIDTH 600 0
DWIDTH 11 0
BBX 9 8 1 0
BITMAP
7FFE00
7FAE00
7F8000
7BE000
79F800
787E00
781F40
000500
ENDCHAR
STARTCHAR uni2197
ENCODING 8599
SWIDTH 600 0
DWIDTH 11 0
BBX 8 8 1 0
BITMAP
3FFF
3EFF
01FF
07EF
1F8F
7E0F
B80A
1000
ENDCHAR
STARTCHAR uni2198
ENCODING 8600
SWIDTH 600 0
DWIDTH 11 0
BBX 8 8 1 1
BITMAP
1000
7D0B
2F4B
0BDB
02FB
00BF
2FFF
2FFF
ENDCHAR
STARTCHAR uni2199
ENCODING 8601
SWIDTH 600 0
DWIDTH 11 0
BBX 8 8 2 1
BITMAP
0014
E07D
E1F8
E7E0
EF80
FE00
FFF8
FFF8
ENDCHAR
STARTCHAR arrowupdnbse
ENCODING 8616
SWIDTH 600 0
DWIDTH 11 0
BBX 9 13 1 -3
BITMAP
01D000
0BF400
2FFE00
7AEB40
12D100
02D000
12D100
7AEB40
2FFE00
0BF400
01D000
FFFF80
FFFF80
ENDCHAR
STARTCHAR uni21D0
ENCODING 8656
SWIDTH 600 0
DWIDTH 11 0
BBX 11 11 0 -1
BITMAP
001000
00B400
02E000
0BFFF4
2FFFF4
BC0000
2FFFF4
0BFFF4
02E000
00B400
001000
ENDCHAR
STARTCHAR uni21D1
ENCODING 8657
SWIDTH 600 0
DWIDTH 11 0
BBX 9 10 1 0
BITMAP
018000
03E000
0FB800
3E3E00
FE3F80
AA3A80
0A3800
0A3800
0A3800
0A3800
ENDCHAR
STARTCHAR uni21D2
ENCODING 8658
SWIDTH 600 0
DWIDTH 11 0
BBX 11 11 0 -1
BITMAP
001000
007800
002E00
7FFF80
7FFFE0
0001F4
7FFFE0
7FFF80
002E00
007800
001000
ENDCHAR
STARTCHAR uni21D3
ENCODING 8659
SWIDTH 600 0
DWIDTH 11 0
BBX 9 10 1 0
BITMAP
0A3800
0A3800
0A3800
0A3800
AA3A80
FE3F80
3E3E00
0FB800
03E000
018000
ENDCHAR
STARTCHAR uni2200
ENCODING 8704
SWIDTH 600 0
DWIDTH 11 0
BBX 11 12 0 0
BITMAP
BC01F4
7D01F4
3E02F0
2FFFE0
1FFFD0
1F47C0
0F8B80
0BCF40
07DF00
03EE00
02FD00
01FC00
ENDCHAR
STARTCHAR partialdiff
ENCODING 8706
SWIDTH 600 0
DWIDTH 11 0
BBX 9 12 1 0
BITMAP
0BF800
1FFE00
092F40
000F80
000F80
1BEB80
3FFF80
BD1F40
F81F40
B82E00
7FFC00
1BE000
ENDCHAR
STARTCHAR uni2203
ENCODING 8707
SWIDTH 600 0
DWIDTH 11 0
BBX 8 12 1 0
BITMAP
BFFF
BFFF
002F
002F
002F
3FFF
3FFF
002F
002F
002F
BFFF
BFFF
ENDCHAR
STARTCHAR uni2206
ENCODING 8710
SWIDTH 600 0
DWIDTH 11 0
BBX 11 12 0 0
BITMAP
01FC00
02FD00
03EE00
07DF00
0B8F40
0F8F80
1F4BC0
2F07D0
3E03E0
7E02F0
7FFFF4
7FFFF4
ENDCHAR
STARTCHAR product
ENCODING 8719
SWIDTH 600 0
DWIDTH 11 0
BBX 11 13 0 -2
BITMAP
BFFFF4
BFFFF4
BC01F4
BC01F4
BC01F4
BC01F4
BC01F4
BC01F4
BC01F4
BC01F4
BC01F4
BC01F4
BC01F4
ENDCHAR
STARTCHAR summation
ENCODING 8721
SWIDTH 600 0
DWIDTH 11 0
BBX 9 13 1 -2
BITMAP
BFFF80
BFFF80
3E0000
1F4000
0BC000
03E000
01F400
03E000
0BC000
1F4000
3E0000
BFFFC0
FFFFC0
ENDCHAR
STARTCHAR minus
ENCODING 8722
SWIDTH 600 0
DWIDTH 11 0
BBX 9 2 1 5
BITMAP
BFFF80
BFFF80
ENDCHAR
STARTCHAR uni2215
ENCODING 8725
SWIDTH 600 0
DWIDTH 11 0
BBX 11 11 0 0
BITMAP
000060
0000F4
0003D0
000B40
000000
000000
010000
074000
1E0000
780000
200000
ENDCHAR
STARTCHAR uni2219
ENCODING 8729
SWIDTH 600 0
DWIDTH 11 0
BBX 5 4 3 4
BITMAP
2E00
BF40
BF40
2E00
ENDCHAR
STARTCHAR radical
ENCODING 8730
SWIDTH 600 0
DWIDTH 11 0
BBX 11 16 0 -1
BITMAP
000024
000078
000074
0000B0
0000E0
0000E0
0001D0
0602C0
7F0380
2B4380
038740
02CB00
01DA00
00EE00
00BD00
003C00
ENDCHAR
STARTCHAR infinity
ENCODING 8734
SWIDTH 600 0
DWIDTH 11 0
BBX 12 7 -1 2
BITMAP
0BD2F8
2FFBFE
3CBD1F
7C7D0F
3FFE1F
1B9FFD
0002F4
ENDCHAR
STARTCHAR orthogonal
ENCODING 8735
SWIDTH 600 0
DWIDTH 11 0
BBX 9 9 1 2
BITMAP
600000
B40000
B40000
B40000
B40000
B40000
B40000
BFFF80
BFFF80
ENDCHAR
STARTCHAR intersection
ENCODING 8745
SWIDTH 600 0
DWIDTH 11 0
BBX 9 9 1 1
BITMAP
0BF400
2FFE00
7D1F00
B40B40
B40740
B40740
B40740
B40740
B40740
ENDCHAR
STARTCHAR integral
ENCODING 8747
SWIDTH 600 0
DWIDTH 11 0
BBX 7 17 2 -3
BITMAP
02F4
07F4
0B80
0F40
0F40
0F40
0F40
0B80
0B80
0BC0
07C0
07C0
07C0
07C0
0BC0
7F40
7E00
ENDCHAR
STARTCHAR uni2237
ENCODING 8759
SWIDTH 600 0
DWIDTH 11 0
BBX 9 10 1 1
BITMAP
7D1F40
FF3FC0
FF3FC0
7D1F40
000000
000000
7D1F40
FF3FC0
FF3FC0
7D1F40
ENDCHAR
STARTCHAR approxequal
ENCODING 8776
SWIDTH 600 0
DWIDTH 11 0
BBX 9 8 1 2
BITMAP
1E0240
7FD780
B5FF00
A07D00
1E0240
7FD780
B5FF00
A07D00
ENDCHAR
STARTCHAR notequal
ENCODING 8800
SWIDTH 600 0
DWIDTH 11 0
BBX 9 10 1 1
BITMAP
000B00
001D00
BFFF80
BFFF80
00E000
02C000
BFFF80
BFFF80
1D0000
380000
ENDCHAR
STARTCHAR equivalence
ENCODING 8801
SWIDTH 600 0
DWIDTH 11 0
BBX 9 10 1 1
BITMAP
BFFF80
BFFF80
000000
000000
BFFF80
BFFF80
000000
000000
BFFF80
BFFF80
ENDCHAR
STARTCHAR lessequal
ENCODING 8804
SWIDTH 600 0
DWIDTH 11 0
BBX 9 10 1 0
BITMAP
000140
006F80
1BFE40
BE9000
BE9000
1BFE40
006F80
000140
BFFF80
BFFF80
ENDCHAR
STARTCHAR greaterequal
ENCODING 8805
SWIDTH 600 0
DWIDTH 11 0
BBX 9 10 1 0
BITMAP
500000
BE4000
6FF900
01BF80
01BF80
6FF900
BE4000
500000
BFFF80
BFFF80
ENDCHAR
STARTCHAR house
ENCODING 8962
SWIDTH 600 0
DWIDTH 11 0
BBX 11 12 0 0
BITMAP
00F800
02FD00
07DF40
0F4B80
2E03E0
7D01F0
7800F4
7800F4
7800F4
7800F4
7FFFF4
7FFFF4
ENDCHAR
STARTCHAR revlogicalnot
ENCODING 8976
SWIDTH 600 0
DWIDTH 11 0
BBX 9 6 1 1
BITMAP
BFFF80
BFFF80
B40000
B40000
B40000
500000
ENDCHAR
STARTCHAR uni231C
ENCODING 8988
SWIDTH 600 0
DWIDTH 11 0
BBX 6 14 3 -1
BITMAP
7FF0
7FF0
7800
7800
7800
7800
7800
7800
7800
7800
7800
7800
7800
1000
ENDCHAR
STARTCHAR uni231D
ENCODING 8989
SWIDTH 600 0
DWIDTH 11 0
BBX 6 14 2 -1
BITMAP
FFD0
FFD0
02D0
02D0
02D0
02D0
02D0
02D0
02D0
02D0
02D0
02D0
02D0
0140
ENDCHAR
STARTCHAR uni231E
ENCODING 8990
SWIDTH 600 0
DWIDTH 11 0
BBX 6 15 3 -3
BITMAP
5400
7800
7800
7800
7800
7800
7800
7800
7800
7800
7800
7800
7800
7FF0
7FF0
ENDCHAR
STARTCHAR uni231F
ENCODING 8991
SWIDTH 600 0
DWIDTH 11 0
BBX 6 15 2 -3
BITMAP
0140
02D0
02D0
02D0
02D0
02D0
02D0
02D0
02D0
02D0
02D0
02D0
02D0
FFD0
FFD0
ENDCHAR
STARTCHAR integraltp
ENCODING 8992
SWIDTH 600 0
DWIDTH 11 0
BBX 5 22 4 -8
BITMAP
1B80
3F80
BC00
B800
B800
B800
B800
B800
B800
B800
B800
B800
B800
B800
B800
B800
B800
B800
B800
B800
B800
5400
ENDCHAR
STARTCHAR integralbt
ENCODING 8993
SWIDTH 600 0
DWIDTH 11 0
BBX 5 21 2 -3
BITMAP
0B80
0B80
0B80
0B80
0B80
0B80
0B80
0B80
0B80
0B80
0B80
0B80
0B80
0B80
0B80
0B80
0B80
0B80
0F40
BF00
B900
ENDCHAR
STARTCHAR uni2500
ENCODING 9472
SWIDTH 600 0
DWIDTH 11 0
BBX 14 2 -2 4
BITMAP
7FFFFFF0
7FFFFFF0
ENDCHAR
STARTCHAR uni2501
ENCODING 9473
SWIDTH 600 0
DWIDTH 11 0
BBX 14 5 -2 3
BITMAP
7FFFFFF0
7FFFFFF0
7FFFFFF0
7FFFFFF0
7FFFFFF0
ENDCHAR
STARTCHAR uni2502
ENCODING 9474
SWIDTH 600 0
DWIDTH 11 0
BBX 3 25 4 -7
BITMAP
F8
F8
F8
F8
F8
F8
F8
F8
F8
F8
F8
F8
F8
F8
F8
F8
F8
F8
F8
F8
F8
F8
F8
F8
F8
ENDCHAR
STARTCHAR uni2503
ENCODING 9475
SWIDTH 600 0
DWIDTH 11 0
BBX 5 25 3 -7
BITMAP
FFC0
FFC0
FFC0
FFC0
FFC0
FFC0
FFC0
FFC0
FFC0
FFC0
FFC0
FFC0
FFC0
FFC0
FFC0
FFC0
FFC0
FFC0
FFC0
FFC0
FFC0
FFC0
FFC0
FFC0
FFC0
ENDCHAR
STARTCHAR uni2504
ENCODING 9476
SWIDTH 600 0
DWIDTH 11 0
BBX 11 2 0 4
BITMAP
7CB9F4
7CB9F4
ENDCHAR
STARTCHAR uni2505
ENCODING 9477
SWIDTH 600 0
DWIDTH 11 0
BBX 11 5 0 3
BITMAP
7CB9F4
7CB9F4
7CB9F4
7CB9F4
7CB9F4
ENDCHAR
STARTCHAR uni2506
ENCODING 9478
SWIDTH 600 0
DWIDTH 11 0
BBX 3 19 4 -4
BITMAP
F8
F8
F8
F8
F8
00
00
F8
F8
F8
F8
F8
00
00
F8
F8
F8
F8
F8
ENDCHAR
STARTCHAR uni2507
ENCODING 9479
SWIDTH 600 0
DWIDTH 11 0
BBX 5 19 3 -4
BITMAP
FFC0
FFC0
FFC0
FFC0
FFC0
0000
0000
FFC0
FFC0
FFC0
FFC0
FFC0
0000
0000
FFC0
FFC0
FFC0
FFC0
FFC0
ENDCHAR
STARTCHAR uni2508
ENCODING 9480
SWIDTH 600 0
DWIDTH 11 0
BBX 11 2 0 4
BITMAP
B7DEB4
B7DEB4
ENDCHAR
STARTCHAR uni2509
ENCODING 9481
SWIDTH 600 0
DWIDTH 11 0
BBX 11 5 0 3
BITMAP
B7DEB4
B7DEB4
B7DEB4
B7DEB4
B7DEB4
ENDCHAR
STARTCHAR uni250A
ENCODING 9482
SWIDTH 600 0
DWIDTH 11 0
BBX 3 21 4 -5
BITMAP
F8
F8
F8
F8
00
00
F8
F8
F8
F8
00
F8
F8
F8
F8
00
00
F8
F8
F8
F8
ENDCHAR
STARTCHAR uni250B
ENCODING 9483
SWIDTH 600 0
DWIDTH 11 0
BBX 5 21 3 -5
BITMAP
FFC0
FFC0
FFC0
FFC0
0000
0000
FFC0
FFC0
FFC0
FFC0
0000
FFC0
FFC0
FFC0
FFC0
0000
0000
FFC0
FFC0
FFC0
FFC0
ENDCHAR
STARTCHAR uni250C
ENCODING 9484
SWIDTH 600 0
DWIDTH 11 0
BBX 8 14 4 -8
BITMAP
FFFF
FFFF
F800
F800
F800
F800
F800
F800
F800
F800
F800
F800
F800
5400
ENDCHAR
STARTCHAR uni250D
ENCODING 9485
SWIDTH 600 0
DWIDTH 11 0
BBX 8 15 4 -7
BITMAP
FFFF
FFFF
FFFF
FFFF
FFFF
F800
F800
F800
F800
F800
F800
F800
F800
F800
F800
ENDCHAR
STARTCHAR uni250E
ENCODING 9486
SWIDTH 600 0
DWIDTH 11 0
BBX 9 14 3 -8
BITMAP
FFFFC0
FFFFC0
FFC000
FFC000
FFC000
FFC000
FFC000
FFC000
FFC000
FFC000
FFC000
FFC000
FFC000
554000
ENDCHAR
STARTCHAR uni250F
ENCODING 9487
SWIDTH 600 0
DWIDTH 11 0
BBX 9 15 3 -7
BITMAP
FFFFC0
FFFFC0
FFFFC0
FFFFC0
FFFFC0
FFC000
FFC000
FFC000
FFC000
FFC000
FFC000
FFC000
FFC000
FFC000
FFC000
ENDCHAR
STARTCHAR uni2510
ENCODING 9488
SWIDTH 600 0
DWIDTH 11 0
BBX 9 14 -2 -8
BITMAP
7FFF80
7FFF80
000F80
000F80
000F80
000F80
000F80
000F80
000F80
000F80
000F80
000F80
000F80
000540
ENDCHAR
STARTCHAR uni2511
ENCODING 9489
SWIDTH 600 0
DWIDTH 11 0
BBX 9 15 -2 -7
BITMAP
7FFF80
7FFF80
7FFF80
7FFF80
7FFF80
000F80
000F80
000F80
000F80
000F80
000F80
000F80
000F80
000F80
000F80
ENDCHAR
STARTCHAR uni2512
ENCODING 9490
SWIDTH 600 0
DWIDTH 11 0
BBX 10 14 -2 -8
BITMAP
7FFFF0
7FFFF0
003FF0
003FF0
003FF0
003FF0
003FF0
003FF0
003FF0
003FF0
003FF0
003FF0
003FF0
001550
ENDCHAR
STARTCHAR uni2513
ENCODING 9491
SWIDTH 600 0
DWIDTH 11 0
BBX 10 15 -2 -7
BITMAP
7FFFF0
7FFFF0
7FFFF0
7FFFF0
7FFFF0
003FF0
003FF0
003FF0
003FF0
003FF0
003FF0
003FF0
003FF0
003FF0
003FF0
ENDCHAR
STARTCHAR uni2514
ENCODING 9492
SWIDTH 600 0
DWIDTH 11 0
BBX 8 14 4 4
BITMAP
5400
F800
F800
F800
F800
F800
F800
F800
F800
F800
F800
F800
FFFF
FFFF
ENDCHAR
STARTCHAR uni2515
ENCODING 9493
SWIDTH 600 0
DWIDTH 11 0
BBX 8 15 4 3
BITMAP
F800
F800
F800
F800
F800
F800
F800
F800
F800
F800
FFFF
FFFF
FFFF
FFFF
FFFF
ENDCHAR
STARTCHAR uni2516
ENCODING 9494
SWIDTH 600 0
DWIDTH 11 0
BBX 9 14 3 4
BITMAP
554000
FFC000
FFC000
FFC000
FFC000
FFC000
FFC000
FFC000
FFC000
FFC000
FFC000
FFC000
FFFFC0
FFFFC0
ENDCHAR
STARTCHAR uni2517
ENCODING 9495
SWIDTH 600 0
DWIDTH 11 0
BBX 9 15 3 3
BITMAP
FFC000
FFC000
FFC000
FFC000
FFC000
FFC000
FFC000
FFC000
FFC000
FFC000
FFFFC0
FFFFC0
FFFFC0
FFFFC0
FFFFC0
ENDCHAR
STARTCHAR uni2518
ENCODING 9496
SWIDTH 600 0
DWIDTH 11 0
BBX 9 14 -2 4
BITMAP
000540
000F80
000F80
000F80
000F80
000F80
000F80
000F80
000F80
000F80
000F80
000F80
7FFF80
7FFF80
ENDCHAR
STARTCHAR uni2519
ENCODING 9497
SWIDTH 600 0
DWIDTH 11 0
BBX 9 15 -2 3
BITMAP
000F80
000F80
000F80
000F80
000F80
000F80
000F80
000F80
000F80
000F80
7FFF80
7FFF80
7FFF80
7FFF80
7FFF80
ENDCHAR
STARTCHAR uni251A
ENCODING 9498
SWIDTH 600 0
DWIDTH 11 0
BBX 10 14 -2 4
BITMAP
001550
003FF0
003FF0
003FF0
003FF0
003FF0
003FF0
003FF0
003FF0
003FF0
003FF0
003FF0
7FFFF0
7FFFF0
ENDCHAR
STARTCHAR uni251B
ENCODING 9499
SWIDTH 600 0
DWIDTH 11 0
BBX 10 15 -2 3
BITMAP
003FF0
003FF0
003FF0
003FF0
003FF0
003FF0
003FF0
003FF0
003FF0
003FF0
7FFFF0
7FFFF0
7FFFF0
7FFFF0
7FFFF0
ENDCHAR
STARTCHAR uni251C
ENCODING 9500
SWIDTH 600 0
DWIDTH 11 0
BBX 8 26 4 -8
BITMAP
5400
F800
F800
F800
F800
F800
F800
F800
F800
F800
F800
F800
FFFF
FFFF
F800
F800
F800
F800
F800
F800
F800
F800
F800
F800
F800
5400
ENDCHAR
STARTCHAR uni251D
ENCODING 9501
SWIDTH 600 0
DWIDTH 11 0
BBX 8 25 4 -7
BITMAP
F800
F800
F800
F800
F800
F800
F800
F800
F800
F800
FFFF
FFFF
FFFF
FFFF
FFFF
F800
F800
F800
F800
F800
F800
F800
F800
F800
F800
ENDCHAR
STARTCHAR uni251E
ENCODING 9502
SWIDTH 600 0
DWIDTH 11 0
BBX 9 26 3 -8
BITMAP
554000
FFC000
FFC000
FFC000
FFC000
FFC000
FFC000
FFC000
FFC000
FFC000
FFC000
FFC000
FFFFC0
FFFFC0
3E0000
3E0000
3E0000
3E0000
3E0000
3E0000
3E0000
3E0000
3E0000
3E0000
3E0000
150000
ENDCHAR
STARTCHAR uni251F
ENCODING 9503
SWIDTH 600 0
DWIDTH 11 0
BBX 9 26 3 -8
BITMAP
150000
3E0000
3E0000
3E0000
3E0000
3E0000
3E0000
3E0000
3E0000
3E0000
3E0000
3E0000
FFFFC0
FFFFC0
FFC000
FFC000
FFC000
FFC000
FFC000
FFC000
FFC000
FFC000
FFC000
FFC000
FFC000
554000
ENDCHAR
STARTCHAR uni2520
ENCODING 9504
SWIDTH 600 0
DWIDTH 11 0
BBX 9 26 3 -8
BITMAP
554000
FFC000
FFC000
FFC000
FFC000
FFC000
FFC000
FFC000
FFC000
FFC000
FFC000
FFC000
FFFFC0
FFFFC0
FFC000
FFC000
FFC000
FFC000
FFC000
FFC000
FFC000
FFC000
FFC000
FFC000
FFC000
554000
ENDCHAR
STARTCHAR uni2521
ENCODING 9505
SWIDTH 600 0
DWIDTH 11 0
BBX 9 25 3 -7
BITMAP
FFC000
FFC000
FFC000
FFC000
FFC000
FFC000
FFC000
FFC000
FFC000
FFC000
FFFFC0
FFFFC0
FFFFC0
FFFFC0
FFFFC0
3E0000
3E0000
3E0000
3E0000
3E0000
3E0000
3E0000
3E0000
3E0000
3E0000
ENDCHAR
STARTCHAR uni2522
ENCODING 9506
SWIDTH 600 0
DWIDTH 11 0
BBX 9 25 3 -7
BITMAP
3E0000
3E0000
3E0000
3E0000
3E0000
3E0000
3E0000
3E0000
3E0000
3E0000
FFFFC0
FFFFC0
FFFFC0
FFFFC0
FFFFC0
FFC000
FFC000
FFC000
FFC000
FFC000
FFC000
FFC000
FFC000
FFC000
FFC000
ENDCHAR
STARTCHAR uni2523
ENCODING 9507
SWIDTH 600 0
DWIDTH 11 0
BBX 9 25 3 -7
BITMAP
FFC000
FFC000
FFC000
FFC000
FFC000
FFC000
FFC000
FFC000
FFC000
FFC000
FFFFC0
FFFFC0
FFFFC0
FFFFC0
FFFFC0
FFC000
FFC000
FFC000
FFC000
FFC000
FFC000
FFC000
FFC000
FFC000
FFC000
ENDCHAR
STARTCHAR uni2524
ENCODING 9508
SWIDTH 600 0
DWIDTH 11 0
BBX 9 26 -2 -8
BITMAP
000540
000F80
000F80
000F80
000F80
000F80
000F80
000F80
000F80
000F80
000F80
000F80
7FFF80
7FFF80
000F80
000F80
000F80
000F80
000F80
000F80
000F80
000F80
000F80
000F80
000F80
000540
ENDCHAR
STARTCHAR uni2525
ENCODING 9509
SWIDTH 600 0
DWIDTH 11 0
BBX 9 25 -2 -7
BITMAP
000F80
000F80
000F80
000F80
000F80
000F80
000F80
000F80
000F80
000F80
7FFF80
7FFF80
7FFF80
7FFF80
7FFF80
000F80
000F80
000F80
000F80
000F80
000F80
000F80
000F80
000F80
000F80
ENDCHAR
STARTCHAR uni2526
ENCODING 9510
SWIDTH 600 0
DWIDTH 11 0
BBX 10 26 -2 -8
BITMAP
001550
003FF0
003FF0
003FF0
003FF0
003FF0
003FF0
003FF0
003FF0
003FF0
003FF0
003FF0
7FFFF0
7FFFF0
000F80
000F80
000F80
000F80
000F80
000F80
000F80
000F80
000F80
000F80
000F80
000540
ENDCHAR
STARTCHAR uni2527
ENCODING 9511
SWIDTH 600 0
DWIDTH 11 0
BBX 10 26 -2 -8
BITMAP
000540
000F80
000F80
000F80
000F80
000F80
000F80
000F80
000F80
000F80
000F80
000F80
7FFFF0
7FFFF0
003FF0
003FF0
003FF0
003FF0
003FF0
003FF0
003FF0
003FF0
003FF0
003FF0
003FF0
001550
ENDCHAR
STARTCHAR uni2528
ENCODING 9512
SWIDTH 600 0
DWIDTH 11 0
BBX 10 26 -2 -8
BITMAP
001550
003FF0
003FF0
003FF0
003FF0
003FF0
003FF0
003FF0
003FF0
003FF0
003FF0
003FF0
7FFFF0
7FFFF0
003FF0
003FF0
003FF0
003FF0
003FF0
003FF0
003FF0
003FF0
003FF0
003FF0
003FF0
001550
ENDCHAR
STARTCHAR uni2529
ENCODING 9513
SWIDTH 600 0
DWIDTH 11 0
BBX 10 25 -2 -7
BITMAP
003FF0
003FF0
003FF0
003FF0
003FF0
003FF0
003FF0
003FF0
003FF0
003FF0
7FFFF0
7FFFF0
7FFFF0
7FFFF0
7FFFF0
000F80
000F80
000F80
000F80
000F80
000F80
000F80
000F80
000F80
000F80
ENDCHAR
STARTCHAR uni252A
ENCODING 9514
SWIDTH 600 0
DWIDTH 11 0
BBX 10 25 -2 -7
BITMAP
000F80
000F80
000F80
000F80
000F80
000F80
000F80
000F80
000F80
000F80
7FFFF0
7FFFF0
7FFFF0
7FFFF0
7FFFF0
003FF0
003FF0
003FF0
003FF0
003FF0
003FF0
003FF0
003FF0
003FF0
003FF0
ENDCHAR
STARTCHAR uni252B
ENCODING 9515
SWIDTH 600 0
DWIDTH 11 0
BBX 10 25 -2 -7
BITMAP
003FF0
003FF0
003FF0
003FF0
003FF0
003FF0
003FF0
003FF0
003FF0
003FF0
7FFFF0
7FFFF0
7FFFF0
7FFFF0
7FFFF0
003FF0
003FF0
003FF0
003FF0
003FF0
003FF0
003FF0
003FF0
003FF0
003FF0
ENDCHAR
STARTCHAR uni252C
ENCODING 9516
SWIDTH 600 0
DWIDTH 11 0
BBX 14 14 -2 -8
BITMAP
7FFFFFF0
7FFFFFF0
000F8000
000F8000
000F8000
000F8000
000F8000
000F8000
000F8000
000F8000
000F8000
000F8000
000F8000
00054000
ENDCHAR
STARTCHAR uni252D
ENCODING 9517
SWIDTH 600 0
DWIDTH 11 0
BBX 14 15 -2 -7
BITMAP
7FFF8000
7FFF8000
7FFFFFF0
7FFFFFF0
7FFF8000
000F8000
000F8000
000F8000
000F8000
000F8000
000F8000
000F8000
000F8000
000F8000
000F8000
ENDCHAR
STARTCHAR uni252E
ENCODING 9518
SWIDTH 600 0
DWIDTH 11 0
BBX 14 15 -2 -7
BITMAP
000FFFF0
000FFFF0
7FFFFFF0
7FFFFFF0
000FFFF0
000F8000
000F8000
000F8000
000F8000
000F8000
000F8000
000F8000
000F8000
000F8000
000F8000
ENDCHAR
STARTCHAR uni252F
ENCODING 9519
SWIDTH 600 0
DWIDTH 11 0
BBX 14 15 -2 -7
BITMAP
7FFFFFF0
7FFFFFF0
7FFFFFF0
7FFFFFF0
7FFFFFF0
000F8000
000F8000
000F8000
000F8000
000F8000
000F8000
000F8000
000F8000
000F8000
000F8000
ENDCHAR
STARTCHAR uni2530
ENCODING 9520
SWIDTH 600 0
DWIDTH 11 0
BBX 14 14 -2 -8
BITMAP
7FFFFFF0
7FFFFFF0
003FF000
003FF000
003FF000
003FF000
003FF000
003FF000
003FF000
003FF000
003FF000
003FF000
003FF000
00155000
ENDCHAR
STARTCHAR uni2531
ENCODING 9521
SWIDTH 600 0
DWIDTH 11 0
BBX 14 15 -2 -7
BITMAP
7FFFF000
7FFFF000
7FFFFFF0
7FFFFFF0
7FFFF000
003FF000
003FF000
003FF000
003FF000
003FF000
003FF000
003FF000
003FF000
003FF000
003FF000
ENDCHAR
STARTCHAR uni2532
ENCODING 9522
SWIDTH 600 0
DWIDTH 11 0
BBX 14 15 -2 -7
BITMAP
003FFFF0
003FFFF0
7FFFFFF0
7FFFFFF0
003FFFF0
003FF000
003FF000
003FF000
003FF000
003FF000
003FF000
003FF000
003FF000
003FF000
003FF000
ENDCHAR
STARTCHAR uni2533
ENCODING 9523
SWIDTH 600 0
DWIDTH 11 0
BBX 14 15 -2 -7
BITMAP
7FFFFFF0
7FFFFFF0
7FFFFFF0
7FFFFFF0
7FFFFFF0
003FF000
003FF000
003FF000
003FF000
003FF000
003FF000
003FF000
003FF000
003FF000
003FF000
ENDCHAR
STARTCHAR uni2534
ENCODING 9524
SWIDTH 600 0
DWIDTH 11 0
BBX 14 14 -2 4
BITMAP
00054000
000F8000
000F8000
000F8000
000F8000
000F8000
000F8000
000F8000
000F8000
000F8000
000F8000
000F8000
7FFFFFF0
7FFFFFF0
ENDCHAR
STARTCHAR uni2535
ENCODING 9525
SWIDTH 600 0
DWIDTH 11 0
BBX 14 15 -2 3
BITMAP
000F8000
000F8000
000F8000
000F8000
000F8000
000F8000
000F8000
000F8000
000F8000
000F8000
7FFF8000
7FFF8000
7FFFFFF0
7FFFFFF0
7FFF8000
ENDCHAR
STARTCHAR uni2536
ENCODING 9526
SWIDTH 600 0
DWIDTH 11 0
BBX 14 15 -2 3
BITMAP
000F8000
000F8000
000F8000
000F8000
000F8000
000F8000
000F8000
000F8000
000F8000
000F8000
000FFFF0
000FFFF0
7FFFFFF0
7FFFFFF0
000FFFF0
ENDCHAR
STARTCHAR uni2537
ENCODING 9527
SWIDTH 600 0
DWIDTH 11 0
BBX 14 15 -2 3
BITMAP
000F8000
000F8000
000F8000
000F8000
000F8000
000F8000
000F8000
000F8000
000F8000
000F8000
7FFFFFF0
7FFFFFF0
7FFFFFF0
7FFFFFF0
7FFFFFF0
ENDCHAR
STARTCHAR uni2538
ENCODING 9528
SWIDTH 600 0
DWIDTH 11 0
BBX 14 14 -2 4
BITMAP
00155000
003FF000
003FF000
003FF000
003FF000
003FF000
003FF000
003FF000
003FF000
003FF000
003FF000
003FF000
7FFFFFF0
7FFFFFF0
ENDCHAR
STARTCHAR uni2539
ENCODING 9529
SWIDTH 600 0
DWIDTH 11 0
BBX 14 15 -2 3
BITMAP
003FF000
003FF000
003FF000
003FF000
003FF000
003FF000
003FF000
003FF000
003FF000
003FF000
7FFFF000
7FFFF000
7FFFFFF0
7FFFFFF0
7FFFF000
ENDCHAR
STARTCHAR uni253A
ENCODING 9530
SWIDTH 600 0
DWIDTH 11 0
BBX 14 15 -2 3
BITMAP
003FF000
003FF000
003FF000
003FF000
003FF000
003FF000
003FF000
003FF000
003FF000
003FF000
003FFFF0
003FFFF0
7FFFFFF0
7FFFFFF0
003FFFF0
ENDCHAR
STARTCHAR uni253B
ENCODING 9531
SWIDTH 600 0
DWIDTH 11 0
BBX 14 15 -2 3
BITMAP
003FF000
003FF000
003FF000
003FF000
003FF000
003FF000
003FF000
003FF000
003FF000
003FF000
7FFFFFF0
7FFFFFF0
7FFFFFF0
7FFFFFF0
7FFFFFF0
ENDCHAR
STARTCHAR uni253C
ENCODING 9532
SWIDTH 600 0
DWIDTH 11 0
BBX 14 26 -2 -8
BITMAP
00054000
000F8000
000F8000
000F8000
000F8000
000F8000
000F8000
000F8000
000F8000
000F8000
000F8000
000F8000
7FFFFFF0
7FFFFFF0
000F8000
000F8000
000F8000
000F8000
000F8000
000F8000
000F8000
000F8000
000F8000
000F8000
000F8000
00054000
ENDCHAR
STARTCHAR uni253D
ENCODING 9533
SWIDTH 600 0
DWIDTH 11 0
BBX 14 25 -2 -7
BITMAP
000F8000
000F8000
000F8000
000F8000
000F8000
000F8000
000F8000
000F8000
000F8000
000F8000
7FFF8000
7FFF8000
7FFFFFF0
7FFFFFF0
7FFF8000
000F8000
000F8000
000F8000
000F8000
000F8000
000F8000
000F8000
000F8000
000F8000
000F8000
ENDCHAR
STARTCHAR uni253E
ENCODING 9534
SWIDTH 600 0
DWIDTH 11 0
BBX 14 25 -2 -7
BITMAP
000F8000
000F8000
000F8000
000F8000
000F8000
000F8000
000F8000
000F8000
000F8000
000F8000
000FFFF0
000FFFF0
7FFFFFF0
7FFFFFF0
000FFFF0
000F8000
000F8000
000F8000
000F8000
000F8000
000F8000
000F8000
000F8000
000F8000
000F8000
ENDCHAR
STARTCHAR uni253F
ENCODING 9535
SWIDTH 600 0
DWIDTH 11 0
BBX 14 25 -2 -7
BITMAP
000F8000
000F8000
000F8000
000F8000
000F8000
000F8000
000F8000
000F8000
000F8000
000F8000
7FFFFFF0
7FFFFFF0
7FFFFFF0
7FFFFFF0
7FFFFFF0
000F8000
000F8000
000F8000
000F8000
000F8000
000F8000
000F8000
000F8000
000F8000
000F8000
ENDCHAR
STARTCHAR uni2540
ENCODING 9536
SWIDTH 600 0
DWIDTH 11 0
BBX 14 26 -2 -8
BITMAP
00155000
003FF000
003FF000
003FF000
003FF000
003FF000
003FF000
003FF000
003FF000
003FF000
003FF000
003FF000
7FFFFFF0
7FFFFFF0
000F8000
000F8000
000F8000
000F8000
000F8000
000F8000
000F8000
000F8000
000F8000
000F8000
000F8000
00054000
ENDCHAR
STARTCHAR uni2541
ENCODING 9537
SWIDTH 600 0
DWIDTH 11 0
BBX 14 26 -2 -8
BITMAP
00054000
000F8000
000F8000
000F8000
000F8000
000F8000
000F8000
000F8000
000F8000
000F8000
000F8000
000F8000
7FFFFFF0
7FFFFFF0
003FF000
003FF000
003FF000
003FF000
003FF000
003FF000
003FF000
003FF000
003FF000
003FF000
003FF000
00155000
ENDCHAR
STARTCHAR uni2542
ENCODING 9538
SWIDTH 600 0
DWIDTH 11 0
BBX 14 26 -2 -8
BITMAP
00155000
003FF000
003FF000
003FF000
003FF000
003FF000
003FF000
003FF000
003FF000
003FF000
003FF000
003FF000
7FFFFFF0
7FFFFFF0
003FF000
003FF000
003FF000
003FF000
003FF000
003FF000
003FF000
003FF000
003FF000
003FF000
003FF000
00155000
ENDCHAR
STARTCHAR uni2543
ENCODING 9539
SWIDTH 600 0
DWIDTH 11 0
BBX 14 25 -2 -7
BITMAP
003FF000
003FF000
003FF000
003FF000
003FF000
003FF000
003FF000
003FF000
003FF000
003FF000
7FFFF000
7FFFF000
7FFFFFF0
7FFFFFF0
7FFFF000
000F8000
000F8000
000F8000
000F8000
000F8000
000F8000
000F8000
000F8000
000F8000
000F8000
ENDCHAR
STARTCHAR uni2544
ENCODING 9540
SWIDTH 600 0
DWIDTH 11 0
BBX 14 25 -2 -7
BITMAP
003FF000
003FF000
003FF000
003FF000
003FF000
003FF000
003FF000
003FF000
003FF000
003FF000
003FFFF0
003FFFF0
7FFFFFF0
7FFFFFF0
003FFFF0
000F8000
000F8000
000F8000
000F8000
000F8000
000F8000
000F8000
000F8000
000F8000
000F8000
ENDCHAR
STARTCHAR uni2545
ENCODING 9541
SWIDTH 600 0
DWIDTH 11 0
BBX 14 25 -2 -7
BITMAP
000F8000
000F8000
000F8000
000F8000
000F8000
000F8000
000F8000
000F8000
000F8000
000F8000
7FFFF000
7FFFF000
7FFFFFF0
7FFFFFF0
7FFFF000
003FF000
003FF000
003FF000
003FF000
003FF000
003FF000
003FF000
003FF000
003FF000
003FF000
ENDCHAR
STARTCHAR uni2546
ENCODING 9542
SWIDTH 600 0
DWIDTH 11 0
BBX 14 25 -2 -7
BITMAP
000F8000
000F8000
000F8000
000F8000
000F8000
000F8000
000F8000
000F8000
000F8000
000F8000
003FFFF0
003FFFF0
7FFFFFF0
7FFFFFF0
003FFFF0
003FF000
003FF000
003FF000
003FF000
003FF000
003FF000
003FF000
003FF000
003FF000
003FF000
ENDCHAR
STARTCHAR uni2547
ENCODING 9543
SWIDTH 600 0
DWIDTH 11 0
BBX 14 25 -2 -7
BITMAP
003FF000
003FF000
003FF000
003FF000
003FF000
003FF000
003FF000
003FF000
003FF000
003FF000
7FFFFFF0
7FFFFFF0
7FFFFFF0
7FFFFFF0
7FFFFFF0
000F8000
000F8000
000F8000
000F8000
000F8000
000F8000
000F8000
000F8000
000F8000
000F8000
ENDCHAR
STARTCHAR uni2548
ENCODING 9544
SWIDTH 600 0
DWIDTH 11 0
BBX 14 25 -2 -7
BITMAP
000F8000
000F8000
000F8000
000F8000
000F8000
000F8000
000F8000
000F8000
000F8000
000F8000
7FFFFFF0
7FFFFFF0
7FFFFFF0
7FFFFFF0
7FFFFFF0
003FF000
003FF000
003FF000
003FF000
003FF000
003FF000
003FF000
003FF000
003FF000
003FF000
ENDCHAR
STARTCHAR uni2549
ENCODING 9545
SWIDTH 600 0
DWIDTH 11 0
BBX 14 25 -2 -7
BITMAP
003FF000
003FF000
003FF000
003FF000
003FF000
003FF000
003FF000
003FF000
003FF000
003FF000
7FFFF000
7FFFF000
7FFFFFF0
7FFFFFF0
7FFFF000
003FF000
003FF000
003FF000
003FF000
003FF000
003FF000
003FF000
003FF000
003FF000
003FF000
ENDCHAR
STARTCHAR uni254A
ENCODING 9546
SWIDTH 600 0
DWIDTH 11 0
BBX 14 25 -2 -7
BITMAP
003FF000
003FF000
003FF000
003FF000
003FF000
003FF000
003FF000
003FF000
003FF000
003FF000
003FFFF0
003FFFF0
7FFFFFF0
7FFFFFF0
003FFFF0
003FF000
003FF000
003FF000
003FF000
003FF000
003FF000
003FF000
003FF000
003FF000
003FF000
ENDCHAR
ENDFONT
